<svg xmlns="http://www.w3.org/2000/svg" xmlns:xlink="http://www.w3.org/1999/xlink" viewBox="0 0 703.23 372.54"><defs><style>.cls-1{fill:#ececec;}.cls-2{fill:#445464;}.cls-3{fill:#b0c5d6;}.cls-12,.cls-17,.cls-23,.cls-28,.cls-32,.cls-36,.cls-4,.cls-40,.cls-44,.cls-48,.cls-5,.cls-50{fill:#132127;stroke:#dac8b5;}.cls-4{stroke-width:0.55px;filter:url(#filter);}.cls-5{stroke-width:0.72px;}.cls-6{fill:#d1f400;}.cls-18,.cls-29,.cls-33,.cls-37,.cls-7{font-size:4.21px;font-family:Gotham-Bold, Gotham Bold;font-weight:700;}.cls-18,.cls-29,.cls-33,.cls-37,.cls-49,.cls-7{fill:#fff;}.cls-22,.cls-7,.cls-9{letter-spacing:-0.06em;}.cls-16,.cls-22,.cls-27,.cls-31,.cls-39,.cls-46,.cls-8{font-family:Gotham-Book, Gotham Book;font-weight:400;}.cls-14,.cls-8{letter-spacing:-0.06em;}.cls-10{letter-spacing:-0.07em;}.cls-11,.cls-18,.cls-39{letter-spacing:-0.06em;}.cls-12{stroke-width:0.62px;filter:url(#filter-2);}.cls-13{letter-spacing:-0.07em;}.cls-15{letter-spacing:-0.07em;}.cls-17{stroke-width:0.67px;filter:url(#filter-3);}.cls-19{letter-spacing:-0.07em;}.cls-20,.cls-46{letter-spacing:-0.07em;}.cls-21{letter-spacing:-0.07em;}.cls-23{stroke-width:0.71px;filter:url(#filter-4);}.cls-24{letter-spacing:-0.1em;}.cls-25{letter-spacing:-0.08em;}.cls-26{letter-spacing:-0.09em;}.cls-27{letter-spacing:-0.07em;}.cls-28{stroke-width:0.72px;filter:url(#filter-5);}.cls-29{letter-spacing:-0.05em;}.cls-30{letter-spacing:-0.06em;}.cls-31{letter-spacing:-0.09em;}.cls-32{stroke-width:0.62px;filter:url(#filter-6);}.cls-33{letter-spacing:-0.08em;}.cls-34{letter-spacing:-0.07em;}.cls-35{letter-spacing:-0.06em;}.cls-36,.cls-40,.cls-44{stroke-width:0.64px;}.cls-36{filter:url(#filter-7);}.cls-37{letter-spacing:-0.07em;}.cls-38{letter-spacing:-0.07em;}.cls-40{filter:url(#filter-8);}.cls-41{letter-spacing:-0.04em;}.cls-42{letter-spacing:-0.03em;}.cls-43{letter-spacing:-0.13em;}.cls-44{filter:url(#filter-9);}.cls-45{letter-spacing:-0.07em;}.cls-47{letter-spacing:-0.06em;}.cls-48,.cls-50{stroke-width:0.89px;}.cls-48{filter:url(#filter-10);}.cls-50{filter:url(#filter-11);}</style><filter id="filter" x="454.99" y="141.21" width="45" height="22" filterUnits="userSpaceOnUse"><feOffset dy="0.69" input="SourceAlpha"/><feGaussianBlur stdDeviation="0.83" result="blur"/><feFlood flood-color="#8cadbf"/><feComposite operator="in" in2="blur"/><feComposite in="SourceGraphic"/></filter><filter id="filter-2" x="399.64" y="209.86" width="58" height="23" filterUnits="userSpaceOnUse"><feOffset dy="0.79" input="SourceAlpha"/><feGaussianBlur stdDeviation="0.94" result="blur-2"/><feFlood flood-color="#8cadbf"/><feComposite operator="in" in2="blur-2"/><feComposite in="SourceGraphic"/></filter><filter id="filter-3" x="408.45" y="157.67" width="65" height="23" filterUnits="userSpaceOnUse"><feOffset dy="0.84" input="SourceAlpha"/><feGaussianBlur stdDeviation="1.01" result="blur-3"/><feFlood flood-color="#8cadbf"/><feComposite operator="in" in2="blur-3"/><feComposite in="SourceGraphic"/></filter><filter id="filter-4" x="398.28" y="125.5" width="72" height="24" filterUnits="userSpaceOnUse"><feOffset dy="0.89" input="SourceAlpha"/><feGaussianBlur stdDeviation="1.06" result="blur-4"/><feFlood flood-color="#8cadbf"/><feComposite operator="in" in2="blur-4"/><feComposite in="SourceGraphic"/></filter><filter id="filter-5" x="336.19" y="157.41" width="76" height="24" filterUnits="userSpaceOnUse"><feOffset dy="0.91" input="SourceAlpha"/><feGaussianBlur stdDeviation="1.09" result="blur-5"/><feFlood flood-color="#8cadbf"/><feComposite operator="in" in2="blur-5"/><feComposite in="SourceGraphic"/></filter><filter id="filter-6" x="292.66" y="197.88" width="57" height="24" filterUnits="userSpaceOnUse"><feOffset dy="0.78" input="SourceAlpha"/><feGaussianBlur stdDeviation="0.94" result="blur-6"/><feFlood flood-color="#8cadbf"/><feComposite operator="in" in2="blur-6"/><feComposite in="SourceGraphic"/></filter><filter id="filter-7" x="285.59" y="163.81" width="59" height="23" filterUnits="userSpaceOnUse"><feOffset dy="0.8" input="SourceAlpha"/><feGaussianBlur stdDeviation="0.96" result="blur-7"/><feFlood flood-color="#8cadbf"/><feComposite operator="in" in2="blur-7"/><feComposite in="SourceGraphic"/></filter><filter id="filter-8" x="276.59" y="129.81" width="60" height="24" filterUnits="userSpaceOnUse"><feOffset dy="0.8" input="SourceAlpha"/><feGaussianBlur stdDeviation="0.96" result="blur-8"/><feFlood flood-color="#8cadbf"/><feComposite operator="in" in2="blur-8"/><feComposite in="SourceGraphic"/></filter><filter id="filter-9" x="330.59" y="111.81" width="60" height="24" filterUnits="userSpaceOnUse"><feOffset dy="0.8" input="SourceAlpha"/><feGaussianBlur stdDeviation="0.96" result="blur-9"/><feFlood flood-color="#8cadbf"/><feComposite operator="in" in2="blur-9"/><feComposite in="SourceGraphic"/></filter><filter id="filter-10" x="363.44" y="172.66" width="111" height="26" filterUnits="userSpaceOnUse"><feOffset dy="1.12" input="SourceAlpha"/><feGaussianBlur stdDeviation="1.34" result="blur-10"/><feFlood flood-color="#8cadbf"/><feComposite operator="in" in2="blur-10"/><feComposite in="SourceGraphic"/></filter><filter id="filter-11" x="363.44" y="172.66" width="111" height="26" filterUnits="userSpaceOnUse"><feOffset dy="1.12" input="SourceAlpha"/><feGaussianBlur stdDeviation="1.34" result="blur-11"/><feFlood flood-color="#8cadbf"/><feComposite operator="in" in2="blur-11"/><feComposite in="SourceGraphic"/></filter></defs><g id="Layer_2" data-name="Layer 2"><g id="Calles"><path class="cls-1" d="M282.11,334.44c6.19-10.89,12.23-21.87,18.27-32.85q11.87-21.54,23.61-43.15,11.26-20.7,22.49-41.42,11-20.28,21.94-40.56,17.16-31.83,33.31-64.19l3.93-7.93c.68-1.37-1.38-2.58-2.06-1.2q-16,32.4-33,64.29c-7.85,14.7-15.82,29.34-23.75,44q-10.95,20.22-21.94,40.42-11.88,21.82-23.82,43.6c-6.37,11.59-12.75,23.19-19.25,34.71-.58,1-1.16,2.06-1.75,3.09a1.19,1.19,0,0,0,2.06,1.2Z"/><path class="cls-1" d="M283.37,288.58c7.42-12.13,14.45-24.49,21.5-36.84C313,237.5,321.06,223.22,329.26,209c4.06-7,8.15-14.07,12.34-21l-1.34.55c14.51,5.31,29.27,10.19,44.18,14.25a1.19,1.19,0,0,0,.64-2.29c-14.92-4.06-29.68-9-44.19-14.26a1.22,1.22,0,0,0-1.35.55c-7.82,13-15.34,26.2-22.85,39.39-8,14-15.92,28.06-24,42-3.73,6.44-7.49,12.86-11.37,19.2-.8,1.31,1.26,2.51,2.06,1.2Z"/><path class="cls-1" d="M257.73,294c6-9.57,11.93-19.2,17.85-28.83q10.85-17.64,21.69-35.28,4.71-7.65,9.45-15.3c3.3-5.31,6.74-10.54,9.85-16A77.73,77.73,0,0,0,325.68,173c1.6-9.22,2.14-18.59,2.87-27.91,1.46-18.71,3.4-37.42,3.55-56.2,0-1.9,0-3.8,0-5.7a1.19,1.19,0,0,0-2.38,0c0,8.24-.06,16.5-.67,24.72-.74,9.84-1.54,19.68-2.3,29.52-.74,9.49-1.28,19-2.44,28.47-1.12,9.14-3.09,18.27-7.19,26.58-3.1,6.28-7,12.12-10.73,18.06q-4.49,7.2-8.93,14.43Q286.73,242.41,276,259.85C269.83,269.93,263.65,280,257.38,290l-1.7,2.72c-.82,1.3,1.24,2.5,2.05,1.2Z"/><path class="cls-1" d="M219.89,318.32c1.54-3.18,3.37-6.25,5.13-9.32,3.08-5.36,6.22-10.7,9.37-16q11.25-19.07,22.72-38,8.37-13.89,16.9-27.68c6.84-11,13.58-22.1,20.09-33.32a76.28,76.28,0,0,0,4.35-8.12c1-2.42,1.81-4.92,2.66-7.4a68.62,68.62,0,0,0,3.21-16.05c.57-5.87.68-11.79,1.52-17.63.88-6.08,2.24-12.08,3-18.18.82-6.61.92-13.33,1.5-20s1.24-13.13,1.76-19.7c.26-3.29.48-6.58.64-9.87.07-1.53-2.31-1.53-2.38,0-.64,13.34-2.37,26.6-3.19,39.93-.2,3.21-.32,6.41-.72,9.61s-.95,6.21-1.51,9.3a159,159,0,0,0-2.33,17.8,135.92,135.92,0,0,1-1.82,17,61.68,61.68,0,0,1-2.25,8,73.49,73.49,0,0,1-2.79,7.46c-1.33,2.8-3,5.46-4.56,8.14s-3.25,5.54-4.89,8.3q-4.89,8.22-9.91,16.38C270,229.25,263.61,239.57,257.33,250q-11.28,18.68-22.43,37.45c-5.53,9.33-11.24,18.62-16.31,28.22-.26.49-.52,1-.76,1.48-.66,1.38,1.39,2.59,2.06,1.2Z"/><path class="cls-1" d="M221.38,284.3c5.78-10,11.32-20.13,16.89-30.24,6.77-12.27,13.5-24.55,20.3-36.8q4-7.15,8-14.28c3.68-6.44,7.59-12.76,11.06-19.31a91.77,91.77,0,0,0,8.49-22.08A160.22,160.22,0,0,0,289.28,139c.76-8.59,1.2-17.19,2.12-25.77,1.05-9.76,2.33-19.5,3.16-29.28.21-2.58.4-5.16.55-7.74.09-1.53-2.29-1.53-2.38,0-.58,9.93-1.75,19.8-2.89,29.68-1.07,9.23-1.83,18.46-2.51,27.72-.52,7.17-1.12,14.4-2.31,21.49a86.61,86.61,0,0,1-7.3,23.14c-3.51,7.3-7.81,14.18-11.86,21.19-2.5,4.33-4.94,8.7-7.37,13.06-6.67,12-13.25,24-19.85,36-5.87,10.66-11.72,21.34-17.75,31.92-.52.9-1,1.81-1.57,2.71a1.2,1.2,0,0,0,2.06,1.21Z"/><path class="cls-1" d="M216.42,254.7c9-15.45,17.19-31.35,25.47-47.19,4.16-7.94,8.31-15.89,12.56-23.79,4.33-8.05,9.5-16,11.88-24.86a101.54,101.54,0,0,0,2.56-16.64q.84-8.82,1.69-17.63c.15-1.53-2.23-1.52-2.38,0l-1.51,15.69a135.32,135.32,0,0,1-1.9,14.74c-1.92,9.33-6.88,17.31-11.36,25.58-8.54,15.79-16.69,31.79-25.12,47.64-4.52,8.49-9.11,16.94-13.94,25.26a1.19,1.19,0,0,0,2,1.2Z"/><path class="cls-1" d="M174.05,139.07,218.51,158c6.93,2.95,14,5.54,20.83,8.78,3.17,1.51,6.27,3.17,9.41,4.76q22.32,11.37,44.76,22.5Q323.2,208.82,353,223.42q32.07,15.75,64.26,31.25c19.76,9.5,39.56,18.94,59.45,28.16l6.31,2.92c1.39.64,2.6-1.41,1.2-2.05-19.39-8.94-38.68-18.1-57.94-27.33Q394,240.91,361.88,225.15q-30.33-14.85-60.56-29.88-23.52-11.72-47-23.56c-8-4-15.85-8.1-24.14-11.46-14.84-6-29.52-12.42-44.25-18.69L175.26,137c-1.4-.59-2.61,1.46-1.21,2.06Z"/><path class="cls-1" d="M350.72,103.42a138.81,138.81,0,0,0-6.49,31.31c-1,10.26-1.27,20.58-1.85,30.87-.35,6.09-.83,12.17-1.58,18.22-.19,1.52,2.19,1.5,2.38,0,2.57-20.62,1.47-41.6,5.23-62.09A124.17,124.17,0,0,1,353,104.05c.49-1.45-1.81-2.07-2.3-.63Z"/><path class="cls-1" d="M351.55,104.89c7.88,1.52,15.5,5.06,22.77,8.35,8.86,4,17.56,8.37,26.1,13,3.53,1.92,7,3.89,10.45,6,1.3.81,2.5-1.25,1.2-2.06-6.95-4.34-14.25-8.15-21.56-11.84-8.7-4.4-17.55-8.61-26.65-12.13a70,70,0,0,0-11.68-3.66c-1.49-.29-2.13,2-.63,2.3Z"/><path class="cls-1" d="M309.89,104.67a64.88,64.88,0,0,1,10.49,4.45c5.33,2.6,10.58,5.37,15.81,8.16,11.56,6.17,23,12.56,34.6,18.66,4.48,2.35,9,4.73,13.65,6.67,1.42.58,2-1.72.64-2.3-3.89-1.6-7.83-3.69-11.62-5.66-5.5-2.87-10.94-5.82-16.38-8.77-11.32-6.15-22.58-12.43-34.12-18.14-4-2-8.12-4.15-12.44-5.36a1.19,1.19,0,0,0-.63,2.29Z"/><path class="cls-1" d="M358.71,168c1.05-5.37,2-10.76,2.57-16.2a70.21,70.21,0,0,1,1.44-9.19c.87-3.72,1.9-7.41,2.94-11.09a1.19,1.19,0,0,0-2.3-.63,135.15,135.15,0,0,0-3.86,15.73c-.49,3.13-.67,6.29-1.12,9.43-.53,3.79-1.23,7.56-2,11.32-.29,1.49,2,2.13,2.3.63Z"/><path class="cls-1" d="M389.93,96l6.73-40.39L399.3,39.8c.25-1.5-2-2.14-2.29-.63l-6.74,40.39-2.64,15.82c-.25,1.5,2.05,2.14,2.3.63Z"/><path class="cls-1" d="M353.06,103.74c2.93-23.15,9.78-45.52,16-67.94,1.78-6.41,3.5-12.84,5.07-19.31a1.19,1.19,0,0,0-2.3-.63c-5.57,22.89-13.05,45.31-17.85,68.4-1.34,6.45-2.45,12.94-3.27,19.48-.19,1.51,2.19,1.5,2.38,0Z"/><path class="cls-1" d="M332.07,83.5c1.52-7.12,3.13-14.22,5.11-21.23,1.34-4.77,2.76-9.5,3.95-14.31s2.24-9.49,3.26-14.26c.32-1.5-2-2.14-2.3-.64C340.57,40.18,339,47.29,337,54.3c-1.34,4.76-2.76,9.5-4,14.3s-2.23,9.5-3.25,14.27c-.32,1.49,2,2.13,2.29.63Z"/><path class="cls-1" d="M466.54,82.59c.68-3.25,1.07-6.57,1.52-9.86.73-5.38,1.4-10.76,2.05-16.14q2-16.15,3.78-32.33c.27-2.37.53-4.73.8-7.1.17-1.52-2.22-1.51-2.38,0q-1.08,9.69-2.2,19.37c-1.31,11.33-2.64,22.66-4.13,34-.51,3.82-1,7.68-1.73,11.46-.32,1.49,2,2.13,2.29.63Z"/><path class="cls-1" d="M263.21,22c26.49,8.57,53.49,15.61,80.66,21.63,13.28,2.94,26.63,5.62,40,8,12.43,2.16,24.92,3.84,37.43,5.5,15.64,2.08,31.29,4.21,47,5.58,1.53.13,1.52-2.25,0-2.38-14-1.22-27.9-3-41.81-4.89-12.6-1.66-25.2-3.28-37.74-5.38-27.13-4.56-54-10.5-80.65-17.46-14.88-3.89-29.67-8.12-44.3-12.86-1.46-.47-2.09,1.83-.64,2.3Z"/><path class="cls-1" d="M320.45,58.9c23.12,4.66,45.6,12.41,69.05,15.44,8.05,1,16.15,1.74,24.21,2.7q13.71,1.63,27.4,3.37c8.09,1,16.19,2,24.28,3,1.52.19,1.51-2.19,0-2.38-16.11-2-32.22-4.08-48.34-6-7.68-.93-15.37-1.84-23.07-2.6-11.59-1.14-23-3.71-34.27-6.49-12.86-3.16-25.63-6.75-38.62-9.37-1.5-.3-2.14,2-.64,2.3Z"/><path class="cls-1" d="M295.07,76.54a267.37,267.37,0,0,0,13.26-41.67c1-4.45,1.9-8.92,2.77-13.39.29-1.49-2-2.13-2.3-.63-2.8,14.37-6.15,28.53-11.13,42.31-1.55,4.28-3.2,8.53-4.9,12.75-.57,1.42,1.73,2,2.3.63Z"/><path class="cls-1" d="M240.59,80.14c-5-15.62-5.09-32.57-3.33-48.72.55-5,1.32-10,2.27-14.93.29-1.5-2-2.14-2.29-.63-3.29,17-4.61,34.74-2,51.94a87.41,87.41,0,0,0,3,13c.46,1.45,2.76.83,2.3-.63Z"/><path class="cls-1" d="M195.61,95.42a307.57,307.57,0,0,1-4.47-33,269.26,269.26,0,0,1-.95-35.13A116.18,116.18,0,0,1,192,10.76c.28-1.49-2-2.13-2.3-.63-2,10.56-2.25,21.46-2,32.18a334.28,334.28,0,0,0,2.79,35.9c.78,6,1.71,11.93,2.86,17.84.3,1.51,2.59.87,2.3-.63Z"/><path class="cls-1" d="M123.87,91.51c2.67-10.52,6.8-20.69,10.71-30.79,4.5-11.62,9.16-23.2,13.11-35A137.7,137.7,0,0,0,152.38,8.8c.3-1.5-2-2.14-2.29-.64-2.15,10.93-6.17,21.51-10.08,31.91-4.37,11.59-9.06,23.07-13.28,34.72a168.16,168.16,0,0,0-5.15,16.09,1.19,1.19,0,0,0,2.29.63Z"/><path class="cls-1" d="M312.58,77.63c6.54-14.15,14.24-27.8,18-43.06,1.26-5.19,2.2-10.47,3-15.75.23-1.5-2.06-2.15-2.29-.64a148.18,148.18,0,0,1-5.67,24.9,169.72,169.72,0,0,1-8.37,19.29C315,67,312.7,71.72,310.52,76.43c-.64,1.38,1.41,2.59,2.06,1.2Z"/><path class="cls-1" d="M332.1,19.65a548.18,548.18,0,0,0,58,11.3c20,2.91,40.08,5.09,60.16,7.29,11.79,1.28,23.58,2.57,35.35,4,1.52.18,1.51-2.2,0-2.38-20.57-2.45-41.18-4.53-61.76-6.92-19.67-2.28-39.32-4.86-58.8-8.47-10.83-2-21.61-4.34-32.28-7.09a1.19,1.19,0,0,0-.63,2.3Z"/><path class="cls-1" d="M132.19,11c3,1.62,6.44,2.42,9.73,3.36q5.31,1.5,10.63,3c7.06,1.94,14.14,3.81,21.22,5.66C188,26.65,202.24,30.26,216.44,34q11.94,3.2,23.84,6.59a1.19,1.19,0,0,0,.63-2.3c-28-8.07-56.36-14.83-84.48-22.46q-5.79-1.57-11.57-3.2c-3.82-1.07-8-1.89-11.47-3.76-1.35-.72-2.56,1.33-1.2,2.05Z"/><path class="cls-1" d="M62.23,56.18a47.36,47.36,0,0,0,9.27,3.23l8.34,2.44c3.49,1,7,2.1,10.45,3.22,4.8,1.55,9.56,3.19,14.38,4.68,5.65,1.74,11.33,3.39,17,5a1.19,1.19,0,0,0,.63-2.3c-8-2.31-16-4.63-23.94-7.24-5.24-1.73-10.48-3.45-15.76-5q-4.17-1.26-8.34-2.47c-3.62-1-7.5-1.83-10.84-3.61-1.35-.72-2.55,1.34-1.2,2.06Z"/><path class="cls-1" d="M460.77,92.4c5.76,3.9,12.6,6.46,19.17,8.63,7.86,2.6,16.21,4.67,24.53,4.74,4.92,0,9.84-.16,14.76-.09,5.23.08,10.43.26,15.64.61s10.52.79,15.79,1c5.51.27,11,.41,16.54.64q19.11.8,38.2,2c1.53.09,1.52-2.29,0-2.39q-16.78-1.07-33.58-1.8c-10.8-.47-21.59-.78-32.36-1.56-10.3-.74-20.64-1.21-31-.94a66.21,66.21,0,0,1-12.1-.61,96.22,96.22,0,0,1-12.46-2.89c-7.52-2.24-15.41-5-22-9.44-1.27-.86-2.47,1.2-1.2,2.05Z"/><path class="cls-1" d="M604.57,129.13c1.7-7.92,1.87-16,2.23-24.1L607.92,80l.64-14.41c.07-1.53-2.31-1.53-2.38,0q-.7,15.9-1.42,31.79c-.46,10.35-.3,21-2.48,31.16-.32,1.5,2,2.13,2.29.64Z"/><path class="cls-1" d="M462.55,93.43a16.15,16.15,0,0,0-1.63,4.36c-.24,1.41-.28,2.84-.43,4.25a12.2,12.2,0,0,1-.33,2.26,3.44,3.44,0,0,1-.14.36c-.12.29-.25.57-.39.85-.26.56-.54,1.12-.84,1.66l-.35.59c-.24.37-.05,0,.07,0l.6-.17h0l.6.16h0l.43.43.1.23a1.19,1.19,0,0,0-2.3.63,1.26,1.26,0,0,0,2.14.52,6,6,0,0,0,.93-1.41,15.51,15.51,0,0,0,1.54-3.4,39.81,39.81,0,0,0,.62-5.67,13.29,13.29,0,0,1,1.48-4.44c.69-1.37-1.37-2.57-2.06-1.2Z"/><path class="cls-1" d="M481.82,100.43c-1,4.27-2.28,8.62-2.43,13-.05,1.53,2.33,1.53,2.38,0a37.87,37.87,0,0,1,1-6.26c.44-2,.94-4.08,1.4-6.13.34-1.49-2-2.13-2.3-.63Z"/><path class="cls-1" d="M500.4,104.54l-1.62,23.31c-.1,1.52,2.28,1.52,2.39,0l1.61-23.31c.11-1.53-2.28-1.52-2.38,0Z"/><path class="cls-1" d="M502.74,104.23c-3.52-11.06-9.06-21.5-11.73-32.83-.35-1.49-2.65-.86-2.3.64,2.67,11.32,8.21,21.76,11.73,32.82.46,1.46,2.76.83,2.3-.63Z"/><path class="cls-1" d="M545.27,47.53c0,11,1.28,22,1.16,33a1.19,1.19,0,0,0,2.38,0c.12-11-1.14-22-1.16-33a1.19,1.19,0,0,0-2.38,0Z"/><path class="cls-1" d="M533.07,105.45A80.17,80.17,0,0,1,530.62,126a93.3,93.3,0,0,1-5.47,14.36c-3.47,7.63-6.77,15.35-9.82,23.16q-2.24,5.74-4.27,11.56c-1.31,3.74-2.31,7.64-3.92,11.26-3.13,7.1-8.3,13.34-10.47,20.85a1.19,1.19,0,0,0,2.29.64c2-6.77,6.5-12.49,9.54-18.78a91.16,91.16,0,0,0,3.94-10.69q2-5.8,4.16-11.53c3-8,6.39-15.92,9.91-23.74a116.51,116.51,0,0,0,6-14.93,81.62,81.62,0,0,0,3-22.74,1.19,1.19,0,0,0-2.38,0Z"/><path class="cls-1" d="M519.11,215a499.32,499.32,0,0,0,21.14-46.46c3.2-8,6.29-16,9.35-24q2.22-5.81,4.42-11.61l2.23-5.83a35,35,0,0,0,1.67-4.73c1.5-6.71-.17-13.67.9-20.41.24-1.5-2.06-2.14-2.3-.63-.95,6,.07,12.16-.55,18.2-.35,3.39-1.85,6.49-3.05,9.64q-2.2,5.77-4.4,11.56c-6,15.82-12.13,31.63-19,47.12-3.88,8.77-8,17.43-12.48,25.91-.71,1.36,1.34,2.56,2.06,1.2Z"/><path class="cls-1" d="M541.54,219.52a449,449,0,0,0,20.33-44c6.25-15.24,12-30.68,17.16-46.34a60.53,60.53,0,0,0,2.83-13.25c.45-4.73.48-9.48.76-14.21.08-1.53-2.3-1.53-2.39,0-.48,8.31-.25,16.72-2.82,24.74-2.33,7.27-4.84,14.48-7.46,21.65-5.8,15.9-12.11,31.63-19.1,47-3.54,7.84-7.27,15.6-11.37,23.16-.73,1.35,1.33,2.55,2.06,1.2Z"/><path class="cls-1" d="M562.12,228c11.14-25.62,22.77-51,33.52-76.8q4.59-11,8.93-22.06c.56-1.43-1.74-2-2.29-.64-10.11,25.83-21.41,51.15-32.63,76.5q-4.83,10.89-9.58,21.79c-.61,1.4,1.44,2.61,2,1.21Z"/><path class="cls-1" d="M584.24,232.5c11.78-27.32,23.59-54.7,32.45-83.14a343.24,343.24,0,0,0,10.5-42.67c2.45-13.91,4.22-28.14,9.46-41.36,1.42-3.58,3.4-6.9,4.86-10.46,1.6-3.9,1-7.53.26-11.55a21.94,21.94,0,0,1,.92-11.41c1.3-3.81,3.23-7.37,4.9-11,.63-1.38-1.42-2.59-2.06-1.2-2.83,6.2-6.58,12.49-6.59,19.52,0,3.46,1.27,6.77,1.31,10.22,0,3.72-2.1,6.87-3.65,10.1-6.12,12.8-8.39,26.92-10.72,40.79a360.86,360.86,0,0,1-9.72,42.58c-4.21,14.28-9.24,28.31-14.67,42.17-6.09,15.56-12.7,30.9-19.31,46.24-.6,1.39,1.45,2.6,2.06,1.2Z"/><path class="cls-1" d="M408.81,152.67a511.56,511.56,0,0,0,53,18.92c18.06,5.44,36.33,10.17,54.62,14.79q28.5,7.2,57,14.33c18.9,4.75,37.77,10,56.94,13.54s38.64,4.07,58.12,4.61l7.34.22c1.54.06,1.54-2.32,0-2.38-19.43-.67-39-.59-58.23-3.61s-37.87-8.22-56.63-12.93l-56.8-14.28c-18.21-4.58-36.42-9.19-54.45-14.43a546.45,546.45,0,0,1-52.95-18q-3.37-1.36-6.74-2.8c-1.39-.59-2.61,1.46-1.2,2.06Z"/><path class="cls-1" d="M421.17,140.91l-4.79-2.77-.92,2.18L502,158.26l86.53,17.93c16,3.32,31.93,6.75,48,9.77,1.5.28,2.14-2,.63-2.29-14.4-2.72-28.73-5.78-43.08-8.76L551,166l-86.53-17.93-48.4-10a1.2,1.2,0,0,0-.91,2.18L420,143a1.19,1.19,0,0,0,1.2-2.05Z"/><path class="cls-1" d="M612.78,154.41a6.13,6.13,0,0,0,2.76,3.16,26.51,26.51,0,0,0,5.15,2.61,29.15,29.15,0,0,0,5,1.56,47.38,47.38,0,0,0,7,.44c12.93.6,25.84,1.83,38.65,3.71q10.9,1.61,21.7,3.81c1.49.3,2.13-2,.63-2.3q-18.15-3.71-36.58-5.71-9.24-1-18.54-1.58-4.64-.29-9.29-.46a18.55,18.55,0,0,1-5-.72,30.62,30.62,0,0,1-5.7-2.3c-1.11-.58-3.18-1.52-3.55-2.85a1.19,1.19,0,0,0-2.29.63Z"/><path class="cls-1" d="M651.35,232.62c4.19-17.27,8.73-34.46,13.44-51.59,4.82-17.53,9.82-35,14.87-52.46q4.11-14.26,8.27-28.51a1.19,1.19,0,0,0-2.3-.63q-7.44,25.6-14.8,51.23c-5,17.48-9.85,35-14.48,52.56q-3.78,14.35-7.3,28.76c-.36,1.49,1.94,2.13,2.3.64Z"/><path class="cls-1" d="M644.09,50.11c15.25,3.21,30.4,6.73,45.77,9.31,1.5.25,2.14-2,.63-2.29C675.12,54.54,660,51,644.73,47.81c-1.5-.31-2.14,2-.64,2.3Z"/><path class="cls-1" d="M543.94,39.86l1.38,8,2.29-.63q-4.18-22.93-7.12-46.08c-.19-1.5-2.57-1.52-2.38,0q3,23.46,7.21,46.71c.27,1.51,2.55.87,2.29-.63l-1.38-8c-.26-1.51-2.55-.87-2.29.63Z"/><path class="cls-1" d="M578.51,10.45a33.06,33.06,0,0,1,0,4.56l-.08,4.47-.16,9.43-.33,18.62a1.19,1.19,0,0,0,2.38,0l.33-18.62.16-9.18.08-4.47a36.78,36.78,0,0,0,0-4.81c-.17-1.51-2.56-1.52-2.38,0Z"/><path class="cls-1" d="M545.62,31,554,26.55c2.41-1.28,5.13-2.42,7.1-4.37,3.6-3.55,3.42-9,3-13.7C564,7,561.57,7,561.71,8.48c.36,4.22.76,9.46-2.84,12.49-1.93,1.62-4.45,2.65-6.66,3.82l-7.79,4.15c-1.35.72-.15,2.78,1.2,2.06Z"/><path class="cls-1" d="M150.73,282c6.82-11.76,13.89-23.39,20.88-35.06q13.66-22.81,27.31-45.64c2.79-4.67,5.58-9.33,8.31-14,4.94-8.49,10.26-16.75,15.42-25.1,5.65-9.14,11.31-18.35,16-28a64.58,64.58,0,0,0,4.5-11.44,42.85,42.85,0,0,0,1-6.39c.32-3.06.63-6.13.91-9.2.54-5.82.85-11.63,1.14-17.47,0-.57.07-1.13.13-1.69,0-.1.07-.59,0-.18l.06-.44c.06-.31.11-.62.17-.93.4-2,1-3.91,1.48-5.84q.66-2.45,1.33-4.87A1.19,1.19,0,0,0,247,75c-1.14,4.17-2.62,8.42-3.13,12.74-.46,3.91-.37,7.9-.66,11.83-.39,5.41-.91,10.82-1.48,16.23a40.46,40.46,0,0,1-1,6.3,46,46,0,0,1-1.77,5.23c-3.74,9.41-9.09,18.23-14.31,26.88-5.53,9.17-11.35,18.16-16.87,27.33-2.88,4.78-5.66,9.62-8.51,14.41q-13.19,22.14-26.47,44.23C165.21,253,157.53,265.71,150,278.53c-.45.75-.89,1.51-1.33,2.27a1.19,1.19,0,0,0,2.06,1.2Z"/><path class="cls-1" d="M147.22,254.7c1.59-3.5,3.56-6.83,5.49-10.15,2.77-4.76,5.62-9.47,8.48-14.17,6.09-10,12.29-20,17.94-30.34a78.18,78.18,0,0,0,5.74-12l-2.3-.63a1.84,1.84,0,0,0-.06.41,1.2,1.2,0,0,0,.59,1h0a1.21,1.21,0,0,0,1.45-.19c1.56-1.89-.55-4.78-2-6-2.06-1.66-4.74-2.7-7.11-3.85q-8.7-4.23-17.42-8.4c-1.79-.86-3.58-1.69-5.35-2.59-1.37-.69-2.57,1.37-1.2,2.06,8.76,4.42,17.72,8.45,26.51,12.82a10.85,10.85,0,0,1,4,2.73,3.3,3.3,0,0,1,.65,1.33c0,.16.11.57,0,.38.09.21-.6.76.2-.2l1.44-.19h0l.59,1c0,.28-.06.36,0,.22.46-1.47-1.81-2.07-2.3-.63a68.16,68.16,0,0,1-4.84,10.22c-2.58,4.79-5.33,9.49-8.11,14.17-6,10-12.16,19.94-18.07,30a131.06,131.06,0,0,0-6.39,11.69c-.63,1.39,1.42,2.6,2.06,1.2Z"/><path class="cls-1" d="M170.15,177.86c2.07-3.61,4.93-6.67,7.45-10a40.36,40.36,0,0,0,4.81-8.73c1.48-3.4,2.85-6.84,4.2-10.29a48.76,48.76,0,0,1,1.88-4.63c.53-1,1.28-1.91,1.85-2.92a36.3,36.3,0,0,0,3.13-9.59,75.43,75.43,0,0,0,1.44-11.1c.58-8.28.66-16.6.74-24.9a1.19,1.19,0,0,0-2.38,0c-.08,7.59-.17,15.19-.61,22.77a83.22,83.22,0,0,1-1.27,11.57,57.5,57.5,0,0,1-2.35,8.35,14.81,14.81,0,0,1-1.78,3.24,19.92,19.92,0,0,0-2,4.21c-1.25,3.24-2.52,6.48-3.85,9.68a50,50,0,0,1-5,10c-2.7,3.77-6,7.1-8.32,11.14a1.19,1.19,0,0,0,2.05,1.2Z"/><path class="cls-1" d="M115.7,193.52l17.11-31.36c1.34-2.46,2.78-4.89,3.89-7.46a22.94,22.94,0,0,0,1.78-7.7c.39-5.84.07-11.79-.11-17.63q-.3-10.2-1.06-20.38c-.12-1.52-2.5-1.53-2.39,0,.87,11.63,1.36,23.32,1.28,35a26,26,0,0,1-1,8.13,46.61,46.61,0,0,1-3.7,7.54l-8.31,15.24-9.51,17.43c-.73,1.34,1.32,2.54,2.06,1.2Z"/><path class="cls-1" d="M102,183.17a227.27,227.27,0,0,1,10.13-22c3.79-7.11,8.06-13.94,12.45-20.69l-1.34.55a157,157,0,0,0,23.41,8.12c4.5,1.1,9.12,1.5,13.65,2.44a1.21,1.21,0,0,0,1.16-.3,50.62,50.62,0,0,0,5.85-8.78c1.44-2.52,2.91-5,4.39-7.51a1.21,1.21,0,0,0-1-1.79c.55.07-.37-.16-.54-.22l-1.38-.52c-1.24-.48-2.47-1-3.69-1.53a25.47,25.47,0,0,1-3.52-1.82c-1.25-.81-2.41-1.72-3.73-2.41a15,15,0,0,0-4.87-1.65,32.37,32.37,0,0,0-5.21.06c-3.13,0-6.23-.51-9.35-.45a1.2,1.2,0,0,0,0,2.39c3.06-.06,6.12.47,9.19.44a27.22,27.22,0,0,1,5.49,0,14.12,14.12,0,0,1,4.71,2c1.14.7,2.17,1.55,3.34,2.21a39.62,39.62,0,0,0,3.72,1.78c1.79.77,3.87,1.94,5.84,2.17l-1-1.79q-2.15,3.61-4.25,7.27a48.74,48.74,0,0,1-5.62,8.53l1.16-.3c-4.52-.94-9.15-1.35-13.64-2.44a157.87,157.87,0,0,1-23.42-8.13,1.21,1.21,0,0,0-1.34.55c-4.47,6.85-8.8,13.79-12.64,21a240.65,240.65,0,0,0-10.19,22.21c-.58,1.42,1.73,2,2.3.64Z"/><path class="cls-1" d="M91.36,180.5a178.25,178.25,0,0,0,5.56-18.65,73.8,73.8,0,0,1,2.57-8.09c1.14-2.9,2.58-5.66,3.62-8.6,2.23-6.3,3.54-12.87,5-19.36a106,106,0,0,1,6.12-19c2.27-5.17,5-11,9.3-14.8,1.15-1-.54-2.69-1.69-1.68-3.76,3.32-6.29,8.14-8.43,12.59a98.89,98.89,0,0,0-6.83,19c-1.63,6.55-2.84,13.19-4.83,19.64-1.83,5.89-4.79,11.29-6.5,17.23-2,7-3.56,14.19-6.23,21-.55,1.43,1.75,2,2.3.64Z"/><path class="cls-1" d="M687.93,100.06l15.22-38.58c.56-1.43-1.74-2-2.3-.64L685.63,99.43c-.56,1.42,1.74,2,2.3.63Z"/><path class="cls-1" d="M661.8,86.69a160.5,160.5,0,0,0,11.81-30.61,1.19,1.19,0,0,0-2.29-.63,158.57,158.57,0,0,1-11.57,30c-.7,1.36,1.36,2.57,2,1.2Z"/><path class="cls-1" d="M384.44,202.78c15.16,5.12,30.3,10.26,45.48,15.31S460.1,228,475.27,232.7s30.51,9.21,45.89,13.38,30.7,7.94,46.19,11.29,31.36,6.3,47.18,8.64c2,.29,4,.58,5.93.85,1.5.21,2.14-2.09.63-2.3-15.85-2.2-31.62-5-47.28-8.24s-30.95-6.95-46.27-11-30.71-8.51-45.95-13.16-30.3-9.51-45.37-14.49-30.34-10.15-45.49-15.27l-5.65-1.91c-1.46-.49-2.08,1.8-.64,2.29Z"/><path class="cls-1" d="M380.67,223.16c14.42,5.5,28.9,10.87,43.49,15.88,15.27,5.25,30.69,10.18,46.36,14.09,3.54.88,7.1,1.71,10.67,2.46a107.49,107.49,0,0,1,11.88,2.85c8.69,2.86,16.69,7.41,24.63,11.87,8.15,4.57,16.21,9.3,24.32,13.95,7.71,4.41,15.58,8.55,23,13.43,12.46,8.19,23.71,18.06,36.53,25.73q2.76,1.65,5.58,3.2c1.35.74,2.55-1.32,1.2-2.06a180.7,180.7,0,0,1-20-12.89c-5.78-4.24-11.4-8.67-17.27-12.78-7.15-5-14.67-9.26-22.25-13.53-8-4.54-16-9.22-24-13.8s-15.95-9.28-24.41-12.89a73.28,73.28,0,0,0-12.75-4.22c-3.58-.79-7.18-1.43-10.75-2.25-15.59-3.58-30.91-8.34-46.07-13.42-14.95-5-29.76-10.44-44.5-16l-5-1.89c-1.43-.54-2.05,1.76-.63,2.3Z"/><path class="cls-1" d="M333.08,239.16c7,3.06,14.26,5.43,21.42,8,9.52,3.39,19.06,6.72,28.6,10.06,3.26,1.14,6.52,2.27,9.77,3.44,1.45.53,2.07-1.77.64-2.29-7.08-2.56-14.2-5-21.3-7.48-9.5-3.33-19-6.66-28.44-10.12-3.12-1.14-6.73-2.43-9.49-3.65-1.39-.61-2.6,1.44-1.2,2.06Z"/><path class="cls-1" d="M425.16,293.56c9.29,4.3,18.85,8.05,28.28,12,12.13,5.13,24,10.74,35.94,16.35a274.25,274.25,0,0,1,30.14,16c1.3.83,2.49-1.23,1.2-2.05a251.42,251.42,0,0,0-26.55-14.34q-12.5-6-25.05-11.8c-9.65-4.49-19.59-8.41-29.39-12.55-4.47-1.89-9-3.71-13.37-5.74-1.38-.65-2.59,1.41-1.2,2.05Z"/><path class="cls-1" d="M314.89,272.56q25.62,12.79,51.64,24.74c14.06,6.43,28.17,12.75,42.15,19.37q16.15,7.66,32.14,15.67c1.37.68,2.58-1.37,1.21-2.06q-25.63-12.78-51.65-24.73c-14.06-6.43-28.17-12.75-42.14-19.37q-16.17-7.67-32.15-15.67c-1.37-.68-2.57,1.37-1.2,2.05Z"/><path class="cls-1" d="M353.67,337l4.35-8.31q5.88-11.22,11.81-22.41,8.71-16.49,17.53-32.91,10.56-19.67,21.25-39.28,11.49-21,23.19-42l3-5.28a1.19,1.19,0,0,0-2.06-1.2q-11.77,21-23.3,42.08-10.87,19.88-21.59,39.83-9.1,16.93-18.12,33.93-6.33,12-12.62,23.92c-1.78,3.4-3.8,6.78-5.38,10.29,0,.05-.05.09-.07.14-.71,1.36,1.35,2.56,2.05,1.2Z"/><path class="cls-1" d="M411.44,175.87Q405.08,191,398,205.77c-.66,1.38,1.39,2.59,2.05,1.21q7.2-15.07,13.68-30.47c.59-1.41-1.71-2-2.3-.64Z"/><path class="cls-1" d="M390.56,355.93q8.51-14.42,16.85-28.94,11.1-19.22,22.08-38.5,11.89-20.88,23.67-41.83,10.62-18.9,21.06-37.9c5-9.19,10-18.38,14.8-27.72l1.17-2.33c.68-1.37-1.37-2.58-2.06-1.2-4.36,8.77-9.06,17.38-13.75,26q-10.11,18.57-20.49,37-11.72,20.91-23.58,41.74-11.18,19.65-22.46,39.23Q399,336.75,390.13,352l-1.63,2.77a1.19,1.19,0,0,0,2.06,1.2Z"/><path class="cls-1" d="M453.73,343.06c3-6.28,6.33-12.4,9.58-18.54q7.9-14.94,15.89-29.83,8.87-16.62,17.64-33.29c5-9.58,10-19.19,14.78-28.91,1.68-3.44,3.35-6.89,4.89-10.39a44.26,44.26,0,0,0,2.55-6.52,10.89,10.89,0,0,0,.21-1.14c.2-1.51-2.18-1.5-2.38,0,.07-.5,0,0,0,.11s-.09.34-.13.51c-.12.41-.25.81-.39,1.21-.36,1-.87,2.28-1.21,3.07-1.38,3.25-2.89,6.44-4.43,9.61-4.55,9.4-9.35,18.67-14.18,27.93q-8.62,16.51-17.42,32.95-8.13,15.26-16.26,30.5c-3.54,6.67-7.14,13.33-10.48,20.11l-.69,1.42c-.65,1.38,1.4,2.59,2.06,1.2Z"/><path class="cls-1" d="M488.38,276.54q16.13,8.65,32.14,17.5,16.34,9,32.71,17.94,12.93,7,25.91,14c1.35.73,2.56-1.33,1.21-2.05q-20.82-11.14-41.53-22.5c-10-5.51-20.05-11.06-30.09-16.55q-9.56-5.22-19.15-10.37c-1.35-.72-2.55,1.33-1.2,2.06Z"/><path class="cls-1" d="M535.91,333.85c5.43-9.76,10.73-19.58,16-29.43,6.94-12.95,13.84-25.94,20.28-39.15a116.23,116.23,0,0,0,6.22-14c.49-1.46-1.81-2.08-2.29-.63a100.5,100.5,0,0,1-5.18,11.8c-3,6.11-6,12.16-9.15,18.18-6.72,13-13.63,25.87-20.61,38.71q-3.64,6.69-7.32,13.34c-.75,1.34,1.31,2.55,2,1.21Z"/><path class="cls-1" d="M210.79,304.14v-.52a1.19,1.19,0,0,0-2.38,0v.52a1.19,1.19,0,0,0,2.38,0v-.52a1.19,1.19,0,0,0-2.38,0v.52a1.19,1.19,0,0,0,2.38,0Z"/><path class="cls-1" d="M33.6,180.23a96.12,96.12,0,0,0,7.79-25.32,94.92,94.92,0,0,0,1.21-13c.11-4.63-.29-9.23-.48-13.85a73.58,73.58,0,0,1,1.12-16.23c.28-1.49-2-2.14-2.29-.63a75.87,75.87,0,0,0-1.28,13.94c0,4.53.52,9,.57,13.57a93.46,93.46,0,0,1-3.43,26.09A94.3,94.3,0,0,1,31.54,179c-.64,1.38,1.42,2.59,2.06,1.2Z"/><path class="cls-1" d="M122.54,219.81q34.54,20,70.36,37.71,35.34,17.48,71.7,32.79,20.67,8.76,41.6,16.94c1.43.56,2-1.75.63-2.3-24.69-9.67-49.17-19.89-73.33-30.84Q197.7,257.9,162.93,239.5q-19.8-10.5-39.19-21.74a1.19,1.19,0,0,0-1.2,2.05Z"/><path class="cls-1" d="M315.16,312.71l.75.75a.91.91,0,0,0,.38.24,1,1,0,0,0,.46.11.9.9,0,0,0,.46-.11.88.88,0,0,0,.39-.24l.18-.24a1.17,1.17,0,0,0,.16-.6l0-.32a1.33,1.33,0,0,0-.3-.53l-.75-.74a1.27,1.27,0,0,0-.84-.35.89.89,0,0,0-.46.1.9.9,0,0,0-.39.25l-.18.24a1.12,1.12,0,0,0-.16.6l0,.32a1.29,1.29,0,0,0,.3.52Z"/><path class="cls-1" d="M15.59,168.53a87.46,87.46,0,0,1,2.13-18.73c.27-1.18.9-2.61.65-3.83a1.69,1.69,0,0,0-2.15-1.37c-2,.78-.4,4.12,1.38,2.53,1.14-1-.55-2.71-1.69-1.69l-.09.09.84-.35h-.08l1,.59c-1,0-1.55.34-1.61,1-.06.21-.11.43-.17.64L15.47,149c-.19.86-.38,1.72-.55,2.59q-.54,2.76-.91,5.54a91.4,91.4,0,0,0-.8,11.45,1.19,1.19,0,0,0,2.38,0Z"/><path class="cls-1" d="M15.2,155.34a62.56,62.56,0,0,1,9.08.22c5,.34,10,.88,15,1.52A250.57,250.57,0,0,1,76,164.32a97.49,97.49,0,0,1,17.76,6.62c1.36.7,2.57-1.36,1.2-2.05-10.69-5.45-22.7-8.36-34.39-10.71a290.75,290.75,0,0,0-34.5-4.87A70.72,70.72,0,0,0,15.2,153c-1.52.11-1.53,2.49,0,2.38Z"/><path class="cls-1" d="M88.22,91.31c2.12-.41,4.23.66,6.19,1.34a10.17,10.17,0,0,0,6.37.48c4.64-1.42,6.94-5.93,8.77-10,.62-1.38-1.43-2.6-2.06-1.2-1.62,3.65-3.77,8.53-8.27,9.17-2,.28-3.89-.59-5.69-1.25A11.12,11.12,0,0,0,87.59,89c-1.51.29-.87,2.59.63,2.3Z"/><path class="cls-1" d="M88.09,72l7.75-23.22,2-5.87a42.42,42.42,0,0,1,1.87-5.32c1.49-3,5-3.61,7.94-4.13,1.5-.27.86-2.56-.64-2.3-3.09.55-6.5,1.31-8.53,3.93a16.07,16.07,0,0,0-2.15,4.84l-2.11,6.34L85.8,71.32c-.49,1.46,1.81,2.08,2.29.63Z"/><path class="cls-1" d="M76.62,155.55c.28-1.87-1.83-2.31-3.21-2.75-2.57-.81-4.94-2.51-7.28-3.82l.55,1.35a33.93,33.93,0,0,1,3.3-6.77,25.5,25.5,0,0,1,2.19-3c1-1.2,2.14-1.08,3.56-.66a52,52,0,0,0,16,2.27,1.19,1.19,0,0,0,0-2.38,45.83,45.83,0,0,1-9.64-.74,44.7,44.7,0,0,1-4.4-1.06,11.37,11.37,0,0,0-4.07-.79c-2.6.21-4.13,2.85-5.42,4.83a36.69,36.69,0,0,0-3.78,7.7,1.22,1.22,0,0,0,.55,1.35c2.07,1.15,4.11,2.45,6.24,3.47a12.05,12.05,0,0,0,1.74.63c.35.11.72.21,1.06.35a2.5,2.5,0,0,1,.38.15c.38.27.37,0,0-.72-.23,1.5,2.06,2.14,2.3.63Z"/></g><g id="Parques"><path class="cls-2" d="M70.45,200.84l8.25.08a49.16,49.16,0,0,1,24.87,5.46l17,8.81-6.41,12.6,15.29,9.5-11.77,24.17,3.3,3.3-5.37,19.42,6.4,3.93-4.54,9.29L51,267.86Z"/><polygon class="cls-2" points="92.66 303.48 99.47 292.12 118.89 301.62 112.49 313.6 92.66 303.48"/><path class="cls-2" d="M429.75,314s8.81-14,9.36-14.18,17.08,8,17.08,8l-7.58,14.6Z"/><path class="cls-2" d="M337,236.6l8.88-15.9,11.88,5.68s-6.61,14.77-6.82,15.29S337,236.6,337,236.6Z"/><polygon class="cls-2" points="144.35 143.41 144.35 160.42 161.49 164.41 169.62 149.19 159.77 144.17 144.35 143.41"/><path class="cls-2" d="M623.85,39s5.23,9.43,5.92,14.25l9-3.17,3.65,3.65L644,50.87l-6-7.51-5.37.07s-1.86-3.3-3.78-4.4-3.65-1.86-3.65-1.86Z"/><polygon class="cls-2" points="566.77 361.92 576.79 345.19 585.57 350.87 576.17 366.26 566.77 361.92"/></g><g id="Avenidas"><path class="cls-3" d="M610.87,71.43c-13.41-4.32-26.49-10-40.4-12.55-13.63-2.52-27.54-.14-40.3,5C516.85,69.21,504.85,77.18,493,85.17c-6.12,4.13-12.23,8.3-18.5,12.21A177.85,177.85,0,0,1,456.17,107c-6.31,3-12.6,6.11-18,10.62-5.88,4.94-10.3,11.68-14.17,18.24-4.16,7.05-7.93,14.34-12,21.47q-6.3,11.13-12.52,22.32-21.37,38.45-41.65,77.49c-11.79,22.67-23.33,45.47-34.93,68.23l-4.3,8.43c-1.1,2.14,2.14,4,3.23,1.89,11.47-22.43,22.82-44.92,34.38-67.3q19.39-37.53,39.71-74.56c8.08-14.69,16.5-29.19,24.52-43.92,3.77-6.91,7.43-13.92,12-20.33a51.78,51.78,0,0,1,7.32-8.46,48.53,48.53,0,0,1,8.17-5.76c6.11-3.54,12.66-6.22,18.95-9.39a178.41,178.41,0,0,0,18.16-11c11.81-7.83,23.33-16.2,35.91-22.78,12.22-6.4,25.88-11,39.83-10.66,6.68.17,13.29,1.82,19.67,3.67,6.86,2,13.59,4.4,20.32,6.77,3,1.06,6,2.1,9,3.07,2.3.74,3.29-2.88,1-3.61Z"/><path class="cls-3" d="M562.87,61.63c12.07-.77,23.94-4.55,34.89-9.55a102,102,0,0,0,15.73-8.83c5.34-3.7,10.12-8.16,15-12.48,6.38-5.68,12.69-11.45,19-17.17,1.8-1.61-.86-4.26-2.65-2.65-5.52,5-11,10-16.55,14.94-4.87,4.37-9.66,9-14.94,12.87a105.2,105.2,0,0,1-31.92,15.52,82.25,82.25,0,0,1-18.56,3.6c-2.4.16-2.42,3.91,0,3.75Z"/><path class="cls-3" d="M438.42,121c3.09-22.9,2.86-46.09,5.84-69,1-7.83,2.37-15.6,4-23.32.5-2.35-3.12-3.36-3.62-1a321.94,321.94,0,0,0-5.73,39.44c-.94,11.18-1.37,22.4-2.18,33.59-.47,6.45-1.06,12.9-1.93,19.31a1.93,1.93,0,0,0,1.31,2.3,1.89,1.89,0,0,0,2.31-1.31Z"/><path class="cls-3" d="M431.79,27.43c17.44,3.17,34.87,6.74,52.48,8.89a88.77,88.77,0,0,0,9.37.78c2.41,0,2.41-3.71,0-3.75A139.27,139.27,0,0,1,475,31.26c-8.87-1.38-17.7-3-26.53-4.58l-15.66-2.86c-2.36-.43-3.37,3.18-1,3.61Z"/><path class="cls-3" d="M436.61,118.67c-21,.93-41.74-4.09-61.83-9.8-21.09-6-42-13-63.61-16.84a166.3,166.3,0,0,0-32.64-2.82,130.3,130.3,0,0,0-33,5.27c-20.73,5.9-40.46,14.82-61.74,18.81-17.44,3.27-35,6.15-52.47,9l-9.35,1.51c-2.37.38-1.36,4,1,3.61,19.32-3.08,38.64-6.26,57.89-9.77a212.91,212.91,0,0,0,24.91-6c10.88-3.39,21.53-7.48,32.37-11s21.67-6.39,32.92-7.32a144.49,144.49,0,0,1,32.59,1.25c21.77,3.15,42.77,9.92,63.82,16.07,20.11,5.87,40.72,11.48,61.8,11.86,2.46,0,4.91,0,7.37-.1s2.42-3.86,0-3.75Z"/><path class="cls-3" d="M107.85,128.5Q119,91.56,129.33,54.33q2.32-8.47,4.6-16.94c.63-2.33-3-3.33-3.62-1q-9.11,33.93-19,67.63-3.47,11.76-7,23.49c-.7,2.31,2.91,3.3,3.61,1Z"/><path class="cls-3" d="M268.51,89.07c.21-7.4-1.12-14.77-.92-22.17.11-4.15,1.11-8.18,2-12.23q1.41-6.84,3-13.67,1.71-7.45,3.59-14.88c.59-2.34-3-3.34-3.62-1q-3.42,13.48-6.26,27.12a95.6,95.6,0,0,0-2.3,12.85,85.93,85.93,0,0,0,.26,11.68c.28,4.09.7,8.19.58,12.29-.07,2.42,3.68,2.41,3.75,0Z"/><path class="cls-3" d="M457.13,369.1q-49-23.61-98.08-47-49.62-23.59-99.33-47Q210.4,252,161,229c-7.37-3.43-14.73-6.81-21.8-10.85-6.33-3.62-12.48-7.56-18.76-11.29C108.52,199.76,96,193.88,82,192.72c-12.37-1-24.58,2.06-36.42,5.31-12.52,3.44-24.83,7.54-37.22,11.4-2.34.74-4.69,1.46-7,2.14s-1.33,4.29,1,3.62c11.46-3.33,22.76-7.22,34.2-10.64s23.56-7.25,35.65-8.15c14.11-1.05,27.44,3.21,39.71,9.87,12.93,7,24.94,15.55,38.3,21.78q48.69,22.71,97.33,45.51,49.32,23.18,98.55,46.56,48.68,23.11,97.25,46.47l11.93,5.74c2.17,1.05,4.07-2.19,1.89-3.23Z"/><path class="cls-3" d="M64.07,209c.7-2.34,1.17-4.75,1.9-7.08a18.33,18.33,0,0,1,1.28-3.3,5.53,5.53,0,0,1,.67-1c.27-.29.06-.08.27-.23-.13.09-.42.11-.13.08,2.36-.24,4.73-.75,7.08-1.1a21.18,21.18,0,0,0,8-2.58c4.95-3,7.63-8.21,9.66-13.42A204,204,0,0,0,99.91,157c2.45-9.54,4.74-19.13,7.94-28.46.79-2.28-2.83-3.27-3.61-1C98.65,143.77,95.87,160.85,90,177c-1.76,4.9-3.92,10.41-8.54,13.3-4.4,2.77-9.67,2.19-14.52,3.47-2.44.64-3.58,3.95-4.3,6-.91,2.66-1.43,5.42-2.23,8.1-.69,2.32,2.93,3.31,3.62,1Z"/><path class="cls-3" d="M177.71,135.35c31.36,1.71,62.74,3.11,94.11,4.75,7.95.42,16,.61,23.86,1.59A71.58,71.58,0,0,1,319,149c7.12,3.56,13.93,7.72,20.9,11.55q10.86,6,21.95,11.47c29.76,14.79,60.6,27.28,91.69,38.95,30.61,11.5,61.31,23.21,92.9,31.73,13.56,3.66,27.18,7.23,41,9.83,16.61,3.13,33.35,5.56,50.14,7.5q6.38.74,12.76,1.39c2.4.25,2.39-3.5,0-3.75-17.12-1.76-34.2-3.93-51.17-6.83-7.7-1.31-15.45-2.63-23.06-4.43-6.17-1.47-12.3-3.12-18.45-4.67-31.77-8-62.44-19.32-93.13-30.67-31.41-11.62-62.62-23.89-92.82-38.41-14.77-7.1-29.08-15-43.39-22.94-6.7-3.75-13.61-7.29-21-9.46-7.89-2.31-16.15-2.82-24.31-3.26-31.38-1.72-62.77-3.12-94.15-4.76l-11.11-.59c-2.42-.13-2.41,3.62,0,3.75Z"/><path class="cls-3" d="M181.68,136.1c-.7,2.54-1.2,5.14-1.94,7.67a22.45,22.45,0,0,1-3.22,6.64c-1.38,2-1.88,4.4-2.62,6.68-.86,2.65-2.8,4.5-4.45,6.69-3.88,5.17-7.17,10.78-10.58,16.27l-10.78,17.34c-3.8,6.11-7.58,12.22-10.2,18.94a1.9,1.9,0,0,0,1.31,2.31,1.92,1.92,0,0,0,2.31-1.31c2.28-5.88,5.61-11.28,8.93-16.62q5.43-8.75,10.88-17.49c3.43-5.52,6.73-11.17,10.55-16.43,1.68-2.33,3.93-4.39,5-7.07.87-2.09,1.16-4.45,2.23-6.45.71-1.34,1.69-2.51,2.38-3.86a25.72,25.72,0,0,0,1.53-3.68c.93-2.82,1.44-5.77,2.24-8.63a1.88,1.88,0,0,0-3.62-1Z"/></g><g id="Gastronomía"><rect class="cls-4" x="458.31" y="143.77" width="38.26" height="15.74" rx="7.87"/><circle id="Elipse_37" data-name="Elipse 37" class="cls-5" cx="466.18" cy="151.64" r="7.87"/><circle id="Elipse_37-2" data-name="Elipse 37" class="cls-6" cx="466.18" cy="151.64" r="3.46"/><text class="cls-7" transform="translate(478.12 150.58)">1688<tspan class="cls-8"><tspan x="0" y="4.35">R</tspan><tspan class="cls-9" x="2.03" y="4.35">es</tspan><tspan class="cls-10" x="5.29" y="4.35">t</tspan><tspan class="cls-11" x="6.41" y="4.35">o</tspan></tspan></text><rect class="cls-12" x="403.74" y="212.83" width="49.96" height="15.74" rx="7.87"/><circle id="Elipse_37-3" data-name="Elipse 37" class="cls-5" cx="411.61" cy="220.7" r="7.87"/><circle id="Elipse_37-4" data-name="Elipse 37" class="cls-6" cx="411.61" cy="220.7" r="3.46"/><text class="cls-7" transform="translate(423.55 219.64)">Suc<tspan class="cls-13" x="5.52" y="0">r</tspan><tspan x="6.6" y="0">e B</tspan><tspan class="cls-14" x="11.12" y="0">r</tspan><tspan x="12.26" y="0">is</tspan><tspan class="cls-15" x="14.4" y="0">t</tspan><tspan class="cls-11" x="15.52" y="0">o</tspan><tspan class="cls-16"><tspan x="0" y="4.35">Bar</tspan></tspan></text><rect class="cls-17" x="412.59" y="160.25" width="57.05" height="15.74" rx="7.87"/><circle id="Elipse_37-5" data-name="Elipse 37" class="cls-5" cx="420.46" cy="168.12" r="7.87"/><circle id="Elipse_37-6" data-name="Elipse 37" class="cls-6" cx="420.46" cy="168.12" r="3.46"/><text class="cls-18" transform="translate(432.4 167.05)">Ha<tspan class="cls-19" x="4.26" y="0">r</tspan><tspan x="5.34" y="0">d </tspan><tspan class="cls-14" x="8.1" y="0">R</tspan><tspan x="10.13" y="0">ock </tspan><tspan class="cls-20" x="16.18" y="0">C</tspan><tspan x="18.33" y="0">a</tspan><tspan class="cls-21" x="20.11" y="0">f</tspan><tspan class="cls-9" x="21.03" y="0">e</tspan><tspan class="cls-22"><tspan x="0" y="4.35">Bar</tspan></tspan></text><rect class="cls-23" x="401.85" y="128.29" width="63.64" height="15.74" rx="7.87"/><circle id="Elipse_37-7" data-name="Elipse 37" class="cls-5" cx="409.73" cy="136.16" r="7.87"/><circle id="Elipse_37-8" data-name="Elipse 37" class="cls-6" cx="409.73" cy="136.16" r="3.46"/><text class="cls-7" transform="translate(421.67 135.1)">La<tspan class="cls-24" x="3.51" y="0"> </tspan><tspan class="cls-25" x="4" y="0">V</tspan><tspan x="6.02" y="0">ida</tspan><tspan class="cls-24" x="10.65" y="0"> </tspan><tspan class="cls-26" x="11.14" y="0">V</tspan><tspan x="13.09" y="0">e</tspan><tspan class="cls-19" x="14.95" y="0">r</tspan><tspan class="cls-11" x="16.03" y="0">de</tspan><tspan class="cls-27"><tspan x="0" y="4.35">C</tspan><tspan class="cls-9" x="2.14" y="4.35">omida</tspan><tspan class="cls-24" x="12.08" y="4.35"> </tspan><tspan class="cls-26" x="12.57" y="4.35">V</tspan><tspan class="cls-9" x="14.52" y="4.35">ege</tspan><tspan class="cls-15" x="20.33" y="4.35">t</tspan><tspan class="cls-9" x="21.44" y="4.35">e</tspan><tspan class="cls-14" x="23.3" y="4.35">r</tspan><tspan class="cls-11" x="24.44" y="4.35">iana</tspan></tspan></text><rect class="cls-28" x="340.44" y="160.56" width="67.03" height="15.74" rx="7.87"/><circle id="Elipse_37-9" data-name="Elipse 37" class="cls-5" cx="348.31" cy="168.43" r="7.87"/><circle id="Elipse_37-10" data-name="Elipse 37" class="cls-6" cx="348.31" cy="168.43" r="3.46"/><text class="cls-29" transform="translate(360.25 167.37)">M<tspan class="cls-9" x="3.15" y="0">edialunas </tspan><tspan class="cls-20" x="18.35" y="0">C</tspan><tspan class="cls-11" x="20.5" y="0">ale</tspan><tspan class="cls-30" x="24.87" y="0">n</tspan><tspan class="cls-9" x="26.94" y="0">titas</tspan><tspan class="cls-31"><tspan x="0" y="4.35">P</tspan><tspan class="cls-11" x="1.88" y="4.35">as</tspan><tspan class="cls-15" x="5.06" y="4.35">t</tspan><tspan class="cls-9" x="6.18" y="4.35">ele</tspan><tspan class="cls-14" x="10.63" y="4.35">r</tspan><tspan class="cls-11" x="11.77" y="4.35">ía</tspan></tspan></text><rect class="cls-32" x="296.26" y="200.95" width="49.43" height="15.74" rx="7.87"/><circle id="Elipse_37-11" data-name="Elipse 37" class="cls-5" cx="304.14" cy="208.83" r="7.87"/><circle id="Elipse_37-12" data-name="Elipse 37" class="cls-6" cx="304.14" cy="208.83" r="3.46"/><text class="cls-33" transform="translate(316.08 207.76)">P<tspan class="cls-11" x="1.92" y="0">i</tspan><tspan class="cls-34" x="2.65" y="0">r</tspan><tspan class="cls-11" x="3.75" y="0">a Sushi</tspan><tspan class="cls-8"><tspan x="0" y="4.35">R</tspan><tspan class="cls-9" x="2.03" y="4.35">estau</tspan><tspan class="cls-34" x="10.27" y="4.35">r</tspan><tspan class="cls-11" x="11.38" y="4.35">a</tspan><tspan class="cls-35" x="13.15" y="4.35">n</tspan><tspan class="cls-15" x="15.21" y="4.35">t</tspan><tspan class="cls-9" x="16.33" y="4.35">e</tspan></tspan></text><rect class="cls-36" x="288.84" y="166.49" width="51.93" height="15.74" rx="7.87"/><circle id="Elipse_37-13" data-name="Elipse 37" class="cls-5" cx="296.71" cy="174.36" r="7.87"/><circle id="Elipse_37-14" data-name="Elipse 37" class="cls-6" cx="296.71" cy="174.36" r="3.46"/><text class="cls-37" transform="translate(308.54 173.35)">T<tspan class="cls-11" x="1.81" y="0">h</tspan><tspan class="cls-19" x="3.89" y="0">r</tspan><tspan class="cls-9" x="4.97" y="0">ee </tspan><tspan class="cls-38" x="9.32" y="0">L</tspan><tspan class="cls-9" x="10.99" y="0">ounge</tspan><tspan class="cls-39"><tspan x="0" y="4.35">and Bar</tspan></tspan></text><rect class="cls-40" x="280.6" y="133.1" width="51.93" height="15.74" rx="7.87"/><circle id="Elipse_37-15" data-name="Elipse 37" class="cls-5" cx="288.47" cy="140.97" r="7.87"/><circle id="Elipse_37-16" data-name="Elipse 37" class="cls-6" cx="288.47" cy="140.97" r="3.46"/><text class="cls-29" transform="translate(300.12 139.96)">M<tspan class="cls-11" x="3.15" y="0">a</tspan><tspan class="cls-41" x="4.93" y="0">r</tspan><tspan class="cls-42" x="6.16" y="0">y</tspan><tspan class="cls-43" x="8.01" y="0">’</tspan><tspan class="cls-9" x="8.33" y="0">s</tspan><tspan class="cls-27"><tspan x="0" y="4.35">C</tspan><tspan class="cls-9" x="2.14" y="4.35">o</tspan><tspan class="cls-21" x="4.2" y="4.35">ff</tspan><tspan class="cls-9" x="6.34" y="4.35">ee House</tspan></tspan></text><rect class="cls-44" x="334.64" y="114.87" width="51.93" height="15.74" rx="7.87"/><circle id="Elipse_37-17" data-name="Elipse 37" class="cls-5" cx="342.51" cy="122.75" r="7.87"/><circle id="Elipse_37-18" data-name="Elipse 37" class="cls-6" cx="342.51" cy="122.75" r="3.46"/><text class="cls-18" transform="translate(353.79 121.79)">El <tspan class="cls-20" x="3.2" y="0">C</tspan><tspan x="5.35" y="0">a</tspan><tspan class="cls-21" x="7.13" y="0">f</tspan><tspan class="cls-9" x="8.05" y="0">é de </tspan><tspan class="cls-45" x="15.16" y="0">A</tspan><tspan x="17.43" y="0">cá</tspan><tspan class="cls-46"><tspan x="0" y="4.35">C</tspan><tspan class="cls-11" x="2.16" y="4.35">a</tspan><tspan class="cls-21" x="3.93" y="4.35">f</tspan><tspan class="cls-9" x="4.85" y="4.35">e</tspan><tspan class="cls-10" x="6.71" y="4.35">t</tspan><tspan class="cls-9" x="7.82" y="4.35">e</tspan><tspan class="cls-47" x="9.68" y="4.35">r</tspan><tspan class="cls-9" x="10.82" y="4.35">ía</tspan></tspan></text><rect class="cls-48" x="368.39" y="176.75" width="101.46" height="15.74" rx="7.87"/><circle id="Elipse_37-19" data-name="Elipse 37" class="cls-5" cx="376.27" cy="184.62" r="7.87"/><circle id="Elipse_37-20" data-name="Elipse 37" class="cls-6" cx="376.27" cy="184.62" r="3.46"/><path class="cls-6" d="M390.1,182.09c0,1.11-.41,1.72-1.13,1.72s-1.06-.6-1.07-1.68.47-1.69,1.13-1.69S390.1,181.05,390.1,182.09Zm-1.76,0c0,.85.26,1.33.66,1.33s.66-.53.66-1.36-.2-1.33-.66-1.33S388.34,181.25,388.34,182.14Z"/><path class="cls-6" d="M391.16,180.91h0l-.56.3-.09-.33.71-.38h.38v3.25h-.43Z"/><path class="cls-6" d="M393.33,183.22a1.53,1.53,0,0,0,.78.22c.44,0,.7-.23.7-.57s-.18-.5-.63-.68-.89-.48-.89-.95a1,1,0,0,1,1.09-.92,1.46,1.46,0,0,1,.74.17l-.12.35a1.32,1.32,0,0,0-.64-.16c-.46,0-.63.28-.63.51s.2.47.67.65.86.5.86,1-.39,1-1.18,1a1.73,1.73,0,0,1-.86-.21Z"/><path class="cls-6" d="M396.3,183.75v-1.43l-1.06-1.94h.49l.48.93c.13.25.23.46.33.69h0c.1-.22.21-.44.34-.69l.49-.93h.49l-1.13,1.93v1.44Z"/><path class="cls-6" d="M397.92,183.75v-3.37h.48l1.08,1.7a10.38,10.38,0,0,1,.6,1.1h0c0-.46,0-.87,0-1.39v-1.41h.41v3.37H400L398.94,182a11.74,11.74,0,0,1-.63-1.13h0c0,.42,0,.83,0,1.39v1.44Z"/><path class="cls-6" d="M403.27,183.64a2.16,2.16,0,0,1-.89.16,1.58,1.58,0,0,1-1.67-1.71,1.68,1.68,0,0,1,1.76-1.77,1.79,1.79,0,0,1,.8.15l-.1.36a1.6,1.6,0,0,0-.68-.14,1.25,1.25,0,0,0-1.32,1.39,1.23,1.23,0,0,0,1.3,1.36,1.87,1.87,0,0,0,.71-.14Z"/><path class="cls-49" d="M390.2,188.63a3,3,0,0,1-.88.15,1.32,1.32,0,0,1-1.45-1.43,1.42,1.42,0,0,1,1.53-1.47,1.93,1.93,0,0,1,.71.13l-.09.3a1.58,1.58,0,0,0-.62-.12,1.06,1.06,0,0,0-1.14,1.14,1,1,0,0,0,1.09,1.15,1.24,1.24,0,0,0,.49-.08v-.85h-.58v-.29h.94Z"/><path class="cls-49" d="M390.4,188.53a.25.25,0,1,1,.5,0,.25.25,0,1,1-.5,0Z"/><path class="cls-49" d="M391.76,186a3.85,3.85,0,0,1,.67-.06,1.21,1.21,0,0,1,.78.21.61.61,0,0,1,.23.5.67.67,0,0,1-.48.62h0a.74.74,0,0,1,.59.71.77.77,0,0,1-.24.57,1.44,1.44,0,0,1-1,.27,3.54,3.54,0,0,1-.57,0Zm.36,1.16h.34c.38,0,.61-.2.61-.47s-.25-.47-.62-.47a1.73,1.73,0,0,0-.33,0Zm0,1.36a1.37,1.37,0,0,0,.31,0c.38,0,.73-.14.73-.55s-.33-.55-.73-.55h-.31Z"/><path class="cls-49" d="M393.63,188.53a.25.25,0,1,1,.5,0,.25.25,0,1,1-.5,0Z"/><path class="cls-49" d="M397.41,187.3a1.33,1.33,0,0,1-1.31,1.5,1.3,1.3,0,0,1-1.28-1.44,1.35,1.35,0,0,1,1.32-1.49A1.29,1.29,0,0,1,397.41,187.3Zm-2.2,0c0,.61.33,1.15.91,1.15s.91-.54.91-1.18-.3-1.15-.91-1.15S395.21,186.73,395.21,187.35Z"/><path class="cls-49" d="M398.12,185.87a4.34,4.34,0,0,1-.39,1l-.24,0a4.62,4.62,0,0,0,.25-1Z"/><path class="cls-49" d="M398.28,185.76h.37V187h0a.84.84,0,0,1,.27-.26.8.8,0,0,1,.38-.1c.27,0,.71.17.71.87v1.21h-.37v-1.17c0-.33-.12-.61-.47-.61a.54.54,0,0,0-.5.37.5.5,0,0,0,0,.18v1.23h-.37Z"/><path class="cls-49" d="M400.77,186.14a.22.22,0,0,1-.24.23.22.22,0,0,1-.22-.23.23.23,0,0,1,.23-.23A.22.22,0,0,1,400.77,186.14Zm-.41,2.61v-2h.37v2Z"/><path class="cls-49" d="M402.85,186.71c0,.15,0,.31,0,.56v1.19a1.18,1.18,0,0,1-.29.93,1.12,1.12,0,0,1-.74.24,1.29,1.29,0,0,1-.68-.17l.09-.28a1.22,1.22,0,0,0,.6.16c.38,0,.66-.2.66-.71v-.23h0a.73.73,0,0,1-.65.34.91.91,0,0,1-.87-1,1,1,0,0,1,.92-1.08.69.69,0,0,1,.64.35h0l0-.31Zm-.39.81a.44.44,0,0,0,0-.17.53.53,0,0,0-.52-.39c-.35,0-.6.3-.6.77s.2.73.6.73a.53.53,0,0,0,.51-.38.64.64,0,0,0,0-.2Z"/><path class="cls-49" d="M404.94,186.71c0,.15,0,.31,0,.56v1.19a1.22,1.22,0,0,1-.29.93,1.13,1.13,0,0,1-.75.24,1.28,1.28,0,0,1-.67-.17l.09-.28a1.19,1.19,0,0,0,.6.16c.38,0,.65-.2.65-.71v-.23h0a.74.74,0,0,1-.65.34.91.91,0,0,1-.87-1,1,1,0,0,1,.92-1.08.66.66,0,0,1,.63.35h0l0-.31Zm-.38.81a.44.44,0,0,0,0-.17A.53.53,0,0,0,404,187c-.35,0-.6.3-.6.77s.2.73.6.73a.54.54,0,0,0,.51-.38.64.64,0,0,0,0-.2Z"/><path class="cls-49" d="M405.67,186.14a.21.21,0,0,1-.23.23.23.23,0,0,1-.23-.23.23.23,0,0,1,.24-.23A.21.21,0,0,1,405.67,186.14Zm-.41,2.61v-2h.37v2Z"/><path class="cls-49" d="M406,187.26c0-.21,0-.38,0-.55h.32l0,.34h0a.77.77,0,0,1,.68-.38c.28,0,.72.17.72.86v1.22h-.37v-1.17c0-.33-.13-.61-.47-.61a.53.53,0,0,0-.5.38.48.48,0,0,0,0,.18v1.22H406Z"/><path class="cls-49" d="M408,188.37a1,1,0,0,0,.49.15c.27,0,.4-.14.4-.3s-.11-.28-.38-.38-.54-.33-.54-.58a.62.62,0,0,1,.7-.59,1.08,1.08,0,0,1,.5.12l-.09.27a.81.81,0,0,0-.42-.12.3.3,0,0,0-.34.28c0,.17.13.25.39.35s.54.31.54.61-.28.61-.77.61a1.09,1.09,0,0,1-.57-.14Z"/><path class="cls-49" d="M411.57,186.27a1.47,1.47,0,0,0-.28,0,1.11,1.11,0,0,0-1,1h0A.83.83,0,0,1,411,187a.81.81,0,0,1,.82.88.92.92,0,0,1-.91,1c-.58,0-1-.46-1-1.17a1.71,1.71,0,0,1,.47-1.23,1.42,1.42,0,0,1,.87-.41l.27,0Zm-.1,1.58a.56.56,0,0,0-.57-.62.62.62,0,0,0-.53.33.43.43,0,0,0,0,.17c0,.45.21.78.6.78S411.47,188.25,411.47,187.85Z"/><path class="cls-49" d="M413.48,186.27a1.42,1.42,0,0,0-.28,0,1.11,1.11,0,0,0-.95,1h0a.84.84,0,0,1,1.49.57.93.93,0,0,1-.91,1c-.59,0-1-.46-1-1.17a1.71,1.71,0,0,1,.46-1.23,1.45,1.45,0,0,1,.88-.41l.27,0Zm-.11,1.58a.55.55,0,0,0-.56-.62.61.61,0,0,0-.53.33.31.31,0,0,0,0,.17c0,.45.22.78.61.78S413.37,188.25,413.37,187.85Z"/><path class="cls-49" d="M413.78,188.06a.8.8,0,0,1,.55-.74h0a.68.68,0,0,1-.43-.61.77.77,0,0,1,.85-.73.7.7,0,0,1,.79.67.69.69,0,0,1-.45.64h0a.77.77,0,0,1,.55.71.84.84,0,0,1-.93.8C414.13,188.8,413.78,188.46,413.78,188.06Zm1.48,0c0-.33-.23-.49-.6-.6a.6.6,0,0,0-.5.57.51.51,0,0,0,.55.52A.5.5,0,0,0,415.26,188Zm-1-1.37c0,.27.21.42.52.51a.54.54,0,0,0,.42-.5.43.43,0,0,0-.46-.45A.44.44,0,0,0,414.24,186.67Z"/><path class="cls-49" d="M415.6,189.27a5.74,5.74,0,0,0,.25-1l.42,0a5.56,5.56,0,0,1-.4,1Z"/><path class="cls-49" d="M417.57,187.86l-.3.89h-.37l1-2.84h.44l1,2.84h-.39l-.3-.89Zm.93-.29-.28-.81c-.06-.19-.1-.36-.15-.52h0c-.05.17-.09.34-.15.51l-.28.82Z"/><path class="cls-49" d="M419.34,188.37a1,1,0,0,0,.49.15c.27,0,.4-.14.4-.3s-.11-.28-.38-.38-.54-.33-.54-.58a.63.63,0,0,1,.7-.59,1.16,1.16,0,0,1,.51.12l-.1.27a.8.8,0,0,0-.41-.12c-.22,0-.35.13-.35.28s.13.25.39.35.54.31.54.61-.28.61-.77.61a1.09,1.09,0,0,1-.57-.14Z"/><path class="cls-49" d="M422.51,188.2c0,.21,0,.39,0,.55h-.33l0-.33h0a.78.78,0,0,1-.67.38c-.32,0-.71-.18-.71-.9v-1.19h.37v1.13c0,.39.12.65.46.65a.53.53,0,0,0,.49-.34.54.54,0,0,0,0-.19v-1.25h.37Z"/><path class="cls-49" d="M422.87,187.26c0-.21,0-.38,0-.55h.32l0,.34h0a.76.76,0,0,1,.68-.38c.28,0,.72.17.72.86v1.22h-.37v-1.17c0-.33-.13-.61-.47-.61a.53.53,0,0,0-.5.38.48.48,0,0,0,0,.18v1.22h-.37Z"/><path class="cls-49" d="M426.41,188.68a1.41,1.41,0,0,1-.59.11,1,1,0,0,1-1-1,1,1,0,0,1,1.09-1.08,1.21,1.21,0,0,1,.51.11l-.08.28a.89.89,0,0,0-.43-.09.77.77,0,0,0,0,1.53,1.11,1.11,0,0,0,.45-.1Z"/><path class="cls-49" d="M427,186.14a.22.22,0,0,1-.24.23.22.22,0,0,1-.22-.23.23.23,0,0,1,.23-.23A.22.22,0,0,1,427,186.14Zm-.41,2.61v-2H427v2Z"/><path class="cls-49" d="M429.16,187.72a1,1,0,0,1-1,1.08,1,1,0,0,1-1-1.05,1,1,0,0,1,1-1.08A1,1,0,0,1,429.16,187.72Zm-1.62,0c0,.44.26.78.62.78s.62-.33.62-.79-.17-.79-.61-.79S427.54,187.35,427.54,187.74Zm1.18-1.91-.51.6h-.27l.37-.6Z"/><path class="cls-49" d="M429.37,187.26c0-.21,0-.38,0-.55h.33l0,.34h0a.77.77,0,0,1,.68-.38c.28,0,.72.17.72.86v1.22h-.37v-1.17c0-.33-.12-.61-.47-.61a.53.53,0,0,0-.5.38.48.48,0,0,0,0,.18v1.22h-.37Z"/><path class="cls-49" d="M431.22,189.27a6.78,6.78,0,0,0,.25-1l.41,0a4.92,4.92,0,0,1-.4,1Z"/><path class="cls-49" d="M432.73,186a4,4,0,0,1,.7-.06,1.15,1.15,0,0,1,.79.24.74.74,0,0,1,.25.59.82.82,0,0,1-.22.61,1.19,1.19,0,0,1-.86.31,1.39,1.39,0,0,1-.3,0v1.14h-.36Zm.36,1.36a.89.89,0,0,0,.3,0c.45,0,.72-.21.72-.6s-.27-.56-.67-.56a1.39,1.39,0,0,0-.35,0Z"/><path class="cls-49" d="M435.72,188.75l0-.26h0a.75.75,0,0,1-.62.31.58.58,0,0,1-.62-.59c0-.49.44-.76,1.22-.76v0a.41.41,0,0,0-.46-.47,1,1,0,0,0-.53.15l-.08-.24a1.23,1.23,0,0,1,.67-.18c.62,0,.77.42.77.83v.76a3.58,3.58,0,0,0,0,.49Zm-.06-1c-.4,0-.86.06-.86.46a.33.33,0,0,0,.35.35.48.48,0,0,0,.51-.46Z"/><path class="cls-49" d="M436.36,187.35c0-.24,0-.45,0-.64h.32v.4h0a.61.61,0,0,1,.56-.44h.11V187h-.13a.51.51,0,0,0-.49.47.88.88,0,0,0,0,.17v1.09h-.37Z"/><path class="cls-49" d="M438.59,188.75l0-.26h0a.75.75,0,0,1-.62.31.59.59,0,0,1-.63-.59c0-.49.44-.76,1.23-.76v0a.42.42,0,0,0-.46-.47,1,1,0,0,0-.53.15l-.09-.24a1.26,1.26,0,0,1,.67-.18.73.73,0,0,1,.78.83v.76a2.48,2.48,0,0,0,0,.49Zm0-1c-.41,0-.87.06-.87.46a.33.33,0,0,0,.35.35.48.48,0,0,0,.52-.46Z"/><path class="cls-49" d="M441,186.71c0,.15,0,.31,0,.56v1.19a1.18,1.18,0,0,1-.29.93,1.12,1.12,0,0,1-.74.24,1.29,1.29,0,0,1-.68-.17l.09-.28a1.22,1.22,0,0,0,.6.16c.38,0,.66-.2.66-.71v-.23h0a.74.74,0,0,1-.65.34.91.91,0,0,1-.87-1,1,1,0,0,1,.92-1.08.66.66,0,0,1,.63.35h0l0-.31Zm-.38.81a.44.44,0,0,0,0-.17.53.53,0,0,0-.52-.39c-.35,0-.6.3-.6.77s.2.73.6.73a.53.53,0,0,0,.51-.38.64.64,0,0,0,0-.2Z"/><path class="cls-49" d="M443,188.2c0,.21,0,.39,0,.55h-.33l0-.33h0a.78.78,0,0,1-.67.38c-.32,0-.71-.18-.71-.9v-1.19h.37v1.13c0,.39.12.65.46.65a.53.53,0,0,0,.49-.34.54.54,0,0,0,0-.19v-1.25H443Z"/><path class="cls-49" d="M444.53,188.75l0-.26h0a.77.77,0,0,1-.63.31.58.58,0,0,1-.62-.59c0-.49.44-.76,1.23-.76v0a.42.42,0,0,0-.47-.47,1.06,1.06,0,0,0-.53.15l-.08-.24a1.26,1.26,0,0,1,.67-.18c.62,0,.77.42.77.83v.76a2.43,2.43,0,0,0,0,.49Zm0-1c-.41,0-.87.06-.87.46a.33.33,0,0,0,.35.35.48.48,0,0,0,.49-.34.27.27,0,0,0,0-.12Z"/><path class="cls-49" d="M445.28,186.71l.44,1.21a3.84,3.84,0,0,1,.13.41h0c0-.12.08-.27.13-.42l.41-1.2h.39l-.56,1.46a3,3,0,0,1-.7,1.27.94.94,0,0,1-.45.24l-.09-.31a1.06,1.06,0,0,0,.32-.18,1.07,1.07,0,0,0,.31-.41.23.23,0,0,0,0-.09.84.84,0,0,0,0-.1l-.76-1.88Z"/></g><g id="Gastronomía_1" data-name="Gastronomía 1"><circle id="Elipse_37-21" data-name="Elipse 37" class="cls-5" cx="466.18" cy="151.64" r="7.87"/><circle id="Elipse_37-22" data-name="Elipse 37" class="cls-6" cx="466.18" cy="151.64" r="3.46"/><circle id="Elipse_37-23" data-name="Elipse 37" class="cls-5" cx="411.61" cy="220.7" r="7.87"/><circle id="Elipse_37-24" data-name="Elipse 37" class="cls-6" cx="411.61" cy="220.7" r="3.46"/><circle id="Elipse_37-25" data-name="Elipse 37" class="cls-5" cx="409.73" cy="136.16" r="7.87"/><circle id="Elipse_37-26" data-name="Elipse 37" class="cls-6" cx="409.73" cy="136.16" r="3.46"/><circle id="Elipse_37-27" data-name="Elipse 37" class="cls-5" cx="348.31" cy="168.43" r="7.87"/><circle id="Elipse_37-28" data-name="Elipse 37" class="cls-6" cx="348.31" cy="168.43" r="3.46"/><circle id="Elipse_37-29" data-name="Elipse 37" class="cls-5" cx="304.14" cy="208.83" r="7.87"/><circle id="Elipse_37-30" data-name="Elipse 37" class="cls-6" cx="304.14" cy="208.83" r="3.46"/><circle id="Elipse_37-31" data-name="Elipse 37" class="cls-5" cx="296.71" cy="174.36" r="7.87"/><circle id="Elipse_37-32" data-name="Elipse 37" class="cls-6" cx="296.71" cy="174.36" r="3.46"/><circle id="Elipse_37-33" data-name="Elipse 37" class="cls-5" cx="288.47" cy="140.97" r="7.87"/><circle id="Elipse_37-34" data-name="Elipse 37" class="cls-6" cx="288.47" cy="140.97" r="3.46"/><circle id="Elipse_37-35" data-name="Elipse 37" class="cls-5" cx="342.51" cy="122.75" r="7.87"/><circle id="Elipse_37-36" data-name="Elipse 37" class="cls-6" cx="342.51" cy="122.75" r="3.46"/><rect class="cls-50" x="368.39" y="176.75" width="101.46" height="15.74" rx="7.87"/><circle id="Elipse_37-37" data-name="Elipse 37" class="cls-5" cx="376.27" cy="184.62" r="7.87"/><circle id="Elipse_37-38" data-name="Elipse 37" class="cls-6" cx="376.27" cy="184.62" r="3.46"/><path class="cls-6" d="M390.1,182.09c0,1.11-.41,1.72-1.13,1.72s-1.06-.6-1.07-1.68.47-1.69,1.13-1.69S390.1,181.05,390.1,182.09Zm-1.76,0c0,.85.26,1.33.66,1.33s.66-.53.66-1.36-.2-1.33-.66-1.33S388.34,181.25,388.34,182.14Z"/><path class="cls-6" d="M391.16,180.91h0l-.56.3-.09-.33.71-.38h.38v3.25h-.43Z"/><path class="cls-6" d="M393.33,183.22a1.53,1.53,0,0,0,.78.22c.44,0,.7-.23.7-.57s-.18-.5-.63-.68-.89-.48-.89-.95a1,1,0,0,1,1.09-.92,1.46,1.46,0,0,1,.74.17l-.12.35a1.32,1.32,0,0,0-.64-.16c-.46,0-.63.28-.63.51s.2.47.67.65.86.5.86,1-.39,1-1.18,1a1.73,1.73,0,0,1-.86-.21Z"/><path class="cls-6" d="M396.3,183.75v-1.43l-1.06-1.94h.49l.48.93c.13.25.23.46.33.69h0c.1-.22.21-.44.34-.69l.49-.93h.49l-1.13,1.93v1.44Z"/><path class="cls-6" d="M397.92,183.75v-3.37h.48l1.08,1.7a10.38,10.38,0,0,1,.6,1.1h0c0-.46,0-.87,0-1.39v-1.41h.41v3.37H400L398.94,182a11.74,11.74,0,0,1-.63-1.13h0c0,.42,0,.83,0,1.39v1.44Z"/><path class="cls-6" d="M403.27,183.64a2.16,2.16,0,0,1-.89.16,1.58,1.58,0,0,1-1.67-1.71,1.68,1.68,0,0,1,1.76-1.77,1.79,1.79,0,0,1,.8.15l-.1.36a1.6,1.6,0,0,0-.68-.14,1.25,1.25,0,0,0-1.32,1.39,1.23,1.23,0,0,0,1.3,1.36,1.87,1.87,0,0,0,.71-.14Z"/><path class="cls-49" d="M390.2,188.63a3,3,0,0,1-.88.15,1.32,1.32,0,0,1-1.45-1.43,1.42,1.42,0,0,1,1.53-1.47,1.93,1.93,0,0,1,.71.13l-.09.3a1.58,1.58,0,0,0-.62-.12,1.06,1.06,0,0,0-1.14,1.14,1,1,0,0,0,1.09,1.15,1.24,1.24,0,0,0,.49-.08v-.85h-.58v-.29h.94Z"/><path class="cls-49" d="M390.4,188.53a.25.25,0,1,1,.5,0,.25.25,0,1,1-.5,0Z"/><path class="cls-49" d="M391.76,186a3.85,3.85,0,0,1,.67-.06,1.21,1.21,0,0,1,.78.21.61.61,0,0,1,.23.5.67.67,0,0,1-.48.62h0a.74.74,0,0,1,.59.71.77.77,0,0,1-.24.57,1.44,1.44,0,0,1-1,.27,3.54,3.54,0,0,1-.57,0Zm.36,1.16h.34c.38,0,.61-.2.61-.47s-.25-.47-.62-.47a1.73,1.73,0,0,0-.33,0Zm0,1.36a1.37,1.37,0,0,0,.31,0c.38,0,.73-.14.73-.55s-.33-.55-.73-.55h-.31Z"/><path class="cls-49" d="M393.63,188.53a.25.25,0,1,1,.5,0,.25.25,0,1,1-.5,0Z"/><path class="cls-49" d="M397.41,187.3a1.33,1.33,0,0,1-1.31,1.5,1.3,1.3,0,0,1-1.28-1.44,1.35,1.35,0,0,1,1.32-1.49A1.29,1.29,0,0,1,397.41,187.3Zm-2.2,0c0,.61.33,1.15.91,1.15s.91-.54.91-1.18-.3-1.15-.91-1.15S395.21,186.73,395.21,187.35Z"/><path class="cls-49" d="M398.12,185.87a4.34,4.34,0,0,1-.39,1l-.24,0a4.62,4.62,0,0,0,.25-1Z"/><path class="cls-49" d="M398.28,185.76h.37V187h0a.84.84,0,0,1,.27-.26.8.8,0,0,1,.38-.1c.27,0,.71.17.71.87v1.21h-.37v-1.17c0-.33-.12-.61-.47-.61a.54.54,0,0,0-.5.37.5.5,0,0,0,0,.18v1.23h-.37Z"/><path class="cls-49" d="M400.77,186.14a.22.22,0,0,1-.24.23.22.22,0,0,1-.22-.23.23.23,0,0,1,.23-.23A.22.22,0,0,1,400.77,186.14Zm-.41,2.61v-2h.37v2Z"/><path class="cls-49" d="M402.85,186.71c0,.15,0,.31,0,.56v1.19a1.18,1.18,0,0,1-.29.93,1.12,1.12,0,0,1-.74.24,1.29,1.29,0,0,1-.68-.17l.09-.28a1.22,1.22,0,0,0,.6.16c.38,0,.66-.2.66-.71v-.23h0a.73.73,0,0,1-.65.34.91.91,0,0,1-.87-1,1,1,0,0,1,.92-1.08.69.69,0,0,1,.64.35h0l0-.31Zm-.39.81a.44.44,0,0,0,0-.17.53.53,0,0,0-.52-.39c-.35,0-.6.3-.6.77s.2.73.6.73a.53.53,0,0,0,.51-.38.64.64,0,0,0,0-.2Z"/><path class="cls-49" d="M404.94,186.71c0,.15,0,.31,0,.56v1.19a1.22,1.22,0,0,1-.29.93,1.13,1.13,0,0,1-.75.24,1.28,1.28,0,0,1-.67-.17l.09-.28a1.19,1.19,0,0,0,.6.16c.38,0,.65-.2.65-.71v-.23h0a.74.74,0,0,1-.65.34.91.91,0,0,1-.87-1,1,1,0,0,1,.92-1.08.66.66,0,0,1,.63.35h0l0-.31Zm-.38.81a.44.44,0,0,0,0-.17A.53.53,0,0,0,404,187c-.35,0-.6.3-.6.77s.2.73.6.73a.54.54,0,0,0,.51-.38.64.64,0,0,0,0-.2Z"/><path class="cls-49" d="M405.67,186.14a.21.21,0,0,1-.23.23.23.23,0,0,1-.23-.23.23.23,0,0,1,.24-.23A.21.21,0,0,1,405.67,186.14Zm-.41,2.61v-2h.37v2Z"/><path class="cls-49" d="M406,187.26c0-.21,0-.38,0-.55h.32l0,.34h0a.77.77,0,0,1,.68-.38c.28,0,.72.17.72.86v1.22h-.37v-1.17c0-.33-.13-.61-.47-.61a.53.53,0,0,0-.5.38.48.48,0,0,0,0,.18v1.22H406Z"/><path class="cls-49" d="M408,188.37a1,1,0,0,0,.49.15c.27,0,.4-.14.4-.3s-.11-.28-.38-.38-.54-.33-.54-.58a.62.62,0,0,1,.7-.59,1.08,1.08,0,0,1,.5.12l-.09.27a.81.81,0,0,0-.42-.12.3.3,0,0,0-.34.28c0,.17.13.25.39.35s.54.31.54.61-.28.61-.77.61a1.09,1.09,0,0,1-.57-.14Z"/><path class="cls-49" d="M411.57,186.27a1.47,1.47,0,0,0-.28,0,1.11,1.11,0,0,0-1,1h0A.83.83,0,0,1,411,187a.81.81,0,0,1,.82.88.92.92,0,0,1-.91,1c-.58,0-1-.46-1-1.17a1.71,1.71,0,0,1,.47-1.23,1.42,1.42,0,0,1,.87-.41l.27,0Zm-.1,1.58a.56.56,0,0,0-.57-.62.62.62,0,0,0-.53.33.43.43,0,0,0,0,.17c0,.45.21.78.6.78S411.47,188.25,411.47,187.85Z"/><path class="cls-49" d="M413.48,186.27a1.42,1.42,0,0,0-.28,0,1.11,1.11,0,0,0-.95,1h0a.84.84,0,0,1,1.49.57.93.93,0,0,1-.91,1c-.59,0-1-.46-1-1.17a1.71,1.71,0,0,1,.46-1.23,1.45,1.45,0,0,1,.88-.41l.27,0Zm-.11,1.58a.55.55,0,0,0-.56-.62.61.61,0,0,0-.53.33.31.31,0,0,0,0,.17c0,.45.22.78.61.78S413.37,188.25,413.37,187.85Z"/><path class="cls-49" d="M413.78,188.06a.8.8,0,0,1,.55-.74h0a.68.68,0,0,1-.43-.61.77.77,0,0,1,.85-.73.7.7,0,0,1,.79.67.69.69,0,0,1-.45.64h0a.77.77,0,0,1,.55.71.84.84,0,0,1-.93.8C414.13,188.8,413.78,188.46,413.78,188.06Zm1.48,0c0-.33-.23-.49-.6-.6a.6.6,0,0,0-.5.57.51.51,0,0,0,.55.52A.5.5,0,0,0,415.26,188Zm-1-1.37c0,.27.21.42.52.51a.54.54,0,0,0,.42-.5.43.43,0,0,0-.46-.45A.44.44,0,0,0,414.24,186.67Z"/><path class="cls-49" d="M415.6,189.27a5.74,5.74,0,0,0,.25-1l.42,0a5.56,5.56,0,0,1-.4,1Z"/><path class="cls-49" d="M417.57,187.86l-.3.89h-.37l1-2.84h.44l1,2.84h-.39l-.3-.89Zm.93-.29-.28-.81c-.06-.19-.1-.36-.15-.52h0c-.05.17-.09.34-.15.51l-.28.82Z"/><path class="cls-49" d="M419.34,188.37a1,1,0,0,0,.49.15c.27,0,.4-.14.4-.3s-.11-.28-.38-.38-.54-.33-.54-.58a.63.63,0,0,1,.7-.59,1.16,1.16,0,0,1,.51.12l-.1.27a.8.8,0,0,0-.41-.12c-.22,0-.35.13-.35.28s.13.25.39.35.54.31.54.61-.28.61-.77.61a1.09,1.09,0,0,1-.57-.14Z"/><path class="cls-49" d="M422.51,188.2c0,.21,0,.39,0,.55h-.33l0-.33h0a.78.78,0,0,1-.67.38c-.32,0-.71-.18-.71-.9v-1.19h.37v1.13c0,.39.12.65.46.65a.53.53,0,0,0,.49-.34.54.54,0,0,0,0-.19v-1.25h.37Z"/><path class="cls-49" d="M422.87,187.26c0-.21,0-.38,0-.55h.32l0,.34h0a.76.76,0,0,1,.68-.38c.28,0,.72.17.72.86v1.22h-.37v-1.17c0-.33-.13-.61-.47-.61a.53.53,0,0,0-.5.38.48.48,0,0,0,0,.18v1.22h-.37Z"/><path class="cls-49" d="M426.41,188.68a1.41,1.41,0,0,1-.59.11,1,1,0,0,1-1-1,1,1,0,0,1,1.09-1.08,1.21,1.21,0,0,1,.51.11l-.08.28a.89.89,0,0,0-.43-.09.77.77,0,0,0,0,1.53,1.11,1.11,0,0,0,.45-.1Z"/><path class="cls-49" d="M427,186.14a.22.22,0,0,1-.24.23.22.22,0,0,1-.22-.23.23.23,0,0,1,.23-.23A.22.22,0,0,1,427,186.14Zm-.41,2.61v-2H427v2Z"/><path class="cls-49" d="M429.16,187.72a1,1,0,0,1-1,1.08,1,1,0,0,1-1-1.05,1,1,0,0,1,1-1.08A1,1,0,0,1,429.16,187.72Zm-1.62,0c0,.44.26.78.62.78s.62-.33.62-.79-.17-.79-.61-.79S427.54,187.35,427.54,187.74Zm1.18-1.91-.51.6h-.27l.37-.6Z"/><path class="cls-49" d="M429.37,187.26c0-.21,0-.38,0-.55h.33l0,.34h0a.77.77,0,0,1,.68-.38c.28,0,.72.17.72.86v1.22h-.37v-1.17c0-.33-.12-.61-.47-.61a.53.53,0,0,0-.5.38.48.48,0,0,0,0,.18v1.22h-.37Z"/><path class="cls-49" d="M431.22,189.27a6.78,6.78,0,0,0,.25-1l.41,0a4.92,4.92,0,0,1-.4,1Z"/><path class="cls-49" d="M432.73,186a4,4,0,0,1,.7-.06,1.15,1.15,0,0,1,.79.24.74.74,0,0,1,.25.59.82.82,0,0,1-.22.61,1.19,1.19,0,0,1-.86.31,1.39,1.39,0,0,1-.3,0v1.14h-.36Zm.36,1.36a.89.89,0,0,0,.3,0c.45,0,.72-.21.72-.6s-.27-.56-.67-.56a1.39,1.39,0,0,0-.35,0Z"/><path class="cls-49" d="M435.72,188.75l0-.26h0a.75.75,0,0,1-.62.31.58.58,0,0,1-.62-.59c0-.49.44-.76,1.22-.76v0a.41.41,0,0,0-.46-.47,1,1,0,0,0-.53.15l-.08-.24a1.23,1.23,0,0,1,.67-.18c.62,0,.77.42.77.83v.76a3.58,3.58,0,0,0,0,.49Zm-.06-1c-.4,0-.86.06-.86.46a.33.33,0,0,0,.35.35.48.48,0,0,0,.51-.46Z"/><path class="cls-49" d="M436.36,187.35c0-.24,0-.45,0-.64h.32v.4h0a.61.61,0,0,1,.56-.44h.11V187h-.13a.51.51,0,0,0-.49.47.88.88,0,0,0,0,.17v1.09h-.37Z"/><path class="cls-49" d="M438.59,188.75l0-.26h0a.75.75,0,0,1-.62.31.59.59,0,0,1-.63-.59c0-.49.44-.76,1.23-.76v0a.42.42,0,0,0-.46-.47,1,1,0,0,0-.53.15l-.09-.24a1.26,1.26,0,0,1,.67-.18.73.73,0,0,1,.78.83v.76a2.48,2.48,0,0,0,0,.49Zm0-1c-.41,0-.87.06-.87.46a.33.33,0,0,0,.35.35.48.48,0,0,0,.52-.46Z"/><path class="cls-49" d="M441,186.71c0,.15,0,.31,0,.56v1.19a1.18,1.18,0,0,1-.29.93,1.12,1.12,0,0,1-.74.24,1.29,1.29,0,0,1-.68-.17l.09-.28a1.22,1.22,0,0,0,.6.16c.38,0,.66-.2.66-.71v-.23h0a.74.74,0,0,1-.65.34.91.91,0,0,1-.87-1,1,1,0,0,1,.92-1.08.66.66,0,0,1,.63.35h0l0-.31Zm-.38.81a.44.44,0,0,0,0-.17.53.53,0,0,0-.52-.39c-.35,0-.6.3-.6.77s.2.73.6.73a.53.53,0,0,0,.51-.38.64.64,0,0,0,0-.2Z"/><path class="cls-49" d="M443,188.2c0,.21,0,.39,0,.55h-.33l0-.33h0a.78.78,0,0,1-.67.38c-.32,0-.71-.18-.71-.9v-1.19h.37v1.13c0,.39.12.65.46.65a.53.53,0,0,0,.49-.34.54.54,0,0,0,0-.19v-1.25H443Z"/><path class="cls-49" d="M444.53,188.75l0-.26h0a.77.77,0,0,1-.63.31.58.58,0,0,1-.62-.59c0-.49.44-.76,1.23-.76v0a.42.42,0,0,0-.47-.47,1.06,1.06,0,0,0-.53.15l-.08-.24a1.26,1.26,0,0,1,.67-.18c.62,0,.77.42.77.83v.76a2.43,2.43,0,0,0,0,.49Zm0-1c-.41,0-.87.06-.87.46a.33.33,0,0,0,.35.35.48.48,0,0,0,.49-.34.27.27,0,0,0,0-.12Z"/><path class="cls-49" d="M445.28,186.71l.44,1.21a3.84,3.84,0,0,1,.13.41h0c0-.12.08-.27.13-.42l.41-1.2h.39l-.56,1.46a3,3,0,0,1-.7,1.27.94.94,0,0,1-.45.24l-.09-.31a1.06,1.06,0,0,0,.32-.18,1.07,1.07,0,0,0,.31-.41.23.23,0,0,0,0-.09.84.84,0,0,0,0-.1l-.76-1.88Z"/><circle id="Elipse_37-39" data-name="Elipse 37" class="cls-5" cx="420.46" cy="168.12" r="7.87"/><circle id="Elipse_37-40" data-name="Elipse 37" class="cls-6" cx="420.46" cy="168.12" r="3.46"/></g></g></svg>