<svg xmlns="http://www.w3.org/2000/svg" width="37.04" height="37.04" viewBox="0 0 37.04 37.04">
  <path id="iconmonstr-delivery-8" d="M5.939,29.323H4.63A4.632,4.632,0,0,1,0,24.693v-4.63C0,8.99,8.3,0,18.52,0S37.04,8.99,37.04,20.063v4.63a4.632,4.632,0,0,1-4.63,4.63H31.1A14.6,14.6,0,0,1,18.52,37.04,14.6,14.6,0,0,1,5.939,29.323Zm24.928-9.069a1.41,1.41,0,0,1-1.958-1.23,14,14,0,0,0-.082-1.412c-2.718-.392-5.584-2.972-5.709-5.746C21.088,14.961,16.134,18.3,12.246,18.3c1.676-1.079,2.838-4.28,2.937-5.414-.9,1.685-4.473,4.84-7.024,5.382l-.028.755a1.409,1.409,0,0,1-1.958,1.23v5.82a4.4,4.4,0,0,0,1.607.917,1.4,1.4,0,0,1,.8.654c3.4,6.244,8.374,6.308,9.936,6.308a10.4,10.4,0,0,0,9.07-4.891,16.666,16.666,0,0,1-5.8,1.008,3.816,3.816,0,0,1-3.269,1.568c-1.988,0-3.6-1.21-3.6-2.7s1.613-2.7,3.6-2.7a3.828,3.828,0,0,1,3.26,1.551c2.932-.04,6.692-.515,9.087-4.082V20.255ZM13.89,19.292a2.146,2.146,0,0,1,1.918,2.315,2.146,2.146,0,0,1-1.918,2.315,2.146,2.146,0,0,1-1.918-2.315A2.146,2.146,0,0,1,13.89,19.292Zm9.26,0a2.146,2.146,0,0,1,1.918,2.315,2.146,2.146,0,0,1-1.918,2.315,2.146,2.146,0,0,1-1.918-2.315A2.146,2.146,0,0,1,23.15,19.292ZM31.6,16.977H33.7c-1.321-7.9-7.619-13.89-15.179-13.89S4.662,9.078,3.341,16.977H5.436C6.238,10.768,10.7,5.059,18.52,5.059S30.8,10.768,31.6,16.977Z" fill="#132127" fill-rule="evenodd"/>
</svg>
