<?xml version="1.0" encoding="utf-8"?>
<!-- Generator: Adobe Illustrator 26.3.1, SVG Export Plug-In . SVG Version: 6.00 Build 0)  -->
<svg version="1.1" id="Capa_1" xmlns="http://www.w3.org/2000/svg" xmlns:xlink="http://www.w3.org/1999/xlink" x="0px" y="0px"
	 viewBox="0 0 490.06 490.9" style="enable-background:new 0 0 490.06 490.9;" xml:space="preserve">
<style type="text/css">
	.st0{fill:none;stroke:#A2C622;stroke-width:12;stroke-miterlimit:10;}
</style>
<g>
	<path class="st0" d="M306.76,285.33c51.83-44.58,42.04-94.6,42.04-94.6c1.99-5.32-59.03,34.58-93.09,70.16
		c-14.29,14.93-22.28,49.81-17.98,60.72C241.16,330.28,286.81,302.49,306.76,285.33z"/>
	<path class="st0" d="M152.4,225.65c-16.08-35.2-11.18-85.46-11.18-85.46c3.1-1.96,61.61,56.54,75.49,90.02
		c7.96,19.21,16.98,59.54,10.19,69.5C217.27,313.85,163.87,250.74,152.4,225.65z"/>
	<path class="st0" d="M250.89,103.12c0,0,4.68,189.39-48.52,284.67"/>
</g>
</svg>
