<svg id="Grupo_36" data-name="Grupo 36" xmlns="http://www.w3.org/2000/svg" width="38.866" height="38.865" viewBox="0 0 38.866 38.865">
  <path id="iconmonstr-instagram-11" d="M19.433,3.5c5.189,0,5.8.019,7.854.113,5.266.24,7.726,2.738,7.966,7.966.094,2.049.112,2.664.112,7.852s-.019,5.8-.112,7.852c-.241,5.223-2.695,7.726-7.966,7.966-2.05.094-2.662.113-7.854.113s-5.8-.019-7.852-.113C6.3,35.011,3.854,32.5,3.615,27.285c-.094-2.049-.113-2.662-.113-7.852s.021-5.8.113-7.852c.241-5.226,2.695-7.726,7.966-7.966,2.05-.092,2.664-.112,7.852-.112Zm0-3.5c-5.278,0-5.938.023-8.011.117C4.364.44.442,4.356.118,11.42.023,13.494,0,14.155,0,19.433s.023,5.94.117,8.013c.324,7.057,4.24,10.98,11.3,11.3,2.074.094,2.735.117,8.013.117s5.94-.023,8.013-.117c7.051-.324,10.983-4.24,11.3-11.3.1-2.073.118-2.735.118-8.013s-.023-5.938-.117-8.011c-.317-7.051-4.238-10.98-11.3-11.3C25.373.023,24.71,0,19.433,0Zm0,9.454a9.98,9.98,0,1,0,9.979,9.979A9.979,9.979,0,0,0,19.433,9.454Zm0,16.456a6.478,6.478,0,1,1,6.478-6.478A6.477,6.477,0,0,1,19.433,25.91ZM29.807,6.729a2.332,2.332,0,1,0,2.33,2.332A2.333,2.333,0,0,0,29.807,6.729Z" transform="translate(0 0)" fill="#fff"/>
</svg>
