<svg id="Grupo_38" data-name="Grupo 38" xmlns="http://www.w3.org/2000/svg" width="38.866" height="38.865" viewBox="0 0 38.866 38.865">
  <path id="iconmonstr-linkedin-3" d="M30.769,0H8.1A8.1,8.1,0,0,0,0,8.1V30.769a8.1,8.1,0,0,0,8.1,8.1H30.769a8.1,8.1,0,0,0,8.1-8.1V8.1A8.1,8.1,0,0,0,30.769,0ZM12.955,30.769H8.1V12.955h4.858ZM10.526,10.9A2.857,2.857,0,1,1,13.36,8.045,2.846,2.846,0,0,1,10.526,10.9ZM32.388,30.769H27.53V21.694c0-5.454-6.478-5.041-6.478,0v9.075H16.194V12.955h4.858v2.858c2.261-4.188,11.336-4.5,11.336,4.01Z" transform="translate(0)" fill="#fff"/>
</svg>
