<svg xmlns="http://www.w3.org/2000/svg" xmlns:xlink="http://www.w3.org/1999/xlink" width="132.709" height="136.166" viewBox="0 0 132.709 136.166">
  <defs>
    <clipPath id="clip-path">
      <rect id="Rectángulo_347" data-name="Rectángulo 347" width="132.709" height="136.166" fill="none"/>
    </clipPath>
  </defs>
  <g id="_01_SYNC" data-name="01 SYNC" transform="translate(66.355 68.083)">
    <g id="_01_SYNC-2" data-name="01 SYNC" transform="translate(-66.355 -68.083)">
      <g id="Grupo_299" data-name="Grupo 299">
        <g id="Grupo_298" data-name="Grupo 298" clip-path="url(#clip-path)">
          <g id="Grupo_297" data-name="Grupo 297">
            <g id="Grupo_296" data-name="Grupo 296" clip-path="url(#clip-path)">
              <path id="Trazado_938" data-name="Trazado 938" d="M235.57,288.809c-.527.465-1.043.942-1.534,1.444a26.867,26.867,0,0,0-4.921,7.01l11.745,11.745-11.684,11.685a27.4,27.4,0,0,0,4.938,7.019c.49.5,1,.982,1.53,1.448l20.138-20.139Z" transform="translate(-204.074 -257.243)" fill="#f39563"/>
              <path id="Trazado_939" data-name="Trazado 939" d="M767.005,282.165h14.464V228.571H756.453v11.5h10.553Z" transform="translate(-673.776 -203.589)" fill="#fff"/>
              <path id="Trazado_940" data-name="Trazado 940" d="M340.947,232.43c8.024,0,14.249,5.747,14.249,15.3s-6.225,15.5-14.249,15.5a14.1,14.1,0,0,1-6.68-1.641l-9.354,9.355a30.435,30.435,0,0,0,16.035,4.607c15.31,0,29.347-11.6,29.347-27.822,0-16.327-14.037-27.621-29.347-27.621a30.809,30.809,0,0,0-16.093,4.548l9.384,9.383a14.389,14.389,0,0,1,6.71-1.61" transform="translate(-289.349 -196.051)" fill="#fff"/>
              <path id="Trazado_941" data-name="Trazado 941" d="M239.45,822.956a10.232,10.232,0,0,0-2.6-1.336,27.129,27.129,0,0,0-3.414-.958q-1.133-.249-1.873-.487a6.587,6.587,0,0,1-1.164-.471,1.566,1.566,0,0,1-.6-.519,1.232,1.232,0,0,1-.174-.659v-.064a1.214,1.214,0,0,1,.551-1,2.757,2.757,0,0,1,1.652-.409,9.362,9.362,0,0,1,3.068.55,12.4,12.4,0,0,1,3.1,1.622l3.052-4.325a12.742,12.742,0,0,0-4.012-2.2,15.86,15.86,0,0,0-5.051-.744,11.335,11.335,0,0,0-3.557.518,7.99,7.99,0,0,0-2.69,1.461,6.276,6.276,0,0,0-1.7,2.23,6.78,6.78,0,0,0-.582,2.828v.061a5.36,5.36,0,0,0,2.407,4.76,10.022,10.022,0,0,0,2.628,1.257q1.51.487,3.273.9a18.989,18.989,0,0,1,1.841.487,5.964,5.964,0,0,1,1.133.487,1.609,1.609,0,0,1,.582.518,1.186,1.186,0,0,1,.158.612v.063a1.239,1.239,0,0,1-.645,1.116,3.642,3.642,0,0,1-1.872.392,11.21,11.21,0,0,1-7.144-2.644l-3.4,4.069a13.623,13.623,0,0,0,4.705,2.755,17.1,17.1,0,0,0,5.617.918,12.8,12.8,0,0,0,3.651-.487,8.2,8.2,0,0,0,2.8-1.414,6.479,6.479,0,0,0,1.809-2.246,6.794,6.794,0,0,0,.645-3.016v-.063a5.8,5.8,0,0,0-.566-2.654,5.342,5.342,0,0,0-1.636-1.9" transform="translate(-198.114 -723.209)" fill="#fff"/>
              <path id="Trazado_942" data-name="Trazado 942" d="M400.312,823.427l-4.531-8.026h-6.956l8.371,13.785v8.245h6.137v-8.34L411.7,815.4h-6.829Z" transform="translate(-346.328 -726.282)" fill="#fff"/>
              <path id="Trazado_943" data-name="Trazado 943" d="M621.656,827.049l-9.083-11.644h-5.709v22.03h6.011V825.35l9.43,12.085h5.361v-22.03h-6.011Z" transform="translate(-540.537 -726.285)" fill="#fff"/>
              <path id="Trazado_944" data-name="Trazado 944" d="M820.1,826.038a12.527,12.527,0,0,1-1.023,1.086,6.92,6.92,0,0,1-1.1.85,4.737,4.737,0,0,1-1.29.551,6.052,6.052,0,0,1-1.558.189,4.889,4.889,0,0,1-2.125-.456,5.092,5.092,0,0,1-1.652-1.244,5.768,5.768,0,0,1-1.086-1.872,6.727,6.727,0,0,1-.394-2.313v-.064a6.506,6.506,0,0,1,.394-2.266,5.817,5.817,0,0,1,1.086-1.856,5.086,5.086,0,0,1,1.652-1.243,4.893,4.893,0,0,1,2.125-.456,5.161,5.161,0,0,1,2.738.693,7.951,7.951,0,0,1,2.077,1.888l4.595-3.556a12.073,12.073,0,0,0-1.652-1.857,10.154,10.154,0,0,0-2.077-1.464,10.592,10.592,0,0,0-2.534-.944,13.335,13.335,0,0,0-3.084-.33,11.994,11.994,0,0,0-4.642.881,11.064,11.064,0,0,0-3.667,2.439,11.5,11.5,0,0,0-3.3,8.136v.062a11.444,11.444,0,0,0,3.32,8.167,10.828,10.828,0,0,0,3.6,2.376,11.594,11.594,0,0,0,4.437.849,13.22,13.22,0,0,0,3.289-.377,11.02,11.02,0,0,0,2.643-1.039,9.853,9.853,0,0,0,2.108-1.573,16.479,16.479,0,0,0,1.715-1.983Z" transform="translate(-715.753 -722.693)" fill="#fff"/>
            </g>
          </g>
        </g>
      </g>
    </g>
  </g>
</svg>
