<svg xmlns="http://www.w3.org/2000/svg" xmlns:xlink="http://www.w3.org/1999/xlink" width="185" height="97" viewBox="0 0 185 97">
  <defs>
    <clipPath id="clip-path">
      <rect id="Rectángulo_44" data-name="Rectángulo 44" width="185" height="97" transform="translate(45 11787.5)" fill="#c6c6c6" stroke="#707070" stroke-width="1"/>
    </clipPath>
  </defs>
  <g id="Enmascarar_grupo_1" data-name="Enmascarar grupo 1" transform="translate(-45 -11787.5)" clip-path="url(#clip-path)">
    <g id="VC21" transform="translate(137.799 11835.622)">
      <g id="VC21-2" data-name="VC21" transform="translate(-84.45 -34.892)">
        <g id="Grupo_7" data-name="Grupo 7">
          <path id="Trazado_1" data-name="Trazado 1" d="M10.664,100.58l6.787.011L28.2,74.031l-8.029-.013-6.02,16.691L8.18,74,0,73.987Z" transform="translate(0 -65.408)" fill="#fff"/>
          <path id="Trazado_2" data-name="Trazado 2" d="M267.371,74.392l7.352.011-.041,26.546-7.352-.01Z" transform="translate(-236.332 -65.766)" fill="#fff"/>
          <path id="Trazado_3" data-name="Trazado 3" d="M363.5,80.53l-7.917-.011.01-6.463,23.146.035-.01,6.463-7.917-.013-.03,20.111-7.313-.011Z" transform="translate(-314.351 -65.468)" fill="#fff"/>
          <g id="Grupo_6" data-name="Grupo 6" transform="translate(0.319)">
            <path id="Trazado_4" data-name="Trazado 4" d="M579.449,74.357l12.477.019c4.034.065,6.822,1.125,8.591,2.936a8.193,8.193,0,0,1,2.328,6.148v.076a8.349,8.349,0,0,1-5.441,8.1l6.28,9.207-8.444-.013-5.3-8h-.076l-3.129-.005-.013,7.993-7.312-.011ZM591.567,87.1c2.489,0,3.923-1.2,3.926-3.124V83.9c0-2.072-1.5-3.13-3.953-3.134l-4.788-.008-.01,6.335Z" transform="translate(-512.541 -65.735)" fill="#fff"/>
            <rect id="Rectángulo_91" data-name="Rectángulo 91" width="26.484" height="7.351" transform="translate(93.994 35.095) rotate(-89.912)" fill="#fff"/>
            <path id="Trazado_5" data-name="Trazado 5" d="M901.5,89.221l.035-14.944,7.426.011-.034,14.793c-.006,3.808,1.914,5.62,4.854,5.625s4.864-1.726,4.871-5.421l.022-15,7.428.011-.023,14.774c-.013,8.52-4.882,12.244-12.384,12.233s-12.208-3.827-12.2-12.082" transform="translate(-797.288 -65.664)" fill="#fff"/>
            <path id="Trazado_6" data-name="Trazado 6" d="M1138.213,74.36l7.728.011,6.28,10.226,6.312-10.206,7.727.012-.041,26.527-7.275-.01.023-15.294L1152.2,95.944h-.151l-6.695-10.264-.022,15.241-7.163-.01Z" transform="translate(-1006.513 -65.737)" fill="#fff"/>
            <path id="Trazado_7" data-name="Trazado 7" d="M2.751,388.94v-.072a12.949,12.949,0,0,1,13.306-13.085,12.339,12.339,0,0,1,10.684,5.274l-5.262,4.059a6.75,6.75,0,0,0-5.5-2.961c-3.53,0-6.018,2.98-6.023,6.652v.072c-.006,3.78,2.474,6.736,6,6.741,2.628,0,4.178-1.217,5.692-3.05l5.252,3.752a12.711,12.711,0,0,1-11.17,5.671A12.8,12.8,0,0,1,2.751,388.94" transform="translate(-2.751 -332.207)" fill="#fff"/>
            <path id="Trazado_8" data-name="Trazado 8" d="M227.864,378.874l6.733.009,10.692,25.4-7.49-.012-1.828-4.5-9.722-.014-1.807,4.5-7.345-.011Zm6.1,15.453-2.8-7.167-2.855,7.159Z" transform="translate(-192.243 -334.941)" fill="#fff"/>
            <path id="Trazado_9" data-name="Trazado 9" d="M484.755,380.686l10.8.016c6.372.009,10.472,3.293,10.463,8.873v.072c-.009,5.94-4.587,9.066-10.851,9.056l-3.456-.006-.011,7.2-6.984-.01Zm10.278,12.544c2.484,0,4-1.289,4-3.27v-.072c0-2.159-1.506-3.315-4.026-3.318l-3.277-.006-.01,6.66Z" transform="translate(-428.83 -336.543)" fill="#fff"/>
            <rect id="Rectángulo_92" data-name="Rectángulo 92" width="25.202" height="7.02" transform="translate(80.03 69.382) rotate(-89.911)" fill="#fff"/>
            <path id="Trazado_10" data-name="Trazado 10" d="M785.6,387.266l-7.56-.011.009-6.12,22.105.033-.008,6.121-7.561-.011-.029,19.082-6.985-.011Z" transform="translate(-688.14 -336.939)" fill="#fff"/>
            <path id="Trazado_11" data-name="Trazado 11" d="M958.176,379.976l6.733.011,10.692,25.4-7.49-.011-1.828-4.5-9.722-.014-1.807,4.5-7.345-.011Zm6.1,15.455-2.8-7.169-2.855,7.16Z" transform="translate(-837.87 -335.915)" fill="#fff"/>
            <path id="Trazado_12" data-name="Trazado 12" d="M1215.068,381.789l6.985.011-.029,19.082,12.2.018-.008,6.121-19.189-.029Z" transform="translate(-1074.458 -337.518)" fill="#fff"/>
            <path id="Trazado_13" data-name="Trazado 13" d="M1304.433,5.981h6.373v6.373l5.981,5.981V0h-18.335Z" transform="translate(-1148.206)" fill="#fff"/>
          </g>
        </g>
      </g>
    </g>
  </g>
</svg>
