<svg xmlns="http://www.w3.org/2000/svg" xmlns:xlink="http://www.w3.org/1999/xlink" viewBox="0 0 953.66 630.08"><defs><style>.cls-1{fill:#ececec;}.cls-2{fill:#445464;}.cls-3{fill:#b0c5d6;}.cls-12,.cls-17,.cls-23,.cls-28,.cls-32,.cls-36,.cls-4,.cls-40,.cls-44,.cls-48,.cls-5,.cls-50{fill:#132127;stroke:#dac8b5;}.cls-4{stroke-width:0.55px;filter:url(#filter);}.cls-5{stroke-width:0.72px;}.cls-6{fill:#d1f400;}.cls-18,.cls-29,.cls-33,.cls-37,.cls-7{font-size:4.21px;font-family:Gotham-Bold, Gotham Bold;font-weight:700;}.cls-18,.cls-29,.cls-33,.cls-37,.cls-49,.cls-7{fill:#fff;}.cls-22,.cls-7,.cls-9{letter-spacing:-0.06em;}.cls-16,.cls-22,.cls-27,.cls-31,.cls-39,.cls-46,.cls-8{font-family:Gotham-Book, Gotham Book;font-weight:400;}.cls-14,.cls-8{letter-spacing:-0.06em;}.cls-10{letter-spacing:-0.07em;}.cls-11,.cls-18,.cls-39{letter-spacing:-0.06em;}.cls-12{stroke-width:0.62px;filter:url(#filter-2);}.cls-13{letter-spacing:-0.07em;}.cls-15{letter-spacing:-0.07em;}.cls-17{stroke-width:0.67px;filter:url(#filter-3);}.cls-19{letter-spacing:-0.07em;}.cls-20,.cls-46{letter-spacing:-0.07em;}.cls-21{letter-spacing:-0.07em;}.cls-23{stroke-width:0.71px;filter:url(#filter-4);}.cls-24{letter-spacing:-0.1em;}.cls-25{letter-spacing:-0.08em;}.cls-26{letter-spacing:-0.09em;}.cls-27{letter-spacing:-0.07em;}.cls-28{stroke-width:0.72px;filter:url(#filter-5);}.cls-29{letter-spacing:-0.05em;}.cls-30{letter-spacing:-0.06em;}.cls-31{letter-spacing:-0.09em;}.cls-32{stroke-width:0.62px;filter:url(#filter-6);}.cls-33{letter-spacing:-0.08em;}.cls-34{letter-spacing:-0.07em;}.cls-35{letter-spacing:-0.06em;}.cls-36,.cls-40,.cls-44{stroke-width:0.64px;}.cls-36{filter:url(#filter-7);}.cls-37{letter-spacing:-0.07em;}.cls-38{letter-spacing:-0.07em;}.cls-40{filter:url(#filter-8);}.cls-41{letter-spacing:-0.04em;}.cls-42{letter-spacing:-0.03em;}.cls-43{letter-spacing:-0.13em;}.cls-44{filter:url(#filter-9);}.cls-45{letter-spacing:-0.07em;}.cls-47{letter-spacing:-0.06em;}.cls-48,.cls-50{stroke-width:0.89px;}.cls-48{filter:url(#filter-10);}.cls-50{filter:url(#filter-11);}</style><filter id="filter" x="569.66" y="273.8" width="44.16" height="21.6" filterUnits="userSpaceOnUse"><feOffset dy="0.69" input="SourceAlpha"/><feGaussianBlur stdDeviation="0.83" result="blur"/><feFlood flood-color="#8cadbf"/><feComposite operator="in" in2="blur"/><feComposite in="SourceGraphic"/></filter><filter id="filter-2" x="514.78" y="342.4" width="56.4" height="22.56" filterUnits="userSpaceOnUse"><feOffset dy="0.79" input="SourceAlpha"/><feGaussianBlur stdDeviation="0.94" result="blur-2"/><feFlood flood-color="#8cadbf"/><feComposite operator="in" in2="blur-2"/><feComposite in="SourceGraphic"/></filter><filter id="filter-3" x="523.22" y="289.65" width="64.32" height="23.04" filterUnits="userSpaceOnUse"><feOffset dy="0.84" input="SourceAlpha"/><feGaussianBlur stdDeviation="1.01" result="blur-3"/><feFlood flood-color="#8cadbf"/><feComposite operator="in" in2="blur-3"/><feComposite in="SourceGraphic"/></filter><filter id="filter-4" x="512.49" y="257.56" width="71.04" height="23.28" filterUnits="userSpaceOnUse"><feOffset dy="0.89" input="SourceAlpha"/><feGaussianBlur stdDeviation="1.06" result="blur-4"/><feFlood flood-color="#8cadbf"/><feComposite operator="in" in2="blur-4"/><feComposite in="SourceGraphic"/></filter><filter id="filter-5" x="450.97" y="289.88" width="74.64" height="23.52" filterUnits="userSpaceOnUse"><feOffset dy="0.91" input="SourceAlpha"/><feGaussianBlur stdDeviation="1.09" result="blur-5"/><feFlood flood-color="#8cadbf"/><feComposite operator="in" in2="blur-5"/><feComposite in="SourceGraphic"/></filter><filter id="filter-6" x="407.27" y="330.66" width="55.92" height="22.32" filterUnits="userSpaceOnUse"><feOffset dy="0.78" input="SourceAlpha"/><feGaussianBlur stdDeviation="0.94" result="blur-6"/><feFlood flood-color="#8cadbf"/><feComposite operator="in" in2="blur-6"/><feComposite in="SourceGraphic"/></filter><filter id="filter-7" x="399.76" y="296.03" width="58.56" height="22.56" filterUnits="userSpaceOnUse"><feOffset dy="0.8" input="SourceAlpha"/><feGaussianBlur stdDeviation="0.96" result="blur-7"/><feFlood flood-color="#8cadbf"/><feComposite operator="in" in2="blur-7"/><feComposite in="SourceGraphic"/></filter><filter id="filter-8" x="391.6" y="262.67" width="58.56" height="22.32" filterUnits="userSpaceOnUse"><feOffset dy="0.8" input="SourceAlpha"/><feGaussianBlur stdDeviation="0.96" result="blur-8"/><feFlood flood-color="#8cadbf"/><feComposite operator="in" in2="blur-8"/><feComposite in="SourceGraphic"/></filter><filter id="filter-9" x="445.6" y="244.43" width="58.56" height="22.56" filterUnits="userSpaceOnUse"><feOffset dy="0.8" input="SourceAlpha"/><feGaussianBlur stdDeviation="0.96" result="blur-9"/><feFlood flood-color="#8cadbf"/><feComposite operator="in" in2="blur-9"/><feComposite in="SourceGraphic"/></filter><filter id="filter-10" x="478.06" y="305.44" width="110.64" height="24.96" filterUnits="userSpaceOnUse"><feOffset dy="1.12" input="SourceAlpha"/><feGaussianBlur stdDeviation="1.34" result="blur-10"/><feFlood flood-color="#8cadbf"/><feComposite operator="in" in2="blur-10"/><feComposite in="SourceGraphic"/></filter><filter id="filter-11" x="478.06" y="305.44" width="110.64" height="24.96" filterUnits="userSpaceOnUse"><feOffset dy="1.12" input="SourceAlpha"/><feGaussianBlur stdDeviation="1.34" result="blur-11"/><feFlood flood-color="#8cadbf"/><feComposite operator="in" in2="blur-11"/><feComposite in="SourceGraphic"/></filter></defs><g id="Calles"><path class="cls-1" d="M396.33,466.58c6.19-10.89,12.23-21.87,18.27-32.84q11.85-21.56,23.6-43.16,11.28-20.7,22.5-41.42,11-20.27,21.93-40.56,17.17-31.83,33.31-64.19,2-4,3.94-7.93c.67-1.37-1.38-2.58-2.06-1.2q-16,32.41-33,64.29c-7.86,14.7-15.82,29.34-23.76,44Q450.07,363.79,439.08,384q-11.86,21.81-23.81,43.59c-6.37,11.6-12.75,23.19-19.25,34.72l-1.75,3.08a1.19,1.19,0,0,0,2.06,1.2Z"/><path class="cls-1" d="M397.58,420.73c7.42-12.13,14.46-24.5,21.51-36.85,8.12-14.24,16.19-28.51,24.38-42.72,4.06-7,8.16-14.07,12.35-21l-1.35.54c14.52,5.31,29.28,10.2,44.19,14.26a1.19,1.19,0,0,0,.63-2.3c-14.91-4.06-29.67-8.95-44.18-14.25a1.2,1.2,0,0,0-1.35.55c-7.82,13-15.34,26.2-22.85,39.38-8,14-15.93,28.06-24,42-3.72,6.43-7.48,12.85-11.36,19.2a1.19,1.19,0,0,0,2.05,1.2Z"/><path class="cls-1" d="M372,426.09c6-9.57,11.93-19.2,17.85-28.83q10.84-17.62,21.68-35.27,4.72-7.67,9.46-15.31c3.29-5.3,6.74-10.54,9.84-15.95a77.59,77.59,0,0,0,9.11-25.59c1.61-9.22,2.15-18.6,2.88-27.92,1.46-18.71,3.39-37.42,3.54-56.2,0-1.9,0-3.79,0-5.69a1.19,1.19,0,0,0-2.38,0c0,8.23-.05,16.49-.66,24.71-.74,9.85-1.54,19.69-2.31,29.53-.74,9.48-1.28,19-2.43,28.46-1.12,9.15-3.09,18.28-7.19,26.59-3.1,6.28-7,12.12-10.73,18.05q-4.49,7.21-8.93,14.44Q400.94,374.54,390.24,392,381,407.11,371.6,422.18l-1.7,2.71c-.82,1.3,1.24,2.5,2.05,1.2Z"/><path class="cls-1" d="M334.1,450.47c1.54-3.19,3.38-6.25,5.14-9.32,3.08-5.37,6.22-10.71,9.36-16q11.26-19.08,22.72-38,8.39-13.89,16.91-27.68c6.84-11,13.57-22.1,20.08-33.31a73.81,73.81,0,0,0,4.36-8.13c1-2.41,1.8-4.92,2.66-7.4a69.47,69.47,0,0,0,3.21-16c.57-5.88.67-11.8,1.52-17.64.88-6.08,2.24-12.08,3-18.18.82-6.61.93-13.32,1.51-20s1.24-13.13,1.76-19.71c.26-3.28.48-6.57.64-9.87.07-1.53-2.31-1.52-2.38,0-.64,13.35-2.37,26.6-3.2,39.93-.2,3.21-.31,6.42-.71,9.61s-.95,6.22-1.51,9.31a158.88,158.88,0,0,0-2.34,17.79A135.5,135.5,0,0,1,415,302.76a61.28,61.28,0,0,1-2.26,8,69,69,0,0,1-2.79,7.46c-1.32,2.81-3,5.46-4.56,8.14s-3.24,5.55-4.88,8.31q-4.9,8.22-9.92,16.37c-6.36,10.35-12.77,20.67-19.05,31.07q-11.3,18.69-22.43,37.45c-5.53,9.34-11.24,18.63-16.31,28.22-.26.49-.52,1-.76,1.49-.67,1.37,1.39,2.58,2.05,1.2Z"/><path class="cls-1" d="M335.6,416.44c5.78-10,11.32-20.13,16.89-30.24,6.77-12.26,13.5-24.55,20.3-36.8,2.65-4.77,5.3-9.53,8-14.27,3.67-6.45,7.59-12.76,11.06-19.32a92,92,0,0,0,8.49-22.07,160.54,160.54,0,0,0,3.14-22.58c.76-8.59,1.2-17.19,2.12-25.77,1.05-9.76,2.34-19.49,3.16-29.28q.33-3.87.56-7.74c.09-1.53-2.29-1.52-2.38,0-.59,9.93-1.75,19.81-2.89,29.69-1.07,9.23-1.84,18.45-2.51,27.72-.52,7.17-1.12,14.39-2.31,21.48a86.5,86.5,0,0,1-7.3,23.14c-3.51,7.3-7.82,14.19-11.86,21.19-2.5,4.33-4.94,8.7-7.38,13.07-6.66,12-13.24,24-19.84,35.95C347,391.27,341.14,402,335.1,412.52l-1.56,2.72a1.19,1.19,0,0,0,2.06,1.2Z"/><path class="cls-1" d="M330.64,386.85c9-15.46,17.19-31.35,25.47-47.19,4.16-8,8.31-15.9,12.56-23.8s9.5-15.95,11.88-24.85a100.62,100.62,0,0,0,2.55-16.64q.86-8.82,1.7-17.64c.14-1.53-2.24-1.52-2.38,0l-1.51,15.69a137.49,137.49,0,0,1-1.9,14.74c-1.92,9.33-6.89,17.31-11.36,25.58-8.54,15.79-16.69,31.79-25.12,47.64-4.52,8.49-9.11,16.95-13.95,25.27a1.19,1.19,0,0,0,2.06,1.2Z"/><path class="cls-1" d="M288.27,271.21l44.46,18.93c6.93,2.95,14,5.53,20.82,8.77,3.18,1.52,6.28,3.17,9.41,4.77q22.34,11.35,44.77,22.5,29.68,14.79,59.44,29.39,32.08,15.74,64.26,31.24,29.66,14.26,59.46,28.17l6.31,2.92c1.38.63,2.59-1.42,1.2-2.06q-29.08-13.41-57.94-27.32Q508.21,373,476.09,357.3q-30.31-14.85-60.55-29.89-23.54-11.7-47-23.56c-8-4-15.85-8.1-24.15-11.46-14.83-6-29.51-12.41-44.24-18.68l-10.7-4.55c-1.39-.6-2.61,1.45-1.2,2Z"/><path class="cls-1" d="M464.94,235.56a138.93,138.93,0,0,0-6.49,31.31c-1,10.27-1.27,20.59-1.86,30.88-.35,6.09-.82,12.16-1.58,18.22-.19,1.51,2.2,1.5,2.38,0,2.58-20.63,1.48-41.61,5.24-62.09a123.79,123.79,0,0,1,4.6-17.68c.5-1.46-1.8-2.08-2.29-.64Z"/><path class="cls-1" d="M465.77,237c7.88,1.53,15.5,5.06,22.76,8.35,8.87,4,17.57,8.38,26.11,13,3.53,1.92,7,3.88,10.44,6,1.31.81,2.5-1.25,1.2-2.06-6.94-4.33-14.24-8.14-21.55-11.84a291.94,291.94,0,0,0-26.66-12.12,69.3,69.3,0,0,0-11.67-3.67c-1.5-.29-2.14,2-.63,2.3Z"/><path class="cls-1" d="M424.11,236.82a64.83,64.83,0,0,1,10.49,4.44c5.33,2.6,10.57,5.37,15.8,8.16,11.57,6.17,23,12.57,34.61,18.66,4.48,2.35,9,4.74,13.65,6.67,1.41.59,2-1.72.63-2.29-3.88-1.61-7.82-3.69-11.62-5.67-5.49-2.86-10.93-5.82-16.37-8.77-11.32-6.14-22.58-12.42-34.12-18.13-4-2-8.12-4.15-12.44-5.37a1.19,1.19,0,0,0-.63,2.3Z"/><path class="cls-1" d="M472.93,300.18c1.05-5.37,2-10.75,2.56-16.2a72,72,0,0,1,1.45-9.19c.87-3.72,1.9-7.4,2.94-11.08a1.19,1.19,0,0,0-2.3-.63,137.08,137.08,0,0,0-3.87,15.72c-.49,3.13-.67,6.3-1.11,9.43-.54,3.8-1.23,7.56-2,11.32-.29,1.5,2,2.14,2.3.63Z"/><path class="cls-1" d="M504.14,228.15l6.74-40.39,2.64-15.82c.25-1.5-2-2.14-2.3-.63l-6.73,40.4-2.64,15.81c-.25,1.5,2,2.14,2.29.63Z"/><path class="cls-1" d="M467.28,235.88c2.92-23.14,9.77-45.52,16-67.94,1.77-6.41,3.49-12.84,5.07-19.31.36-1.48-1.94-2.12-2.3-.63-5.57,22.9-13,45.31-17.85,68.4-1.34,6.45-2.45,12.95-3.28,19.48-.19,1.52,2.2,1.5,2.39,0Z"/><path class="cls-1" d="M446.29,215.64c1.52-7.12,3.13-14.22,5.1-21.23,1.35-4.76,2.76-9.5,4-14.3s2.24-9.5,3.26-14.27c.32-1.49-2-2.13-2.3-.63-1.52,7.12-3.13,14.22-5.1,21.23-1.35,4.76-2.76,9.5-4,14.3S445,210.24,444,215c-.31,1.5,2,2.13,2.3.63Z"/><path class="cls-1" d="M580.76,214.73c.68-3.25,1.07-6.57,1.52-9.86.72-5.37,1.39-10.75,2.05-16.14q2-16.15,3.78-32.33c.26-2.36.53-4.73.79-7.1.17-1.52-2.21-1.5-2.38,0q-1.07,9.69-2.2,19.38c-1.31,11.32-2.63,22.65-4.13,34-.5,3.82-.94,7.68-1.73,11.46-.31,1.49,2,2.13,2.3.63Z"/><path class="cls-1" d="M377.43,154.17c26.49,8.57,53.48,15.61,80.66,21.63,13.28,2.95,26.63,5.63,40,8,12.44,2.16,24.93,3.85,37.43,5.51,15.64,2.07,31.3,4.21,47,5.57,1.53.13,1.52-2.25,0-2.38-14-1.21-27.91-3.05-41.82-4.89-12.6-1.66-25.2-3.27-37.73-5.38-27.13-4.55-54-10.5-80.66-17.46-14.87-3.88-29.67-8.12-44.3-12.85-1.46-.47-2.08,1.82-.63,2.29Z"/><path class="cls-1" d="M434.67,191c23.12,4.66,45.6,12.42,69.05,15.44,8,1,16.15,1.75,24.21,2.7q13.7,1.63,27.4,3.37c8.09,1,16.18,2.06,24.28,3.06,1.52.18,1.51-2.2,0-2.38-16.12-2-32.22-4.09-48.34-6-7.69-.92-15.37-1.83-23.08-2.59-11.58-1.15-23-3.72-34.27-6.49-12.86-3.17-25.63-6.76-38.62-9.37-1.49-.31-2.13,2-.63,2.29Z"/><path class="cls-1" d="M409.29,208.69A268.22,268.22,0,0,0,422.55,167c1-4.45,1.89-8.91,2.76-13.38.29-1.5-2-2.14-2.29-.63-2.8,14.36-6.15,28.52-11.13,42.31-1.55,4.28-3.2,8.52-4.9,12.75-.57,1.42,1.73,2,2.3.63Z"/><path class="cls-1" d="M354.8,212.28c-5-15.61-5.08-32.56-3.32-48.72.54-5,1.31-10,2.27-14.93.29-1.49-2-2.13-2.3-.63-3.28,17-4.61,34.75-1.94,51.95a85.76,85.76,0,0,0,3,13c.46,1.46,2.76.84,2.29-.63Z"/><path class="cls-1" d="M309.83,227.56a307.73,307.73,0,0,1-4.47-33,269.42,269.42,0,0,1-.95-35.14,114.6,114.6,0,0,1,1.78-16.53c.29-1.5-2-2.14-2.29-.63-2,10.55-2.25,21.46-2,32.17a334.46,334.46,0,0,0,2.79,35.91c.78,6,1.7,11.93,2.86,17.84.3,1.5,2.59.86,2.3-.64Z"/><path class="cls-1" d="M238.09,223.65c2.66-10.52,6.79-20.68,10.71-30.79,4.5-11.62,9.16-23.2,13.1-35a135.5,135.5,0,0,0,4.7-16.89c.3-1.5-2-2.14-2.29-.63-2.15,10.93-6.17,21.51-10.08,31.9-4.37,11.6-9.06,23.07-13.28,34.72-1.92,5.29-3.77,10.63-5.16,16.09a1.19,1.19,0,0,0,2.3.63Z"/><path class="cls-1" d="M426.79,209.78c6.55-14.15,14.25-27.81,18-43.06,1.27-5.2,2.21-10.47,3-15.76.23-1.5-2.06-2.14-2.3-.63a147.4,147.4,0,0,1-5.66,24.9,169.58,169.58,0,0,1-8.37,19.28c-2.27,4.68-4.53,9.35-6.71,14.06-.64,1.39,1.41,2.6,2.05,1.21Z"/><path class="cls-1" d="M446.31,151.79a548.71,548.71,0,0,0,58,11.31c20,2.9,40.09,5.09,60.17,7.28,11.79,1.29,23.57,2.57,35.35,4,1.52.18,1.5-2.21,0-2.39-20.57-2.45-41.19-4.53-61.76-6.91-19.68-2.28-39.32-4.86-58.8-8.47-10.84-2-21.61-4.34-32.28-7.09a1.19,1.19,0,0,0-.64,2.29Z"/><path class="cls-1" d="M246.41,143.11c3,1.62,6.44,2.41,9.73,3.35,3.53,1,7.08,2,10.62,3q10.59,2.9,21.23,5.65c14.22,3.72,28.46,7.32,42.66,11.11q12,3.18,23.85,6.59a1.19,1.19,0,0,0,.63-2.3c-28-8.07-56.36-14.84-84.48-22.46q-5.81-1.58-11.58-3.2c-3.81-1.08-7.94-1.89-11.46-3.77-1.35-.72-2.56,1.34-1.2,2.06Z"/><path class="cls-1" d="M176.45,188.32a47.14,47.14,0,0,0,9.27,3.23c2.78.81,5.56,1.62,8.33,2.45,3.5,1,7,2.1,10.45,3.22,4.8,1.54,9.57,3.18,14.39,4.67,5.65,1.74,11.33,3.4,17,5a1.19,1.19,0,0,0,.63-2.3c-8-2.31-16-4.63-23.95-7.25-5.24-1.73-10.47-3.45-15.76-5q-4.15-1.25-8.34-2.46c-3.61-1.06-7.49-1.83-10.83-3.61-1.35-.72-2.56,1.33-1.2,2Z"/><path class="cls-1" d="M575,224.55c5.76,3.89,12.6,6.46,19.17,8.63,7.85,2.6,16.2,4.66,24.52,4.73,4.92,0,9.84-.16,14.77-.08,5.22.08,10.43.25,15.64.6s10.52.8,15.79,1c5.51.27,11,.41,16.54.64q19.11.8,38.2,2c1.53.1,1.52-2.28,0-2.38q-16.79-1.06-33.59-1.8c-10.79-.48-21.58-.79-32.36-1.57-10.29-.74-20.63-1.21-31-.94a65.44,65.44,0,0,1-12.11-.61,95.34,95.34,0,0,1-12.46-2.89c-7.51-2.23-15.4-5-21.95-9.44-1.28-.86-2.47,1.2-1.2,2.06Z"/><path class="cls-1" d="M718.79,261.27c1.7-7.91,1.86-16,2.22-24.09l1.13-25.09.64-14.4c.07-1.53-2.31-1.53-2.38,0q-.71,15.88-1.42,31.79c-.47,10.34-.31,21-2.49,31.16-.32,1.49,2,2.13,2.3.63Z"/><path class="cls-1" d="M576.77,225.57a15.58,15.58,0,0,0-1.63,4.37c-.25,1.4-.28,2.83-.43,4.25a12.2,12.2,0,0,1-.33,2.26c0,.09-.21.52-.14.36-.12.28-.25.57-.39.85-.26.56-.54,1.11-.85,1.65-.11.2-.23.4-.35.59-.23.37,0,0,.08,0l.6-.16h0l.6.16h0l.43.43.1.23a1.19,1.19,0,0,0-2.3.63,1.27,1.27,0,0,0,2.14.53,5.9,5.9,0,0,0,.93-1.42,15.92,15.92,0,0,0,1.54-3.39,40,40,0,0,0,.62-5.68,13.34,13.34,0,0,1,1.47-4.44c.7-1.36-1.36-2.57-2.05-1.2Z"/><path class="cls-1" d="M596,232.57c-1,4.27-2.28,8.62-2.43,13-.05,1.53,2.33,1.53,2.38,0a35.61,35.61,0,0,1,1-6.25c.43-2.05.94-4.09,1.4-6.13.33-1.5-2-2.13-2.3-.64Z"/><path class="cls-1" d="M614.62,236.69,613,260c-.1,1.53,2.28,1.52,2.38,0l1.62-23.3c.1-1.53-2.28-1.52-2.38,0Z"/><path class="cls-1" d="M617,236.37c-3.52-11.05-9.06-21.49-11.72-32.82-.36-1.49-2.65-.86-2.3.63,2.67,11.33,8.21,21.77,11.73,32.82.46,1.46,2.76.84,2.29-.63Z"/><path class="cls-1" d="M659.49,179.67c0,11,1.28,22,1.15,33.05a1.19,1.19,0,0,0,2.38,0c.13-11-1.13-22-1.15-33.05a1.19,1.19,0,0,0-2.38,0Z"/><path class="cls-1" d="M647.29,237.59a80.69,80.69,0,0,1-2.45,20.59,93.23,93.23,0,0,1-5.48,14.35c-3.47,7.64-6.76,15.35-9.81,23.17q-2.24,5.74-4.28,11.56c-1.3,3.74-2.31,7.63-3.91,11.25-3.14,7.11-8.3,13.34-10.48,20.86a1.19,1.19,0,0,0,2.3.63c2-6.76,6.5-12.49,9.54-18.77a92.5,92.5,0,0,0,3.94-10.69q2-5.81,4.15-11.53c3.06-8,6.39-15.92,9.92-23.74a117.53,117.53,0,0,0,6-14.94,81.53,81.53,0,0,0,3-22.74,1.19,1.19,0,0,0-2.38,0Z"/><path class="cls-1" d="M633.32,347.19a494.33,494.33,0,0,0,21.14-46.47c3.21-8,6.3-16,9.36-24q2.22-5.81,4.42-11.61c.74-2,1.48-3.89,2.23-5.84a35.87,35.87,0,0,0,1.67-4.73c1.5-6.71-.17-13.67.9-20.4.23-1.5-2.06-2.15-2.3-.64-1,6,.07,12.17-.55,18.21-.35,3.38-1.85,6.48-3.05,9.63q-2.21,5.78-4.4,11.56c-6,15.83-12.14,31.63-19,47.12-3.88,8.77-8,17.44-12.48,25.92-.72,1.35,1.34,2.55,2.05,1.2Z"/><path class="cls-1" d="M655.75,351.67a452.69,452.69,0,0,0,20.34-44c6.25-15.24,12-30.68,17.16-46.34a60.53,60.53,0,0,0,2.83-13.25c.45-4.72.48-9.47.75-14.21.09-1.53-2.29-1.52-2.38,0-.48,8.31-.25,16.72-2.83,24.74-2.33,7.27-4.84,14.48-7.45,21.65-5.81,15.9-12.12,31.63-19.1,47.05-3.55,7.83-7.27,15.59-11.37,23.15-.73,1.35,1.32,2.56,2,1.21Z"/><path class="cls-1" d="M676.34,360.13c11.14-25.61,22.76-51,33.52-76.8q4.59-11,8.93-22.06c.56-1.43-1.74-2-2.3-.63-10.1,25.82-21.41,51.14-32.63,76.49Q679,348,674.28,358.93c-.6,1.39,1.45,2.6,2.06,1.2Z"/><path class="cls-1" d="M698.45,364.64c11.78-27.31,23.59-54.7,32.45-83.13a342.38,342.38,0,0,0,10.51-42.67c2.45-13.91,4.21-28.14,9.45-41.36,1.42-3.59,3.41-6.9,4.87-10.46,1.6-3.9,1-7.54.25-11.56a21.9,21.9,0,0,1,.93-11.4c1.3-3.81,3.23-7.38,4.89-11,.64-1.39-1.42-2.6-2-1.21-2.83,6.2-6.58,12.5-6.59,19.52,0,3.47,1.27,6.78,1.31,10.23,0,3.72-2.11,6.86-3.65,10.1-6.12,12.8-8.39,26.91-10.72,40.78A363.48,363.48,0,0,1,730.38,275c-4.22,14.28-9.24,28.31-14.67,42.17-6.09,15.55-12.7,30.89-19.31,46.23-.6,1.39,1.45,2.61,2.05,1.2Z"/><path class="cls-1" d="M523,284.81a509.23,509.23,0,0,0,53,18.92c18.06,5.45,36.33,10.18,54.62,14.8q28.5,7.2,57,14.33c18.91,4.75,37.77,10,57,13.54s38.63,4.06,58.11,4.6c2.45.07,4.9.14,7.35.23,1.53,0,1.53-2.33,0-2.38-19.44-.68-39-.59-58.23-3.62S713.93,337,695.17,332.3L638.36,318c-18.21-4.58-36.41-9.2-54.44-14.44a548.18,548.18,0,0,1-52.95-18c-2.26-.92-4.5-1.85-6.74-2.8-1.4-.6-2.61,1.45-1.2,2.05Z"/><path class="cls-1" d="M535.39,273.05l-4.8-2.76-.91,2.17,86.53,17.94,86.53,17.94c16,3.31,31.93,6.75,48,9.77,1.49.28,2.13-2,.63-2.3-14.4-2.71-28.73-5.78-43.08-8.75l-43-8.92L578.71,280.2l-48.4-10a1.19,1.19,0,0,0-.92,2.17l4.8,2.77a1.19,1.19,0,0,0,1.2-2.06Z"/><path class="cls-1" d="M727,286.55a6.21,6.21,0,0,0,2.75,3.17,26.75,26.75,0,0,0,5.15,2.6,28.43,28.43,0,0,0,5,1.57,48.58,48.58,0,0,0,7,.43c12.93.6,25.84,1.83,38.65,3.71q10.89,1.61,21.69,3.81c1.5.31,2.14-2,.64-2.29q-18.15-3.71-36.58-5.72-9.26-1-18.54-1.57c-3.09-.19-6.19-.35-9.29-.46a19.09,19.09,0,0,1-5-.72,32.68,32.68,0,0,1-5.7-2.3c-1.1-.59-3.17-1.52-3.54-2.86a1.19,1.19,0,0,0-2.29.63Z"/><path class="cls-1" d="M765.57,364.76c4.19-17.27,8.73-34.45,13.44-51.59,4.82-17.52,9.82-35,14.86-52.46q4.13-14.25,8.27-28.5a1.19,1.19,0,0,0-2.29-.64c-5,17.07-9.93,34.14-14.8,51.23-5,17.48-9.86,35-14.48,52.56q-3.78,14.36-7.3,28.77a1.19,1.19,0,0,0,2.3.63Z"/><path class="cls-1" d="M758.31,182.25c15.25,3.21,30.39,6.73,45.76,9.32,1.5.25,2.15-2,.64-2.3-15.37-2.59-30.52-6.11-45.77-9.31-1.49-.32-2.13,2-.63,2.29Z"/><path class="cls-1" d="M658.15,172l1.38,8,2.3-.64q-4.19-22.93-7.12-46.07c-.19-1.5-2.57-1.52-2.38,0q3,23.44,7.2,46.71c.28,1.51,2.56.86,2.3-.64l-1.38-8c-.26-1.51-2.56-.87-2.3.63Z"/><path class="cls-1" d="M692.73,142.59a34.87,34.87,0,0,1,0,4.57l-.08,4.47-.17,9.43-.32,18.61a1.19,1.19,0,0,0,2.38,0l.33-18.61.16-9.19.07-4.46a35.26,35.26,0,0,0,0-4.82c-.18-1.5-2.56-1.52-2.38,0Z"/><path class="cls-1" d="M659.84,163.14l8.35-4.44c2.41-1.29,5.12-2.43,7.1-4.37,3.6-3.55,3.41-9.05,3-13.71-.13-1.51-2.51-1.53-2.38,0,.37,4.23.77,9.47-2.83,12.49-1.93,1.62-4.45,2.65-6.66,3.83l-7.79,4.15c-1.36.72-.16,2.77,1.2,2Z"/><path class="cls-1" d="M264.94,414.15c6.83-11.77,13.89-23.4,20.88-35.07q13.67-22.81,27.32-45.64c2.79-4.67,5.58-9.33,8.31-14,4.94-8.49,10.26-16.75,15.42-25.1,5.65-9.14,11.3-18.35,16-28.05a64.54,64.54,0,0,0,4.49-11.44,42.94,42.94,0,0,0,1-6.38c.32-3.07.63-6.13.91-9.2.54-5.83.84-11.64,1.14-17.48,0-.56.07-1.13.12-1.69,0-.1.08-.59,0-.18,0-.14,0-.29.07-.43.05-.32.11-.63.17-.94.4-2,.95-3.9,1.48-5.84l1.32-4.86a1.19,1.19,0,0,0-2.29-.64c-1.14,4.18-2.62,8.43-3.13,12.75-.46,3.9-.38,7.9-.66,11.82-.39,5.42-.92,10.83-1.49,16.23a40.75,40.75,0,0,1-1,6.31,45.14,45.14,0,0,1-1.77,5.22c-3.74,9.42-9.09,18.24-14.31,26.88-5.53,9.17-11.35,18.17-16.88,27.34-2.87,4.77-5.66,9.61-8.51,14.4q-13.17,22.15-26.46,44.23c-7.64,12.76-15.32,25.49-22.86,38.31l-1.32,2.27a1.19,1.19,0,0,0,2.05,1.21Z"/><path class="cls-1" d="M261.44,386.85c1.59-3.5,3.56-6.84,5.49-10.16,2.76-4.76,5.62-9.46,8.47-14.17,6.09-10,12.3-20,17.94-30.33a78.19,78.19,0,0,0,5.75-12l-2.3-.64a1.45,1.45,0,0,0-.06.41,1.16,1.16,0,0,0,.59,1h0a1.18,1.18,0,0,0,1.44-.18c1.57-1.89-.54-4.79-2-6-2.06-1.67-4.74-2.7-7.11-3.86-5.8-2.82-11.62-5.6-17.43-8.4-1.78-.85-3.58-1.69-5.34-2.58-1.37-.69-2.58,1.36-1.21,2.05,8.76,4.43,17.73,8.46,26.52,12.83a10.91,10.91,0,0,1,4,2.72,3.21,3.21,0,0,1,.64,1.33c0,.16.12.57,0,.38.1.21-.59.77.21-.2l1.44-.18h0l.59,1c-.06.28-.06.36,0,.23.45-1.48-1.81-2.08-2.3-.64A68.16,68.16,0,0,1,292,329.77c-2.59,4.79-5.34,9.49-8.12,14.18-6,10-12.15,19.94-18.06,30a126,126,0,0,0-6.39,11.69c-.63,1.38,1.42,2.59,2.06,1.2Z"/><path class="cls-1" d="M284.37,310c2.07-3.61,4.92-6.68,7.44-10a40.83,40.83,0,0,0,4.82-8.73c1.47-3.4,2.85-6.84,4.19-10.29.61-1.54,1.13-3.15,1.89-4.62.53-1,1.28-1.92,1.85-2.93a36.55,36.55,0,0,0,3.13-9.59,75.29,75.29,0,0,0,1.44-11.09c.58-8.29.65-16.61.74-24.91a1.19,1.19,0,0,0-2.38,0c-.08,7.59-.17,15.2-.61,22.78a84.77,84.77,0,0,1-1.27,11.57,57.77,57.77,0,0,1-2.36,8.34,14.15,14.15,0,0,1-1.77,3.24,19.92,19.92,0,0,0-2,4.21c-1.26,3.24-2.52,6.48-3.86,9.69a49.65,49.65,0,0,1-4.95,10c-2.71,3.77-6,7.1-8.33,11.14a1.2,1.2,0,0,0,2.06,1.21Z"/><path class="cls-1" d="M229.91,325.66,247,294.3c1.34-2.45,2.78-4.88,3.89-7.45a22.77,22.77,0,0,0,1.79-7.7c.38-5.84.07-11.79-.11-17.63q-.3-10.21-1.07-20.39c-.11-1.52-2.49-1.53-2.38,0,.86,11.64,1.36,23.32,1.27,35a26.3,26.3,0,0,1-1,8.14,48.22,48.22,0,0,1-3.7,7.53L237.36,307l-9.5,17.42c-.74,1.35,1.32,2.55,2,1.2Z"/><path class="cls-1" d="M216.18,315.31a232.17,232.17,0,0,1,10.13-22c3.8-7.1,8.06-13.94,12.46-20.68l-1.34.54a157.35,157.35,0,0,0,23.41,8.13c4.49,1.09,9.12,1.5,13.65,2.44a1.19,1.19,0,0,0,1.15-.31,50.06,50.06,0,0,0,5.85-8.78c1.44-2.51,2.91-5,4.39-7.5a1.2,1.2,0,0,0-1-1.79c.55.06-.37-.17-.54-.23-.47-.16-.93-.34-1.38-.51-1.25-.48-2.48-1-3.69-1.54a26.17,26.17,0,0,1-3.53-1.82c-1.24-.81-2.4-1.71-3.72-2.41a15.08,15.08,0,0,0-4.87-1.64,31.26,31.26,0,0,0-5.21.05c-3.13.06-6.24-.5-9.36-.44a1.19,1.19,0,0,0,0,2.38c3.07-.06,6.13.48,9.2.45,1.85,0,3.64-.38,5.49,0a14,14,0,0,1,4.71,1.95c1.14.7,2.17,1.55,3.33,2.2s2.47,1.24,3.73,1.79c1.79.77,3.87,1.94,5.84,2.17l-1-1.79q-2.16,3.61-4.25,7.26a49.39,49.39,0,0,1-5.62,8.54l1.16-.31c-4.53-.94-9.15-1.35-13.65-2.44a158.1,158.1,0,0,1-23.41-8.12,1.2,1.2,0,0,0-1.35.55c-4.46,6.84-8.79,13.78-12.63,21a235.48,235.48,0,0,0-10.19,22.21c-.58,1.42,1.72,2,2.29.63Z"/><path class="cls-1" d="M205.58,312.64A177.53,177.53,0,0,0,211.14,294a74.49,74.49,0,0,1,2.57-8.09c1.14-2.9,2.57-5.65,3.62-8.6,2.23-6.29,3.54-12.86,5-19.36a106.22,106.22,0,0,1,6.11-19c2.28-5.16,5-11,9.3-14.79,1.15-1-.54-2.7-1.68-1.69-3.76,3.33-6.29,8.14-8.44,12.6a98.65,98.65,0,0,0-6.83,19c-1.62,6.54-2.84,13.18-4.83,19.63-1.82,5.89-4.78,11.3-6.49,17.23-2,7.05-3.56,14.19-6.23,21.05-.56,1.43,1.75,2.05,2.3.63Z"/><path class="cls-1" d="M854.42,265.59a1.19,1.19,0,0,0,0-2.38,1.19,1.19,0,0,0,0,2.38Z"/><path class="cls-1" d="M802.14,232.21l15.22-38.59c.56-1.42-1.74-2-2.29-.63l-15.22,38.58c-.57,1.43,1.74,2.05,2.29.64Z"/><path class="cls-1" d="M776,218.84a161,161,0,0,0,11.81-30.61,1.19,1.19,0,0,0-2.29-.64,157.42,157.42,0,0,1-11.58,30c-.69,1.37,1.36,2.57,2.06,1.21Z"/><path class="cls-1" d="M498.66,334.93c15.15,5.12,30.3,10.26,45.48,15.3s30.18,9.92,45.35,14.62,30.51,9.21,45.89,13.37,30.7,7.95,46.19,11.3,31.36,6.3,47.17,8.64l5.93.84c1.5.21,2.15-2.08.64-2.29q-23.77-3.3-47.29-8.25c-15.52-3.24-30.94-6.94-46.27-11S611,369,595.81,364.3s-30.3-9.51-45.38-14.49S520.1,339.67,505,334.54l-5.66-1.91c-1.45-.49-2.08,1.81-.63,2.3Z"/><path class="cls-1" d="M494.89,355.3c14.42,5.5,28.89,10.87,43.49,15.89,15.27,5.24,30.69,10.17,46.36,14.08,3.54.89,7.1,1.72,10.67,2.46a109.83,109.83,0,0,1,11.88,2.86c8.69,2.86,16.69,7.4,24.63,11.86,8.15,4.58,16.21,9.31,24.32,13.95,7.71,4.42,15.57,8.56,23,13.44,12.47,8.18,23.72,18.05,36.53,25.73q2.78,1.65,5.59,3.19c1.34.74,2.55-1.31,1.2-2.05a180.39,180.39,0,0,1-20-12.9c-5.77-4.23-11.4-8.67-17.27-12.77-7.14-5-14.66-9.26-22.25-13.54-8-4.53-16-9.21-24-13.79s-16-9.28-24.41-12.89a72.55,72.55,0,0,0-12.76-4.22c-3.57-.8-7.17-1.44-10.74-2.26-15.59-3.58-30.91-8.33-46.07-13.42-15-5-29.76-10.44-44.5-16l-5-1.88c-1.43-.55-2,1.75-.63,2.29Z"/><path class="cls-1" d="M447.29,371.3c7,3.07,14.27,5.44,21.43,8,9.52,3.39,19.06,6.71,28.59,10,3.26,1.14,6.53,2.27,9.78,3.45,1.44.52,2.06-1.78.63-2.3-7.07-2.56-14.2-5-21.29-7.48-9.5-3.33-19-6.65-28.45-10.12-3.11-1.14-6.73-2.43-9.48-3.65-1.39-.61-2.61,1.44-1.21,2.06Z"/><path class="cls-1" d="M539.38,425.71c9.28,4.3,18.85,8,28.27,12,12.14,5.14,24,10.75,36,16.36a272.55,272.55,0,0,1,30.14,16c1.29.82,2.49-1.24,1.2-2.06a254.27,254.27,0,0,0-26.55-14.34q-12.5-6-25.06-11.79c-9.64-4.5-19.58-8.42-29.39-12.56-4.46-1.88-9-3.7-13.36-5.74-1.38-.64-2.59,1.41-1.2,2.06Z"/><path class="cls-1" d="M429.11,404.71q25.62,12.78,51.64,24.74c14.06,6.43,28.17,12.75,42.14,19.37q16.17,7.65,32.15,15.67c1.37.68,2.58-1.38,1.2-2.06q-25.62-12.8-51.64-24.74c-14.06-6.43-28.17-12.75-42.14-19.37q-16.17-7.65-32.15-15.67c-1.37-.68-2.58,1.37-1.2,2.06Z"/><path class="cls-1" d="M467.89,469.16q2.16-4.16,4.35-8.31,5.88-11.22,11.81-22.41,8.71-16.47,17.53-32.9,10.56-19.68,21.24-39.28,11.5-21.06,23.2-42c1-1.77,2-3.52,3-5.28.75-1.34-1.31-2.54-2.06-1.21q-11.77,21-23.31,42.08Q512.74,379.73,502,399.68q-9.11,16.95-18.11,33.94-6.33,11.94-12.62,23.91c-1.79,3.41-3.8,6.78-5.38,10.29l-.07.14c-.71,1.36,1.34,2.57,2.05,1.2Z"/><path class="cls-1" d="M525.66,308q-6.36,15.09-13.43,29.9c-.66,1.37,1.39,2.58,2,1.2Q521.47,324,528,308.65c.59-1.41-1.71-2-2.3-.63Z"/><path class="cls-1" d="M504.77,488.07q8.52-14.42,16.86-28.93,11.08-19.23,22.07-38.5,11.91-20.89,23.68-41.84,10.61-18.9,21.06-37.9c5-9.18,10-18.38,14.79-27.72.4-.77.79-1.55,1.18-2.33.68-1.37-1.38-2.57-2.06-1.2-4.36,8.77-9.06,17.38-13.75,26q-10.12,18.56-20.49,37-11.72,20.91-23.58,41.75Q533.36,434,522.07,453.61q-8.8,15.27-17.72,30.49c-.54.93-1.09,1.85-1.63,2.77a1.19,1.19,0,0,0,2,1.2Z"/><path class="cls-1" d="M568,475.21c3-6.28,6.32-12.41,9.58-18.55q7.9-14.93,15.89-29.82,8.87-16.62,17.63-33.29c5-9.59,10-19.2,14.78-28.91,1.69-3.44,3.35-6.89,4.9-10.4a43.79,43.79,0,0,0,2.54-6.52,11.26,11.26,0,0,0,.22-1.13c.2-1.52-2.19-1.5-2.38,0,.06-.51,0,0,0,.1s-.08.35-.13.52c-.11.41-.24.81-.38,1.21-.36,1-.88,2.28-1.21,3.07-1.38,3.24-2.9,6.43-4.43,9.6-4.55,9.4-9.36,18.68-14.19,27.93q-8.61,16.53-17.41,33-8.13,15.24-16.26,30.49c-3.55,6.67-7.14,13.33-10.48,20.11l-.69,1.43c-.65,1.37,1.4,2.58,2.06,1.2Z"/><path class="cls-1" d="M602.6,408.68q16.13,8.65,32.14,17.5c10.89,6,21.78,12,32.7,17.94q12.94,7,25.92,14c1.35.72,2.56-1.33,1.2-2.06Q673.74,444.9,653,433.54c-10-5.51-20-11.06-30.1-16.55q-9.54-5.22-19.14-10.36c-1.35-.73-2.55,1.33-1.2,2.05Z"/><path class="cls-1" d="M650.13,466c5.43-9.75,10.73-19.58,16-29.42,6.93-13,13.84-25.94,20.28-39.15a116.93,116.93,0,0,0,6.22-14c.49-1.46-1.81-2.09-2.3-.64a102.27,102.27,0,0,1-5.17,11.81c-2.95,6.11-6,12.15-9.15,18.17-6.72,13-13.63,25.87-20.62,38.72-2.42,4.45-4.85,8.91-7.32,13.34-.74,1.34,1.31,2.54,2.06,1.2Z"/><path class="cls-1" d="M325,436.28v-.52a1.19,1.19,0,0,0-2.38,0v.52a1.19,1.19,0,0,0,2.38,0v-.52a1.19,1.19,0,0,0-2.38,0v.52a1.19,1.19,0,0,0,2.38,0Z"/><path class="cls-1" d="M147.82,312.37a96.26,96.26,0,0,0,9-38.36c.11-4.63-.3-9.22-.49-13.84a73.55,73.55,0,0,1,1.13-16.23c.27-1.5-2-2.14-2.3-.63a75.78,75.78,0,0,0-1.27,13.94c0,4.53.52,9,.57,13.56A93.47,93.47,0,0,1,151,296.9a92.42,92.42,0,0,1-5.26,14.27c-.64,1.38,1.41,2.59,2.06,1.2Z"/><path class="cls-1" d="M236.75,352q34.54,20,70.36,37.71,35.36,17.47,71.7,32.79,20.69,8.76,41.61,16.93c1.42.56,2-1.74.63-2.29-24.7-9.68-49.17-19.9-73.33-30.84Q311.92,390,277.15,371.65q-19.8-10.51-39.2-21.75a1.19,1.19,0,0,0-1.2,2.06Z"/><path class="cls-1" d="M429.38,444.86l.75.74a.87.87,0,0,0,.38.25,1.11,1.11,0,0,0,.92,0,.87.87,0,0,0,.38-.25l.19-.24a1.12,1.12,0,0,0,.16-.6l0-.32a1.21,1.21,0,0,0-.31-.52l-.74-.75a.88.88,0,0,0-.39-.24.9.9,0,0,0-.46-.11,1,1,0,0,0-.46.11.91.91,0,0,0-.38.24l-.18.24a1.19,1.19,0,0,0-.17.6l.05.32a1.13,1.13,0,0,0,.3.53Z"/><path class="cls-1" d="M129.81,300.68a86.85,86.85,0,0,1,2.13-18.74c.27-1.18.9-2.6.64-3.82a1.68,1.68,0,0,0-2.14-1.37c-2,.77-.4,4.12,1.38,2.52,1.14-1-.55-2.71-1.69-1.68l-.1.08.85-.35h-.08l1,.59c-1,0-1.55.34-1.62,1-.05.21-.11.42-.16.64l-.36,1.5c-.2.86-.38,1.73-.55,2.59-.37,1.84-.67,3.69-.92,5.55a91.39,91.39,0,0,0-.79,11.45,1.19,1.19,0,0,0,2.38,0Z"/><path class="cls-1" d="M129.42,287.48a62.56,62.56,0,0,1,9.08.22c5,.35,10,.88,15,1.52a253.49,253.49,0,0,1,36.73,7.24A98.55,98.55,0,0,1,208,303.09c1.36.69,2.57-1.36,1.2-2.06-10.69-5.44-22.7-8.35-34.4-10.71a290.3,290.3,0,0,0-34.49-4.87,72,72,0,0,0-10.89-.35c-1.52.12-1.53,2.5,0,2.38Z"/><path class="cls-1" d="M202.44,223.45c2.12-.4,4.23.66,6.19,1.34a10,10,0,0,0,6.36.48c4.65-1.41,6.94-5.93,8.78-10,.61-1.39-1.44-2.6-2.06-1.2-1.63,3.65-3.77,8.52-8.28,9.17-2,.27-3.89-.6-5.69-1.25a11,11,0,0,0-5.94-.79c-1.5.29-.86,2.58.64,2.29Z"/><path class="cls-1" d="M202.31,204.1l7.75-23.23L212,175a40.88,40.88,0,0,1,1.87-5.32c1.49-3,5-3.61,7.93-4.14,1.51-.26.87-2.56-.63-2.29-3.09.54-6.5,1.3-8.53,3.93A15.61,15.61,0,0,0,210.5,172l-2.12,6.33L200,203.47c-.49,1.45,1.81,2.08,2.29.63Z"/><path class="cls-1" d="M190.83,287.69c.29-1.86-1.83-2.3-3.21-2.74-2.56-.82-4.93-2.52-7.27-3.83l.55,1.35a34.2,34.2,0,0,1,3.3-6.77,24.89,24.89,0,0,1,2.19-3c1-1.19,2.14-1.07,3.56-.66a51.67,51.67,0,0,0,16,2.28,1.2,1.2,0,0,0,0-2.39,45.16,45.16,0,0,1-9.64-.73c-1.48-.28-3-.64-4.4-1.06a11.42,11.42,0,0,0-4.07-.79c-2.6.2-4.13,2.85-5.42,4.82a37,37,0,0,0-3.78,7.71,1.19,1.19,0,0,0,.55,1.34c2.06,1.15,4.11,2.46,6.24,3.48a15,15,0,0,0,1.74.63c.35.11.71.21,1.06.34a1.8,1.8,0,0,1,.38.16c.38.26.37,0,0-.73-.23,1.5,2.06,2.15,2.29.63Z"/></g><g id="Parques"><path class="cls-2" d="M184.67,333l8.25.08a49.21,49.21,0,0,1,24.86,5.46l17,8.81-6.4,12.6,15.29,9.51L231.9,393.6l3.31,3.31-5.37,19.42,6.4,3.92-4.54,9.3L165.18,400Z"/><polygon class="cls-2" points="206.87 435.63 213.69 424.26 233.11 433.77 226.7 445.75 206.87 435.63"/><path class="cls-2" d="M544,446.18s8.82-14.05,9.37-14.19,17.08,8,17.08,8l-7.58,14.6Z"/><path class="cls-2" d="M451.19,368.75l8.89-15.91L472,358.52s-6.61,14.77-6.81,15.29S451.19,368.75,451.19,368.75Z"/><polygon class="cls-2" points="258.56 275.55 258.56 292.56 275.71 296.56 283.83 281.34 273.99 276.31 258.56 275.55"/><path class="cls-2" d="M738.07,171.17s5.23,9.43,5.92,14.25l9-3.16,3.65,3.65,1.58-2.9-6-7.5-5.37.07s-1.86-3.31-3.79-4.41-3.65-1.86-3.65-1.86Z"/><polygon class="cls-2" points="680.99 494.06 691 477.33 699.78 483.01 690.38 498.4 680.99 494.06"/></g><g id="Avenidas"><path class="cls-3" d="M725.08,203.57c-13.41-4.31-26.49-10-40.39-12.54-13.63-2.53-27.54-.15-40.3,5-13.32,5.34-25.32,13.31-37.16,21.3-6.12,4.14-12.23,8.3-18.5,12.21a175.07,175.07,0,0,1-18.35,9.64c-6.3,3-12.6,6.12-18,10.62-5.88,4.94-10.29,11.69-14.16,18.24-4.17,7.05-7.93,14.34-12,21.47q-6.3,11.14-12.52,22.32-21.37,38.46-41.65,77.5c-11.79,22.66-23.32,45.46-34.93,68.22q-2.15,4.22-4.3,8.43c-1.09,2.15,2.14,4.05,3.24,1.9,11.46-22.44,22.82-44.93,34.38-67.31Q489.9,363,510.2,326c8.09-14.69,16.51-29.2,24.53-43.92,3.77-6.92,7.43-13.93,12-20.33a51.85,51.85,0,0,1,7.32-8.47,48.86,48.86,0,0,1,8.16-5.76c6.11-3.54,12.66-6.22,19-9.39a177.7,177.7,0,0,0,18.16-11c11.8-7.83,23.33-16.2,35.91-22.78,12.22-6.39,25.88-11,39.83-10.65,6.68.17,13.29,1.81,19.67,3.66,6.86,2,13.58,4.41,20.31,6.78,3,1,6,2.1,9,3.07,2.3.74,3.28-2.88,1-3.62Z"/><path class="cls-3" d="M677.08,193.78c12.08-.78,23.94-4.55,34.89-9.55a101.53,101.53,0,0,0,15.73-8.83c5.35-3.7,10.12-8.16,15-12.48,6.38-5.69,12.69-11.45,19-17.17,1.8-1.62-.86-4.26-2.65-2.65-5.52,5-11,10-16.55,14.93-4.87,4.37-9.66,9-14.94,12.88a105.78,105.78,0,0,1-31.92,15.52,83.35,83.35,0,0,1-18.57,3.6c-2.39.15-2.41,3.9,0,3.75Z"/><path class="cls-3" d="M552.63,253.19c3.09-22.91,2.87-46.1,5.84-69,1-7.82,2.38-15.6,4-23.32.49-2.35-3.12-3.36-3.62-1a321.52,321.52,0,0,0-5.74,39.43c-.94,11.19-1.36,22.4-2.17,33.6-.47,6.45-1.07,12.89-1.93,19.3a1.94,1.94,0,0,0,1.31,2.31,1.88,1.88,0,0,0,2.3-1.31Z"/><path class="cls-3" d="M546,159.58c17.44,3.17,34.87,6.73,52.47,8.89a92,92,0,0,0,9.37.78c2.42,0,2.42-3.71,0-3.75a137.53,137.53,0,0,1-18.65-2.1c-8.87-1.38-17.7-3-26.53-4.58L547,156c-2.35-.43-3.37,3.19-1,3.62Z"/><path class="cls-3" d="M550.83,250.81c-21,.93-41.74-4.09-61.83-9.79-21.1-6-42-13-63.62-16.84a166.17,166.17,0,0,0-32.64-2.83,130.75,130.75,0,0,0-33,5.28c-20.74,5.89-40.47,14.81-61.75,18.8-17.43,3.27-35,6.16-52.46,9l-9.35,1.5c-2.37.38-1.37,4,1,3.62,19.32-3.09,38.63-6.27,57.88-9.78a209.12,209.12,0,0,0,24.92-6c10.88-3.39,21.53-7.48,32.37-11s21.67-6.39,32.92-7.33a144.52,144.52,0,0,1,32.59,1.26c21.76,3.14,42.77,9.92,63.82,16.06,20.1,5.87,40.72,11.48,61.8,11.86,2.46.05,4.91,0,7.37-.1s2.41-3.85,0-3.75Z"/><path class="cls-3" d="M222.07,260.65q11.19-37,21.48-74.18,2.32-8.46,4.6-16.94c.62-2.33-3-3.32-3.62-1q-9.1,33.93-19.06,67.63-3.47,11.75-7,23.48c-.7,2.32,2.92,3.31,3.62,1Z"/><path class="cls-3" d="M382.72,221.22c.22-7.41-1.11-14.77-.91-22.18.11-4.15,1.11-8.18,1.95-12.22q1.41-6.85,3-13.67,1.71-7.47,3.59-14.88c.59-2.34-3-3.34-3.62-1q-3.42,13.5-6.26,27.13a95,95,0,0,0-2.3,12.85,86,86,0,0,0,.26,11.68c.28,4.08.69,8.19.57,12.29-.07,2.41,3.68,2.41,3.75,0Z"/><path class="cls-3" d="M571.35,501.24q-49-23.6-98.08-46.94-49.62-23.6-99.33-47-49.33-23.2-98.74-46.22c-7.37-3.43-14.73-6.81-21.8-10.85-6.34-3.62-12.48-7.56-18.76-11.28-11.9-7.07-24.44-13-38.41-14.1-12.37-1-24.58,2.06-36.42,5.31-12.52,3.43-24.84,7.53-37.22,11.4-2.35.73-4.7,1.45-7,2.13s-1.33,4.29,1,3.62c11.47-3.33,22.77-7.21,34.21-10.64s23.56-7.24,35.64-8.15c14.11-1.05,27.45,3.21,39.72,9.87C239,345.43,251,354,264.4,360.2q48.69,22.69,97.32,45.5,49.33,23.19,98.56,46.56,48.68,23.13,97.24,46.47l11.94,5.75c2.16,1,4.07-2.19,1.89-3.24Z"/><path class="cls-3" d="M178.29,341.1c.69-2.35,1.17-4.75,1.89-7.09a18.57,18.57,0,0,1,1.29-3.29,5.3,5.3,0,0,1,.67-1c.26-.29.06-.07.26-.23-.12.1-.42.11-.13.08,2.37-.23,4.74-.74,7.09-1.09a21.36,21.36,0,0,0,8-2.58c4.95-3,7.63-8.21,9.66-13.42a204.61,204.61,0,0,0,7.1-23.35c2.45-9.54,4.74-19.13,7.94-28.46.78-2.29-2.84-3.27-3.62-1-5.58,16.27-8.37,33.35-14.19,49.54-1.76,4.89-3.93,10.4-8.54,13.3-4.41,2.77-9.67,2.19-14.52,3.46-2.44.64-3.58,3.95-4.3,6-.91,2.66-1.43,5.42-2.23,8.11-.69,2.32,2.93,3.31,3.62,1Z"/><path class="cls-3" d="M291.92,267.5c31.37,1.7,62.75,3.11,94.12,4.75,7.94.41,16,.61,23.86,1.58a71.44,71.44,0,0,1,23.31,7.27c7.12,3.55,13.93,7.71,20.9,11.55q10.84,6,21.95,11.46c29.76,14.79,60.6,27.28,91.68,39,30.61,11.49,61.32,23.2,92.91,31.73,13.55,3.65,27.18,7.22,41,9.82,16.61,3.14,33.34,5.56,50.13,7.5q6.39.75,12.77,1.39c2.4.25,2.38-3.5,0-3.75-17.12-1.76-34.2-3.93-51.17-6.82-7.71-1.32-15.46-2.63-23.06-4.44-6.17-1.46-12.3-3.11-18.45-4.66-31.77-8-62.44-19.32-93.14-30.68-31.4-11.61-62.61-23.89-92.81-38.4-14.78-7.1-29.09-15-43.39-22.95-6.7-3.74-13.62-7.29-21-9.46-7.89-2.31-16.15-2.81-24.32-3.26-31.37-1.71-62.77-3.11-94.15-4.75l-11.11-.59c-2.41-.13-2.4,3.62,0,3.75Z"/><path class="cls-3" d="M295.9,268.24c-.71,2.54-1.2,5.14-1.94,7.67a22.7,22.7,0,0,1-3.22,6.64c-1.39,2-1.88,4.41-2.62,6.69-.86,2.64-2.81,4.49-4.45,6.68-3.89,5.18-7.17,10.79-10.59,16.28l-10.77,17.34c-3.8,6.1-7.59,12.21-10.2,18.94a1.89,1.89,0,0,0,1.31,2.3,1.92,1.92,0,0,0,2.31-1.31c2.28-5.88,5.61-11.28,8.93-16.62l10.87-17.49c3.44-5.52,6.74-11.16,10.55-16.43,1.69-2.33,3.94-4.39,5.05-7.07.87-2.09,1.17-4.45,2.24-6.45.71-1.33,1.69-2.5,2.38-3.86a26.8,26.8,0,0,0,1.53-3.67c.92-2.83,1.44-5.78,2.23-8.64.65-2.33-3-3.32-3.61-1Z"/></g><g id="Gastronomía"><rect class="cls-4" x="572.53" y="275.91" width="38.26" height="15.74" rx="7.87"/><circle id="Elipse_37" data-name="Elipse 37" class="cls-5" cx="580.4" cy="283.78" r="7.87"/><circle id="Elipse_37-2" data-name="Elipse 37" class="cls-6" cx="580.4" cy="283.78" r="3.46"/><text class="cls-7" transform="translate(592.34 282.72)">1688<tspan class="cls-8"><tspan x="0" y="4.35">R</tspan><tspan class="cls-9" x="2.03" y="4.35">es</tspan><tspan class="cls-10" x="5.29" y="4.35">t</tspan><tspan class="cls-11" x="6.41" y="4.35">o</tspan></tspan></text><rect class="cls-12" x="517.96" y="344.97" width="49.96" height="15.74" rx="7.87"/><circle id="Elipse_37-3" data-name="Elipse 37" class="cls-5" cx="525.83" cy="352.84" r="7.87"/><circle id="Elipse_37-4" data-name="Elipse 37" class="cls-6" cx="525.83" cy="352.84" r="3.46"/><text class="cls-7" transform="translate(537.77 351.78)">Suc<tspan class="cls-13" x="5.52" y="0">r</tspan><tspan x="6.6" y="0">e B</tspan><tspan class="cls-14" x="11.12" y="0">r</tspan><tspan x="12.26" y="0">is</tspan><tspan class="cls-15" x="14.4" y="0">t</tspan><tspan class="cls-11" x="15.52" y="0">o</tspan><tspan class="cls-16"><tspan x="0" y="4.35">Bar</tspan></tspan></text><rect class="cls-17" x="526.81" y="292.39" width="57.05" height="15.74" rx="7.87"/><circle id="Elipse_37-5" data-name="Elipse 37" class="cls-5" cx="534.68" cy="300.26" r="7.87"/><circle id="Elipse_37-6" data-name="Elipse 37" class="cls-6" cx="534.68" cy="300.26" r="3.46"/><text class="cls-18" transform="translate(546.62 299.2)">Ha<tspan class="cls-19" x="4.26" y="0">r</tspan><tspan x="5.34" y="0">d </tspan><tspan class="cls-14" x="8.1" y="0">R</tspan><tspan x="10.13" y="0">ock </tspan><tspan class="cls-20" x="16.18" y="0">C</tspan><tspan x="18.33" y="0">a</tspan><tspan class="cls-21" x="20.11" y="0">f</tspan><tspan class="cls-9" x="21.03" y="0">e</tspan><tspan class="cls-22"><tspan x="0" y="4.35">Bar</tspan></tspan></text><rect class="cls-23" x="516.07" y="260.43" width="63.64" height="15.74" rx="7.87"/><circle id="Elipse_37-7" data-name="Elipse 37" class="cls-5" cx="523.94" cy="268.3" r="7.87"/><circle id="Elipse_37-8" data-name="Elipse 37" class="cls-6" cx="523.94" cy="268.3" r="3.46"/><text class="cls-7" transform="translate(535.88 267.24)">La<tspan class="cls-24" x="3.51" y="0"> </tspan><tspan class="cls-25" x="4" y="0">V</tspan><tspan x="6.02" y="0">ida</tspan><tspan class="cls-24" x="10.65" y="0"> </tspan><tspan class="cls-26" x="11.14" y="0">V</tspan><tspan x="13.09" y="0">e</tspan><tspan class="cls-19" x="14.95" y="0">r</tspan><tspan class="cls-11" x="16.03" y="0">de</tspan><tspan class="cls-27"><tspan x="0" y="4.35">C</tspan><tspan class="cls-9" x="2.14" y="4.35">omida</tspan><tspan class="cls-24" x="12.08" y="4.35"> </tspan><tspan class="cls-26" x="12.57" y="4.35">V</tspan><tspan class="cls-9" x="14.52" y="4.35">ege</tspan><tspan class="cls-15" x="20.33" y="4.35">t</tspan><tspan class="cls-9" x="21.44" y="4.35">e</tspan><tspan class="cls-14" x="23.3" y="4.35">r</tspan><tspan class="cls-11" x="24.44" y="4.35">iana</tspan></tspan></text><rect class="cls-28" x="454.66" y="292.7" width="67.03" height="15.74" rx="7.87"/><circle id="Elipse_37-9" data-name="Elipse 37" class="cls-5" cx="462.53" cy="300.57" r="7.87"/><circle id="Elipse_37-10" data-name="Elipse 37" class="cls-6" cx="462.53" cy="300.57" r="3.46"/><text class="cls-29" transform="translate(474.47 299.51)">M<tspan class="cls-9" x="3.15" y="0">edialunas </tspan><tspan class="cls-20" x="18.35" y="0">C</tspan><tspan class="cls-11" x="20.5" y="0">ale</tspan><tspan class="cls-30" x="24.87" y="0">n</tspan><tspan class="cls-9" x="26.94" y="0">titas</tspan><tspan class="cls-31"><tspan x="0" y="4.35">P</tspan><tspan class="cls-11" x="1.88" y="4.35">as</tspan><tspan class="cls-15" x="5.06" y="4.35">t</tspan><tspan class="cls-9" x="6.18" y="4.35">ele</tspan><tspan class="cls-14" x="10.63" y="4.35">r</tspan><tspan class="cls-11" x="11.77" y="4.35">ía</tspan></tspan></text><rect class="cls-32" x="410.48" y="333.1" width="49.43" height="15.74" rx="7.87"/><circle id="Elipse_37-11" data-name="Elipse 37" class="cls-5" cx="418.35" cy="340.97" r="7.87"/><circle id="Elipse_37-12" data-name="Elipse 37" class="cls-6" cx="418.35" cy="340.97" r="3.46"/><text class="cls-33" transform="translate(430.29 339.91)">P<tspan class="cls-11" x="1.92" y="0">i</tspan><tspan class="cls-34" x="2.65" y="0">r</tspan><tspan class="cls-11" x="3.75" y="0">a Sushi</tspan><tspan class="cls-8"><tspan x="0" y="4.35">R</tspan><tspan class="cls-9" x="2.03" y="4.35">estau</tspan><tspan class="cls-34" x="10.27" y="4.35">r</tspan><tspan class="cls-11" x="11.38" y="4.35">a</tspan><tspan class="cls-35" x="13.15" y="4.35">n</tspan><tspan class="cls-15" x="15.21" y="4.35">t</tspan><tspan class="cls-9" x="16.33" y="4.35">e</tspan></tspan></text><rect class="cls-36" x="403.05" y="298.63" width="51.93" height="15.74" rx="7.87"/><circle id="Elipse_37-13" data-name="Elipse 37" class="cls-5" cx="410.93" cy="306.5" r="7.87"/><circle id="Elipse_37-14" data-name="Elipse 37" class="cls-6" cx="410.93" cy="306.5" r="3.46"/><text class="cls-37" transform="translate(422.76 305.49)">T<tspan class="cls-11" x="1.81" y="0">h</tspan><tspan class="cls-19" x="3.89" y="0">r</tspan><tspan class="cls-9" x="4.97" y="0">ee </tspan><tspan class="cls-38" x="9.32" y="0">L</tspan><tspan class="cls-9" x="10.99" y="0">ounge</tspan><tspan class="cls-39"><tspan x="0" y="4.35">and Bar</tspan></tspan></text><rect class="cls-40" x="394.81" y="265.24" width="51.93" height="15.74" rx="7.87"/><circle id="Elipse_37-15" data-name="Elipse 37" class="cls-5" cx="402.69" cy="273.11" r="7.87"/><circle id="Elipse_37-16" data-name="Elipse 37" class="cls-6" cx="402.69" cy="273.11" r="3.46"/><text class="cls-29" transform="translate(414.34 272.1)">M<tspan class="cls-11" x="3.15" y="0">a</tspan><tspan class="cls-41" x="4.93" y="0">r</tspan><tspan class="cls-42" x="6.16" y="0">y</tspan><tspan class="cls-43" x="8.01" y="0">’</tspan><tspan class="cls-9" x="8.33" y="0">s</tspan><tspan class="cls-27"><tspan x="0" y="4.35">C</tspan><tspan class="cls-9" x="2.14" y="4.35">o</tspan><tspan class="cls-21" x="4.2" y="4.35">ff</tspan><tspan class="cls-9" x="6.34" y="4.35">ee House</tspan></tspan></text><rect class="cls-44" x="448.86" y="247.02" width="51.93" height="15.74" rx="7.87"/><circle id="Elipse_37-17" data-name="Elipse 37" class="cls-5" cx="456.73" cy="254.89" r="7.87"/><circle id="Elipse_37-18" data-name="Elipse 37" class="cls-6" cx="456.73" cy="254.89" r="3.46"/><text class="cls-18" transform="translate(468 253.93)">El <tspan class="cls-20" x="3.2" y="0">C</tspan><tspan x="5.35" y="0">a</tspan><tspan class="cls-21" x="7.13" y="0">f</tspan><tspan class="cls-9" x="8.05" y="0">é de </tspan><tspan class="cls-45" x="15.16" y="0">A</tspan><tspan x="17.43" y="0">cá</tspan><tspan class="cls-46"><tspan x="0" y="4.35">C</tspan><tspan class="cls-11" x="2.16" y="4.35">a</tspan><tspan class="cls-21" x="3.93" y="4.35">f</tspan><tspan class="cls-9" x="4.85" y="4.35">e</tspan><tspan class="cls-10" x="6.71" y="4.35">t</tspan><tspan class="cls-9" x="7.82" y="4.35">e</tspan><tspan class="cls-47" x="9.68" y="4.35">r</tspan><tspan class="cls-9" x="10.82" y="4.35">ía</tspan></tspan></text><rect class="cls-48" x="482.61" y="308.9" width="101.46" height="15.74" rx="7.87"/><circle id="Elipse_37-19" data-name="Elipse 37" class="cls-5" cx="490.48" cy="316.77" r="7.87"/><circle id="Elipse_37-20" data-name="Elipse 37" class="cls-6" cx="490.48" cy="316.77" r="3.46"/><path class="cls-6" d="M504.32,314.23c0,1.11-.41,1.72-1.13,1.72s-1.07-.59-1.08-1.67.47-1.69,1.13-1.69S504.32,313.2,504.32,314.23Zm-1.77,0c0,.85.26,1.33.66,1.33s.67-.53.67-1.36-.2-1.32-.66-1.32S502.55,313.4,502.55,314.28Z"/><path class="cls-6" d="M505.38,313.05h0l-.57.31-.08-.34.71-.38h.37v3.26h-.42Z"/><path class="cls-6" d="M507.54,315.37a1.55,1.55,0,0,0,.78.21c.45,0,.71-.23.71-.57s-.18-.5-.64-.67-.89-.48-.89-1a1,1,0,0,1,1.09-.91,1.61,1.61,0,0,1,.75.16l-.12.36a1.36,1.36,0,0,0-.64-.16c-.46,0-.64.27-.64.5s.21.47.67.65.87.5.87,1-.39,1-1.19,1a1.75,1.75,0,0,1-.86-.22Z"/><path class="cls-6" d="M510.52,315.9v-1.44l-1.07-1.94h.5l.47.93c.13.26.23.46.34.7h0c.09-.22.21-.44.34-.7l.49-.93h.49L511,314.46v1.44Z"/><path class="cls-6" d="M512.14,315.9v-3.38h.47l1.08,1.71a7.74,7.74,0,0,1,.61,1.1h0c0-.45,0-.86,0-1.39v-1.41h.41v3.38h-.44l-1.07-1.72a9.81,9.81,0,0,1-.63-1.12h0c0,.43,0,.83,0,1.39v1.45Z"/><path class="cls-6" d="M517.48,315.79a2.16,2.16,0,0,1-.89.16,1.58,1.58,0,0,1-1.66-1.71,1.67,1.67,0,0,1,1.76-1.77,1.79,1.79,0,0,1,.8.15l-.1.35a1.65,1.65,0,0,0-.69-.14,1.25,1.25,0,0,0-1.31,1.39,1.22,1.22,0,0,0,1.29,1.36,1.63,1.63,0,0,0,.71-.14Z"/><path class="cls-49" d="M504.41,320.77a2.58,2.58,0,0,1-.87.15,1.44,1.44,0,0,1-1.06-.37,1.48,1.48,0,0,1-.4-1.06,1.43,1.43,0,0,1,1.54-1.46,1.74,1.74,0,0,1,.71.13l-.09.3a1.41,1.41,0,0,0-.63-.13,1.06,1.06,0,0,0-1.14,1.15,1,1,0,0,0,1.1,1.14,1.29,1.29,0,0,0,.49-.07v-.85h-.58v-.3h.93Z"/><path class="cls-49" d="M504.62,320.68a.25.25,0,1,1,.24.26A.24.24,0,0,1,504.62,320.68Z"/><path class="cls-49" d="M506,318.09a4,4,0,0,1,.66,0,1.18,1.18,0,0,1,.78.2.59.59,0,0,1,.24.5.68.68,0,0,1-.48.63h0a.73.73,0,0,1,.59.71.76.76,0,0,1-.25.57,1.4,1.4,0,0,1-1,.26c-.25,0-.44,0-.56,0Zm.36,1.17h.33c.39,0,.62-.21.62-.48s-.25-.46-.62-.46a2.06,2.06,0,0,0-.33,0Zm0,1.36h.31c.38,0,.73-.13.73-.55s-.34-.54-.74-.54h-.3Z"/><path class="cls-49" d="M507.85,320.68a.25.25,0,1,1,.5,0,.25.25,0,1,1-.5,0Z"/><path class="cls-49" d="M511.63,319.45a1.33,1.33,0,0,1-1.32,1.49A1.3,1.3,0,0,1,509,319.5a1.35,1.35,0,0,1,1.31-1.49A1.29,1.29,0,0,1,511.63,319.45Zm-2.2,0c0,.61.33,1.15.9,1.15s.91-.53.91-1.18-.29-1.15-.9-1.15S509.43,318.87,509.43,319.49Z"/><path class="cls-49" d="M512.34,318a5.65,5.65,0,0,1-.39,1l-.24,0a6.82,6.82,0,0,0,.25-1Z"/><path class="cls-49" d="M512.49,317.91h.37v1.27h0a.62.62,0,0,1,.27-.26.7.7,0,0,1,.38-.11c.27,0,.71.17.71.87v1.22h-.37v-1.18c0-.32-.13-.6-.47-.6a.53.53,0,0,0-.5.37.45.45,0,0,0,0,.18v1.23h-.37Z"/><path class="cls-49" d="M515,318.28a.22.22,0,0,1-.24.23.22.22,0,0,1-.22-.23.23.23,0,0,1,.23-.23A.22.22,0,0,1,515,318.28Zm-.42,2.62v-2h.37v2Z"/><path class="cls-49" d="M517.06,318.86c0,.14,0,.31,0,.56v1.18a1.16,1.16,0,0,1-.3.93,1,1,0,0,1-.74.25,1.28,1.28,0,0,1-.67-.17l.09-.28a1.16,1.16,0,0,0,.6.16c.37,0,.65-.2.65-.72v-.22h0a.71.71,0,0,1-.64.34.91.91,0,0,1-.87-1,1,1,0,0,1,.92-1.08.67.67,0,0,1,.63.36h0l0-.31Zm-.38.8a.88.88,0,0,0,0-.17.54.54,0,0,0-.52-.39c-.35,0-.61.3-.61.77s.21.73.61.73a.54.54,0,0,0,.51-.37.75.75,0,0,0,0-.2Z"/><path class="cls-49" d="M519.16,318.86c0,.14,0,.31,0,.56v1.18a1.16,1.16,0,0,1-.29.93,1,1,0,0,1-.74.25,1.34,1.34,0,0,1-.68-.17l.1-.28a1.15,1.15,0,0,0,.59.16c.38,0,.66-.2.66-.72v-.22h0a.72.72,0,0,1-.65.34.91.91,0,0,1-.86-1,1,1,0,0,1,.92-1.08.67.67,0,0,1,.63.36h0l0-.31Zm-.38.8a.88.88,0,0,0,0-.17.54.54,0,0,0-.52-.39c-.36,0-.61.3-.61.77s.2.73.6.73a.55.55,0,0,0,.52-.37.75.75,0,0,0,0-.2Z"/><path class="cls-49" d="M519.89,318.28a.22.22,0,0,1-.24.23.22.22,0,0,1-.22-.23.23.23,0,0,1,.23-.23A.22.22,0,0,1,519.89,318.28Zm-.41,2.62v-2h.37v2Z"/><path class="cls-49" d="M520.21,319.41c0-.21,0-.38,0-.55h.33l0,.33h0a.76.76,0,0,1,.67-.38c.29,0,.72.17.72.87v1.22h-.37v-1.18c0-.33-.12-.6-.47-.6a.54.54,0,0,0-.5.38.79.79,0,0,0,0,.17v1.23h-.37Z"/><path class="cls-49" d="M522.24,320.52a1,1,0,0,0,.49.14c.27,0,.39-.13.39-.3s-.1-.27-.37-.37-.54-.34-.54-.58a.63.63,0,0,1,.7-.6,1,1,0,0,1,.5.13l-.09.27a.81.81,0,0,0-.42-.12c-.22,0-.34.12-.34.28s.12.24.39.34.53.31.53.62-.28.61-.76.61a1.2,1.2,0,0,1-.57-.14Z"/><path class="cls-49" d="M525.79,318.42a1.42,1.42,0,0,0-.28,0,1.1,1.1,0,0,0-1,1h0a.83.83,0,0,1,.66-.32.81.81,0,0,1,.83.89.91.91,0,0,1-.91,1c-.59,0-1-.45-1-1.16a1.73,1.73,0,0,1,.46-1.24,1.5,1.5,0,0,1,.88-.4,1.42,1.42,0,0,1,.27,0Zm-.11,1.58a.56.56,0,0,0-.56-.63.6.6,0,0,0-.53.34.25.25,0,0,0,0,.16c0,.45.21.79.6.79S525.68,320.39,525.68,320Z"/><path class="cls-49" d="M527.69,318.42a1.52,1.52,0,0,0-.28,0,1.11,1.11,0,0,0-.95,1h0A.83.83,0,0,1,528,320a.91.91,0,0,1-.91,1c-.58,0-1-.45-1-1.16a1.74,1.74,0,0,1,.47-1.24,1.74,1.74,0,0,1,1.14-.42Zm-.1,1.58a.56.56,0,0,0-.57-.63.61.61,0,0,0-.53.34.34.34,0,0,0,0,.16c0,.45.22.79.6.79S527.59,320.39,527.59,320Z"/><path class="cls-49" d="M528,320.2a.79.79,0,0,1,.54-.73h0a.69.69,0,0,1-.43-.62.76.76,0,0,1,.84-.73.71.71,0,0,1,.8.68.69.69,0,0,1-.45.64h0a.75.75,0,0,1,.55.71.84.84,0,0,1-.93.79C528.35,320.94,528,320.6,528,320.2Zm1.48,0c0-.33-.24-.49-.61-.59a.59.59,0,0,0-.49.56.51.51,0,0,0,.55.52A.5.5,0,0,0,529.48,320.18Zm-1-1.36c0,.27.2.42.52.5a.54.54,0,0,0,.41-.5.42.42,0,0,0-.46-.44A.43.43,0,0,0,528.46,318.82Z"/><path class="cls-49" d="M529.82,321.41a6.64,6.64,0,0,0,.25-1l.41,0a4.82,4.82,0,0,1-.4,1Z"/><path class="cls-49" d="M531.79,320l-.3.9h-.38l1-2.84h.44l1,2.84h-.39l-.31-.9Zm.93-.28-.28-.82c-.06-.19-.11-.35-.15-.52h0c0,.17-.09.34-.14.52l-.28.82Z"/><path class="cls-49" d="M533.56,320.52a1,1,0,0,0,.49.14c.27,0,.4-.13.4-.3s-.11-.27-.38-.37-.54-.34-.54-.58a.63.63,0,0,1,.7-.6,1,1,0,0,1,.5.13l-.09.27a.81.81,0,0,0-.42-.12c-.22,0-.34.12-.34.28s.12.24.39.34.53.31.53.62-.27.61-.76.61a1.2,1.2,0,0,1-.57-.14Z"/><path class="cls-49" d="M536.73,320.34a4.79,4.79,0,0,0,0,.56h-.33l0-.34h0a.76.76,0,0,1-.68.38c-.32,0-.7-.18-.7-.89v-1.19h.37V320c0,.38.12.64.46.64a.51.51,0,0,0,.48-.33.41.41,0,0,0,0-.19v-1.25h.37Z"/><path class="cls-49" d="M537.09,319.41a4.7,4.7,0,0,0,0-.55h.33l0,.33h0a.76.76,0,0,1,.67-.38c.29,0,.72.17.72.87v1.22h-.37v-1.18c0-.33-.12-.6-.47-.6a.54.54,0,0,0-.5.38.79.79,0,0,0,0,.17v1.23h-.37Z"/><path class="cls-49" d="M540.62,320.82a1.33,1.33,0,0,1-.58.12,1,1,0,0,1-1-1,1,1,0,0,1,1.1-1.08,1.23,1.23,0,0,1,.51.1l-.08.29a.87.87,0,0,0-.43-.1.71.71,0,0,0-.72.77.69.69,0,0,0,.7.76,1,1,0,0,0,.46-.1Z"/><path class="cls-49" d="M541.21,318.28a.21.21,0,0,1-.23.23.22.22,0,0,1-.22-.23.22.22,0,0,1,.23-.23A.21.21,0,0,1,541.21,318.28Zm-.41,2.62v-2h.37v2Z"/><path class="cls-49" d="M543.38,319.86a1,1,0,0,1-1,1.08,1,1,0,0,1-1-1.05,1,1,0,0,1,1-1.08A1,1,0,0,1,543.38,319.86Zm-1.62,0c0,.45.26.78.62.78s.62-.33.62-.79-.17-.78-.61-.78S541.76,319.49,541.76,319.88Zm1.18-1.9-.52.6h-.26l.37-.6Z"/><path class="cls-49" d="M543.59,319.41a4.7,4.7,0,0,0,0-.55h.33l0,.33h0a.76.76,0,0,1,.67-.38c.29,0,.73.17.73.87v1.22H545v-1.18c0-.33-.12-.6-.47-.6a.52.52,0,0,0-.49.38.43.43,0,0,0,0,.17v1.23h-.37Z"/><path class="cls-49" d="M545.43,321.41a6.62,6.62,0,0,0,.26-1l.41,0a6.2,6.2,0,0,1-.4,1Z"/><path class="cls-49" d="M546.94,318.09a4.3,4.3,0,0,1,.7,0,1.18,1.18,0,0,1,.8.23.76.76,0,0,1,.25.6.85.85,0,0,1-.22.6,1.16,1.16,0,0,1-.87.31,1.28,1.28,0,0,1-.29,0v1.14h-.37Zm.37,1.37a1.26,1.26,0,0,0,.3,0c.44,0,.71-.22.71-.61s-.26-.55-.67-.55a1.3,1.3,0,0,0-.34,0Z"/><path class="cls-49" d="M549.93,320.9l0-.26h0a.75.75,0,0,1-.62.3.59.59,0,0,1-.63-.58c0-.5.44-.77,1.23-.76v0a.43.43,0,0,0-.46-.48,1,1,0,0,0-.53.16l-.09-.25a1.26,1.26,0,0,1,.67-.18.72.72,0,0,1,.78.83v.77a3.68,3.68,0,0,0,0,.49Zm0-1c-.41,0-.86.06-.86.45a.33.33,0,0,0,.34.36.52.52,0,0,0,.5-.34.5.5,0,0,0,0-.12Z"/><path class="cls-49" d="M550.58,319.49a6.12,6.12,0,0,0,0-.63h.33v.4h0a.6.6,0,0,1,.56-.45h.11v.35h-.13a.53.53,0,0,0-.5.48.91.91,0,0,0,0,.17v1.09h-.37Z"/><path class="cls-49" d="M552.81,320.9l0-.26h0a.77.77,0,0,1-.63.3.58.58,0,0,1-.62-.58c0-.5.44-.77,1.23-.76v0a.43.43,0,0,0-.47-.48,1,1,0,0,0-.53.16l-.08-.25a1.26,1.26,0,0,1,.67-.18c.62,0,.77.43.77.83v.77a2.49,2.49,0,0,0,0,.49Zm0-1c-.41,0-.87.06-.87.45a.33.33,0,0,0,.35.36.49.49,0,0,0,.49-.34.27.27,0,0,0,0-.12Z"/><path class="cls-49" d="M555.21,318.86c0,.14,0,.31,0,.56v1.18a1.16,1.16,0,0,1-.29.93,1,1,0,0,1-.74.25,1.34,1.34,0,0,1-.68-.17l.1-.28a1.16,1.16,0,0,0,.6.16c.37,0,.65-.2.65-.72v-.22h0a.71.71,0,0,1-.64.34.91.91,0,0,1-.87-1,1,1,0,0,1,.92-1.08.67.67,0,0,1,.63.36h0l0-.31Zm-.38.8a.88.88,0,0,0,0-.17.54.54,0,0,0-.52-.39c-.35,0-.61.3-.61.77s.21.73.6.73a.55.55,0,0,0,.52-.37.75.75,0,0,0,0-.2Z"/><path class="cls-49" d="M557.26,320.34a4.79,4.79,0,0,0,0,.56H557l0-.34h0a.76.76,0,0,1-.68.38c-.32,0-.7-.18-.7-.89v-1.19h.37V320c0,.38.12.64.46.64a.51.51,0,0,0,.48-.33.41.41,0,0,0,0-.19v-1.25h.37Z"/><path class="cls-49" d="M558.75,320.9l0-.26h0a.75.75,0,0,1-.62.3.58.58,0,0,1-.62-.58c0-.5.44-.77,1.22-.76v0a.42.42,0,0,0-.46-.48,1,1,0,0,0-.53.16l-.08-.25a1.23,1.23,0,0,1,.67-.18c.62,0,.77.43.77.83v.77a3.68,3.68,0,0,0,0,.49Zm-.06-1c-.4,0-.86.06-.86.45a.33.33,0,0,0,.35.36.51.51,0,0,0,.49-.34.5.5,0,0,0,0-.12Z"/><path class="cls-49" d="M559.49,318.86l.45,1.2c0,.14.1.3.13.42h0c0-.12.08-.28.13-.43l.4-1.19h.4l-.56,1.45a3.09,3.09,0,0,1-.7,1.28,1,1,0,0,1-.45.24l-.1-.32a.73.73,0,0,0,.33-.18,1.07,1.07,0,0,0,.31-.41.15.15,0,0,0,0-.18l-.75-1.88Z"/></g><g id="Gastronomía_1" data-name="Gastronomía 1"><circle id="Elipse_37-21" data-name="Elipse 37" class="cls-5" cx="580.4" cy="283.78" r="7.87"/><circle id="Elipse_37-22" data-name="Elipse 37" class="cls-6" cx="580.4" cy="283.78" r="3.46"/><circle id="Elipse_37-23" data-name="Elipse 37" class="cls-5" cx="525.83" cy="352.84" r="7.87"/><circle id="Elipse_37-24" data-name="Elipse 37" class="cls-6" cx="525.83" cy="352.84" r="3.46"/><circle id="Elipse_37-25" data-name="Elipse 37" class="cls-5" cx="523.94" cy="268.3" r="7.87"/><circle id="Elipse_37-26" data-name="Elipse 37" class="cls-6" cx="523.94" cy="268.3" r="3.46"/><circle id="Elipse_37-27" data-name="Elipse 37" class="cls-5" cx="462.53" cy="300.57" r="7.87"/><circle id="Elipse_37-28" data-name="Elipse 37" class="cls-6" cx="462.53" cy="300.57" r="3.46"/><circle id="Elipse_37-29" data-name="Elipse 37" class="cls-5" cx="418.35" cy="340.97" r="7.87"/><circle id="Elipse_37-30" data-name="Elipse 37" class="cls-6" cx="418.35" cy="340.97" r="3.46"/><circle id="Elipse_37-31" data-name="Elipse 37" class="cls-5" cx="410.93" cy="306.5" r="7.87"/><circle id="Elipse_37-32" data-name="Elipse 37" class="cls-6" cx="410.93" cy="306.5" r="3.46"/><circle id="Elipse_37-33" data-name="Elipse 37" class="cls-5" cx="402.69" cy="273.11" r="7.87"/><circle id="Elipse_37-34" data-name="Elipse 37" class="cls-6" cx="402.69" cy="273.11" r="3.46"/><circle id="Elipse_37-35" data-name="Elipse 37" class="cls-5" cx="456.73" cy="254.89" r="7.87"/><circle id="Elipse_37-36" data-name="Elipse 37" class="cls-6" cx="456.73" cy="254.89" r="3.46"/><rect class="cls-50" x="482.61" y="308.9" width="101.46" height="15.74" rx="7.87"/><circle id="Elipse_37-37" data-name="Elipse 37" class="cls-5" cx="490.48" cy="316.77" r="7.87"/><circle id="Elipse_37-38" data-name="Elipse 37" class="cls-6" cx="490.48" cy="316.77" r="3.46"/><path class="cls-6" d="M504.32,314.23c0,1.11-.41,1.72-1.13,1.72s-1.07-.59-1.08-1.67.47-1.69,1.13-1.69S504.32,313.2,504.32,314.23Zm-1.77,0c0,.85.26,1.33.66,1.33s.67-.53.67-1.36-.2-1.32-.66-1.32S502.55,313.4,502.55,314.28Z"/><path class="cls-6" d="M505.38,313.05h0l-.57.31-.08-.34.71-.38h.37v3.26h-.42Z"/><path class="cls-6" d="M507.54,315.37a1.55,1.55,0,0,0,.78.21c.45,0,.71-.23.71-.57s-.18-.5-.64-.67-.89-.48-.89-1a1,1,0,0,1,1.09-.91,1.61,1.61,0,0,1,.75.16l-.12.36a1.36,1.36,0,0,0-.64-.16c-.46,0-.64.27-.64.5s.21.47.67.65.87.5.87,1-.39,1-1.19,1a1.75,1.75,0,0,1-.86-.22Z"/><path class="cls-6" d="M510.52,315.9v-1.44l-1.07-1.94h.5l.47.93c.13.26.23.46.34.7h0c.09-.22.21-.44.34-.7l.49-.93h.49L511,314.46v1.44Z"/><path class="cls-6" d="M512.14,315.9v-3.38h.47l1.08,1.71a7.74,7.74,0,0,1,.61,1.1h0c0-.45,0-.86,0-1.39v-1.41h.41v3.38h-.44l-1.07-1.72a9.81,9.81,0,0,1-.63-1.12h0c0,.43,0,.83,0,1.39v1.45Z"/><path class="cls-6" d="M517.48,315.79a2.16,2.16,0,0,1-.89.16,1.58,1.58,0,0,1-1.66-1.71,1.67,1.67,0,0,1,1.76-1.77,1.79,1.79,0,0,1,.8.15l-.1.35a1.65,1.65,0,0,0-.69-.14,1.25,1.25,0,0,0-1.31,1.39,1.22,1.22,0,0,0,1.29,1.36,1.63,1.63,0,0,0,.71-.14Z"/><path class="cls-49" d="M504.41,320.77a2.58,2.58,0,0,1-.87.15,1.44,1.44,0,0,1-1.06-.37,1.48,1.48,0,0,1-.4-1.06,1.43,1.43,0,0,1,1.54-1.46,1.74,1.74,0,0,1,.71.13l-.09.3a1.41,1.41,0,0,0-.63-.13,1.06,1.06,0,0,0-1.14,1.15,1,1,0,0,0,1.1,1.14,1.29,1.29,0,0,0,.49-.07v-.85h-.58v-.3h.93Z"/><path class="cls-49" d="M504.62,320.68a.25.25,0,1,1,.24.26A.24.24,0,0,1,504.62,320.68Z"/><path class="cls-49" d="M506,318.09a4,4,0,0,1,.66,0,1.18,1.18,0,0,1,.78.2.59.59,0,0,1,.24.5.68.68,0,0,1-.48.63h0a.73.73,0,0,1,.59.71.76.76,0,0,1-.25.57,1.4,1.4,0,0,1-1,.26c-.25,0-.44,0-.56,0Zm.36,1.17h.33c.39,0,.62-.21.62-.48s-.25-.46-.62-.46a2.06,2.06,0,0,0-.33,0Zm0,1.36h.31c.38,0,.73-.13.73-.55s-.34-.54-.74-.54h-.3Z"/><path class="cls-49" d="M507.85,320.68a.25.25,0,1,1,.5,0,.25.25,0,1,1-.5,0Z"/><path class="cls-49" d="M511.63,319.45a1.33,1.33,0,0,1-1.32,1.49A1.3,1.3,0,0,1,509,319.5a1.35,1.35,0,0,1,1.31-1.49A1.29,1.29,0,0,1,511.63,319.45Zm-2.2,0c0,.61.33,1.15.9,1.15s.91-.53.91-1.18-.29-1.15-.9-1.15S509.43,318.87,509.43,319.49Z"/><path class="cls-49" d="M512.34,318a5.65,5.65,0,0,1-.39,1l-.24,0a6.82,6.82,0,0,0,.25-1Z"/><path class="cls-49" d="M512.49,317.91h.37v1.27h0a.62.62,0,0,1,.27-.26.7.7,0,0,1,.38-.11c.27,0,.71.17.71.87v1.22h-.37v-1.18c0-.32-.13-.6-.47-.6a.53.53,0,0,0-.5.37.45.45,0,0,0,0,.18v1.23h-.37Z"/><path class="cls-49" d="M515,318.28a.22.22,0,0,1-.24.23.22.22,0,0,1-.22-.23.23.23,0,0,1,.23-.23A.22.22,0,0,1,515,318.28Zm-.42,2.62v-2h.37v2Z"/><path class="cls-49" d="M517.06,318.86c0,.14,0,.31,0,.56v1.18a1.16,1.16,0,0,1-.3.93,1,1,0,0,1-.74.25,1.28,1.28,0,0,1-.67-.17l.09-.28a1.16,1.16,0,0,0,.6.16c.37,0,.65-.2.65-.72v-.22h0a.71.71,0,0,1-.64.34.91.91,0,0,1-.87-1,1,1,0,0,1,.92-1.08.67.67,0,0,1,.63.36h0l0-.31Zm-.38.8a.88.88,0,0,0,0-.17.54.54,0,0,0-.52-.39c-.35,0-.61.3-.61.77s.21.73.61.73a.54.54,0,0,0,.51-.37.75.75,0,0,0,0-.2Z"/><path class="cls-49" d="M519.16,318.86c0,.14,0,.31,0,.56v1.18a1.16,1.16,0,0,1-.29.93,1,1,0,0,1-.74.25,1.34,1.34,0,0,1-.68-.17l.1-.28a1.15,1.15,0,0,0,.59.16c.38,0,.66-.2.66-.72v-.22h0a.72.72,0,0,1-.65.34.91.91,0,0,1-.86-1,1,1,0,0,1,.92-1.08.67.67,0,0,1,.63.36h0l0-.31Zm-.38.8a.88.88,0,0,0,0-.17.54.54,0,0,0-.52-.39c-.36,0-.61.3-.61.77s.2.73.6.73a.55.55,0,0,0,.52-.37.75.75,0,0,0,0-.2Z"/><path class="cls-49" d="M519.89,318.28a.22.22,0,0,1-.24.23.22.22,0,0,1-.22-.23.23.23,0,0,1,.23-.23A.22.22,0,0,1,519.89,318.28Zm-.41,2.62v-2h.37v2Z"/><path class="cls-49" d="M520.21,319.41c0-.21,0-.38,0-.55h.33l0,.33h0a.76.76,0,0,1,.67-.38c.29,0,.72.17.72.87v1.22h-.37v-1.18c0-.33-.12-.6-.47-.6a.54.54,0,0,0-.5.38.79.79,0,0,0,0,.17v1.23h-.37Z"/><path class="cls-49" d="M522.24,320.52a1,1,0,0,0,.49.14c.27,0,.39-.13.39-.3s-.1-.27-.37-.37-.54-.34-.54-.58a.63.63,0,0,1,.7-.6,1,1,0,0,1,.5.13l-.09.27a.81.81,0,0,0-.42-.12c-.22,0-.34.12-.34.28s.12.24.39.34.53.31.53.62-.28.61-.76.61a1.2,1.2,0,0,1-.57-.14Z"/><path class="cls-49" d="M525.79,318.42a1.42,1.42,0,0,0-.28,0,1.1,1.1,0,0,0-1,1h0a.83.83,0,0,1,.66-.32.81.81,0,0,1,.83.89.91.91,0,0,1-.91,1c-.59,0-1-.45-1-1.16a1.73,1.73,0,0,1,.46-1.24,1.5,1.5,0,0,1,.88-.4,1.42,1.42,0,0,1,.27,0Zm-.11,1.58a.56.56,0,0,0-.56-.63.6.6,0,0,0-.53.34.25.25,0,0,0,0,.16c0,.45.21.79.6.79S525.68,320.39,525.68,320Z"/><path class="cls-49" d="M527.69,318.42a1.52,1.52,0,0,0-.28,0,1.11,1.11,0,0,0-.95,1h0A.83.83,0,0,1,528,320a.91.91,0,0,1-.91,1c-.58,0-1-.45-1-1.16a1.74,1.74,0,0,1,.47-1.24,1.74,1.74,0,0,1,1.14-.42Zm-.1,1.58a.56.56,0,0,0-.57-.63.61.61,0,0,0-.53.34.34.34,0,0,0,0,.16c0,.45.22.79.6.79S527.59,320.39,527.59,320Z"/><path class="cls-49" d="M528,320.2a.79.79,0,0,1,.54-.73h0a.69.69,0,0,1-.43-.62.76.76,0,0,1,.84-.73.71.71,0,0,1,.8.68.69.69,0,0,1-.45.64h0a.75.75,0,0,1,.55.71.84.84,0,0,1-.93.79C528.35,320.94,528,320.6,528,320.2Zm1.48,0c0-.33-.24-.49-.61-.59a.59.59,0,0,0-.49.56.51.51,0,0,0,.55.52A.5.5,0,0,0,529.48,320.18Zm-1-1.36c0,.27.2.42.52.5a.54.54,0,0,0,.41-.5.42.42,0,0,0-.46-.44A.43.43,0,0,0,528.46,318.82Z"/><path class="cls-49" d="M529.82,321.41a6.64,6.64,0,0,0,.25-1l.41,0a4.82,4.82,0,0,1-.4,1Z"/><path class="cls-49" d="M531.79,320l-.3.9h-.38l1-2.84h.44l1,2.84h-.39l-.31-.9Zm.93-.28-.28-.82c-.06-.19-.11-.35-.15-.52h0c0,.17-.09.34-.14.52l-.28.82Z"/><path class="cls-49" d="M533.56,320.52a1,1,0,0,0,.49.14c.27,0,.4-.13.4-.3s-.11-.27-.38-.37-.54-.34-.54-.58a.63.63,0,0,1,.7-.6,1,1,0,0,1,.5.13l-.09.27a.81.81,0,0,0-.42-.12c-.22,0-.34.12-.34.28s.12.24.39.34.53.31.53.62-.27.61-.76.61a1.2,1.2,0,0,1-.57-.14Z"/><path class="cls-49" d="M536.73,320.34a4.79,4.79,0,0,0,0,.56h-.33l0-.34h0a.76.76,0,0,1-.68.38c-.32,0-.7-.18-.7-.89v-1.19h.37V320c0,.38.12.64.46.64a.51.51,0,0,0,.48-.33.41.41,0,0,0,0-.19v-1.25h.37Z"/><path class="cls-49" d="M537.09,319.41a4.7,4.7,0,0,0,0-.55h.33l0,.33h0a.76.76,0,0,1,.67-.38c.29,0,.72.17.72.87v1.22h-.37v-1.18c0-.33-.12-.6-.47-.6a.54.54,0,0,0-.5.38.79.79,0,0,0,0,.17v1.23h-.37Z"/><path class="cls-49" d="M540.62,320.82a1.33,1.33,0,0,1-.58.12,1,1,0,0,1-1-1,1,1,0,0,1,1.1-1.08,1.23,1.23,0,0,1,.51.1l-.08.29a.87.87,0,0,0-.43-.1.71.71,0,0,0-.72.77.69.69,0,0,0,.7.76,1,1,0,0,0,.46-.1Z"/><path class="cls-49" d="M541.21,318.28a.21.21,0,0,1-.23.23.22.22,0,0,1-.22-.23.22.22,0,0,1,.23-.23A.21.21,0,0,1,541.21,318.28Zm-.41,2.62v-2h.37v2Z"/><path class="cls-49" d="M543.38,319.86a1,1,0,0,1-1,1.08,1,1,0,0,1-1-1.05,1,1,0,0,1,1-1.08A1,1,0,0,1,543.38,319.86Zm-1.62,0c0,.45.26.78.62.78s.62-.33.62-.79-.17-.78-.61-.78S541.76,319.49,541.76,319.88Zm1.18-1.9-.52.6h-.26l.37-.6Z"/><path class="cls-49" d="M543.59,319.41a4.7,4.7,0,0,0,0-.55h.33l0,.33h0a.76.76,0,0,1,.67-.38c.29,0,.73.17.73.87v1.22H545v-1.18c0-.33-.12-.6-.47-.6a.52.52,0,0,0-.49.38.43.43,0,0,0,0,.17v1.23h-.37Z"/><path class="cls-49" d="M545.43,321.41a6.62,6.62,0,0,0,.26-1l.41,0a6.2,6.2,0,0,1-.4,1Z"/><path class="cls-49" d="M546.94,318.09a4.3,4.3,0,0,1,.7,0,1.18,1.18,0,0,1,.8.23.76.76,0,0,1,.25.6.85.85,0,0,1-.22.6,1.16,1.16,0,0,1-.87.31,1.28,1.28,0,0,1-.29,0v1.14h-.37Zm.37,1.37a1.26,1.26,0,0,0,.3,0c.44,0,.71-.22.71-.61s-.26-.55-.67-.55a1.3,1.3,0,0,0-.34,0Z"/><path class="cls-49" d="M549.93,320.9l0-.26h0a.75.75,0,0,1-.62.3.59.59,0,0,1-.63-.58c0-.5.44-.77,1.23-.76v0a.43.43,0,0,0-.46-.48,1,1,0,0,0-.53.16l-.09-.25a1.26,1.26,0,0,1,.67-.18.72.72,0,0,1,.78.83v.77a3.68,3.68,0,0,0,0,.49Zm0-1c-.41,0-.86.06-.86.45a.33.33,0,0,0,.34.36.52.52,0,0,0,.5-.34.5.5,0,0,0,0-.12Z"/><path class="cls-49" d="M550.58,319.49a6.12,6.12,0,0,0,0-.63h.33v.4h0a.6.6,0,0,1,.56-.45h.11v.35h-.13a.53.53,0,0,0-.5.48.91.91,0,0,0,0,.17v1.09h-.37Z"/><path class="cls-49" d="M552.81,320.9l0-.26h0a.77.77,0,0,1-.63.3.58.58,0,0,1-.62-.58c0-.5.44-.77,1.23-.76v0a.43.43,0,0,0-.47-.48,1,1,0,0,0-.53.16l-.08-.25a1.26,1.26,0,0,1,.67-.18c.62,0,.77.43.77.83v.77a2.49,2.49,0,0,0,0,.49Zm0-1c-.41,0-.87.06-.87.45a.33.33,0,0,0,.35.36.49.49,0,0,0,.49-.34.27.27,0,0,0,0-.12Z"/><path class="cls-49" d="M555.21,318.86c0,.14,0,.31,0,.56v1.18a1.16,1.16,0,0,1-.29.93,1,1,0,0,1-.74.25,1.34,1.34,0,0,1-.68-.17l.1-.28a1.16,1.16,0,0,0,.6.16c.37,0,.65-.2.65-.72v-.22h0a.71.71,0,0,1-.64.34.91.91,0,0,1-.87-1,1,1,0,0,1,.92-1.08.67.67,0,0,1,.63.36h0l0-.31Zm-.38.8a.88.88,0,0,0,0-.17.54.54,0,0,0-.52-.39c-.35,0-.61.3-.61.77s.21.73.6.73a.55.55,0,0,0,.52-.37.75.75,0,0,0,0-.2Z"/><path class="cls-49" d="M557.26,320.34a4.79,4.79,0,0,0,0,.56H557l0-.34h0a.76.76,0,0,1-.68.38c-.32,0-.7-.18-.7-.89v-1.19h.37V320c0,.38.12.64.46.64a.51.51,0,0,0,.48-.33.41.41,0,0,0,0-.19v-1.25h.37Z"/><path class="cls-49" d="M558.75,320.9l0-.26h0a.75.75,0,0,1-.62.3.58.58,0,0,1-.62-.58c0-.5.44-.77,1.22-.76v0a.42.42,0,0,0-.46-.48,1,1,0,0,0-.53.16l-.08-.25a1.23,1.23,0,0,1,.67-.18c.62,0,.77.43.77.83v.77a3.68,3.68,0,0,0,0,.49Zm-.06-1c-.4,0-.86.06-.86.45a.33.33,0,0,0,.35.36.51.51,0,0,0,.49-.34.5.5,0,0,0,0-.12Z"/><path class="cls-49" d="M559.49,318.86l.45,1.2c0,.14.1.3.13.42h0c0-.12.08-.28.13-.43l.4-1.19h.4l-.56,1.45a3.09,3.09,0,0,1-.7,1.28,1,1,0,0,1-.45.24l-.1-.32a.73.73,0,0,0,.33-.18,1.07,1.07,0,0,0,.31-.41.15.15,0,0,0,0-.18l-.75-1.88Z"/><circle id="Elipse_37-39" data-name="Elipse 37" class="cls-5" cx="534.68" cy="300.26" r="7.87"/><circle id="Elipse_37-40" data-name="Elipse 37" class="cls-6" cx="534.68" cy="300.26" r="3.46"/></g></svg>